<svg viewBox="0 0 60 60" height="80" xmlns:xlink="http://www.w3.org/1999/xlink" xmlns="http://www.w3.org/2000/svg"><defs><style>.cls-1{opacity:0.05;}.cls-2{fill:#eb5039;}.cls-3{fill:url(#linear-gradient);}.cls-4{fill:url(#linear-gradient-2);}</style><linearGradient id="linear-gradient" x1="25.72" y1="46.74" x2="25.72" y2="88.51" gradientUnits="userSpaceOnUse"><stop offset="0" stop-color="#d33a2c" stop-opacity="0.3"></stop><stop offset="0.02" stop-color="#d33a2c" stop-opacity="0.28"></stop><stop offset="0.28" stop-color="#d33a2c" stop-opacity="0.13"></stop><stop offset="0.48" stop-color="#d33a2c" stop-opacity="0.04"></stop><stop offset="0.6" stop-color="#d33a2c" stop-opacity="0"></stop></linearGradient><linearGradient id="linear-gradient-2" x1="44.44" y1="52.59" x2="44.44" y2="93.72" gradientUnits="userSpaceOnUse"><stop offset="0" stop-color="#d33a2c" stop-opacity="0.2"></stop><stop offset="0.14" stop-color="#d33a2c" stop-opacity="0.13"></stop><stop offset="0.36" stop-color="#d33a2c" stop-opacity="0.04"></stop><stop offset="0.5" stop-color="#d33a2c" stop-opacity="0"></stop></linearGradient></defs><title>Artboard 9</title><ellipse class="cls-1" cx="30.69" cy="48.43" rx="24.63" ry="3.38"></ellipse><g id="S"><g id="Kasten"><path class="cls-2" d="M38.51,30.34a27.55,27.55,0,0,0-7-3.78,28.32,28.32,0,0,1-5.36-2.87q-6-4.18-6-10.37a10.63,10.63,0,0,1,2.25-6.89,10.19,10.19,0,0,1,.86-.94l-8.55,2A4.62,4.62,0,0,0,11.18,13l7.08,30.59A4.62,4.62,0,0,0,23.79,47l3.51-.81L27,46.16a33.76,33.76,0,0,1-6.78-2.92l3.66-8.18a16.3,16.3,0,0,0,10.4,3.66c4,0,6-1.43,6-4.27A5.26,5.26,0,0,0,38.51,30.34Z"></path><path class="cls-2" d="M57.85,34.45,50.77,3.86A4.62,4.62,0,0,0,45.23.4L40.08,1.59q.89.14,1.76.33A28.13,28.13,0,0,1,48.5,4.31l-3,8c-2.24-1.92-5.37-2.88-9.37-2.88q-5.38,0-5.39,4.28a3.86,3.86,0,0,0,1.77,3,36.82,36.82,0,0,0,7.56,3.66,23.64,23.64,0,0,1,6.39,3.55,12.68,12.68,0,0,1,2,2A12.35,12.35,0,0,1,51,33.75a11.85,11.85,0,0,1-2.45,7.58L54.38,40A4.61,4.61,0,0,0,57.85,34.45Z"></path></g></g></svg>