<svg xmlns="http://www.w3.org/2000/svg" id="Ebene_1" xmlns:xlink="http://www.w3.org/1999/xlink" viewBox="0 0 218.3 56.6"><style>.st0{fill:url(#SVGID_2_);}.st1{display:none;}.st2{display:inline;}.st3{display:inline;clip-path:url(#SVGID_5_);}.st4{fill:url(#SVGID_6_);}.st5{clip-path:url(#SVGID_8_);}.st6{fill:url(#SVGID_10_);}.st7{fill:url(#SVGID_11_);}.st8{fill:url(#SVGID_12_);}.st9{clip-path:url(#SVGID_14_);}.st10{fill:url(#SVGID_15_);}.st11{fill:url(#SVGID_16_);}.st12{fill:url(#SVGID_17_);}.st13{fill:url(#SVGID_18_);}.st14{fill:url(#SVGID_19_);}.st15{fill:url(#SVGID_20_);}.st16{fill:url(#SVGID_21_);}.st17{fill:url(#SVGID_22_);}.st18{fill:url(#SVGID_23_);}.st19{fill:url(#SVGID_24_);}.st20{fill:url(#SVGID_25_);}.st21{fill:url(#SVGID_26_);}.st22{fill:url(#SVGID_29_);}.st23{fill:url(#SVGID_30_);}.st24{fill:url(#SVGID_31_);}.st25{fill:url(#SVGID_32_);}.st26{fill:url(#SVGID_33_);}.st27{clip-path:url(#SVGID_38_);}.st28{clip-path:url(#SVGID_39_);}.st29{fill:url(#SVGID_40_);}.st30{fill:url(#SVGID_41_);}.st31{fill:url(#SVGID_42_);}.st32{fill:url(#SVGID_43_);}.st33{fill:url(#SVGID_44_);}.st34{fill:url(#SVGID_45_);}.st35{fill:url(#SVGID_46_);}.st36{fill:url(#SMASHING_1_);}.st37{fill:#E43A2C;}.st38{fill:#E85C32;}.st39{opacity:0.65;clip-path:url(#SVGID_48_);fill:url(#SVGID_49_);enable-background:new ;}.st40{opacity:0.3;clip-path:url(#SVGID_51_);fill:url(#SVGID_52_);enable-background:new ;}.st41{fill:#FFFFFF;}.st42{fill:#999999;}</style><g><g><g><g id="SMASHING_SCHRIFTZUG_3_"><g><linearGradient id="SVGID_2_" x1="78.953" x2="182.222" y1="949.154" y2="1008.777" gradientUnits="userSpaceOnUse" gradientTransform="matrix(1 0 0 -1 0 1000)"><stop offset="0" stop-color="#E43A2C"/><stop offset=".5" stop-color="#ED8037"/><stop offset=".606" stop-color="#EC7A36"/><stop offset=".745" stop-color="#EA6A34"/><stop offset=".901" stop-color="#E74F2F"/><stop offset="1" stop-color="#E43A2C"/></linearGradient><path id="SVGID_1_" d="M69.5 24.1c0 .7.1 1.4.4 1.9s.6.9 1 1.3c.4.3 1 .5 1.6.7.6.1 1.2.2 1.8.2.4 0 .9 0 1.4-.1s.9-.2 1.4-.4c.4-.2.8-.5 1.1-.8.3-.4.4-.8.4-1.4s-.2-1.1-.6-1.4c-.4-.4-.9-.7-1.5-.9-.6-.2-1.3-.5-2.1-.6L72 22s-1.6-.4-2.4-.7c-.8-.3-1.5-.7-2.1-1.2S66.4 19 66 18.4c-.4-.7-.6-1.6-.6-2.6 0-1.1.2-2.1.7-2.9s1.1-1.5 1.9-2.1 1.7-1 2.6-1.2c1-.3 2-.4 2.9-.4 1.1 0 2.2.1 3.3.4 1.1.2 2 .7 2.8 1.2.8.6 1.5 1.3 1.9 2.2.5.9.7 2 .7 3.2h-4.7c0-.7-.2-1.2-.4-1.6-.2-.4-.5-.8-.9-1s-.8-.4-1.3-.5-1-.2-1.6-.2c-.4 0-.8 0-1.2.1-.4.1-.7.2-1.1.4-.3.2-.6.5-.8.8-.2.3-.3.7-.3 1.2 0 .4.1.8.2 1 .2.3.5.5.9.7.5.2 1.2.5 2 .7l3.3.9c.4.1 1 .2 1.7.5.7.2 1.5.5 2.2 1s1.3 1.1 1.8 1.9.8 1.8.8 3c0 1-.2 1.9-.6 2.8s-1 1.6-1.7 2.2c-.8.6-1.7 1.1-2.8 1.4-1.1.3-2.4.5-3.9.5-1.2 0-2.4-.2-3.5-.5s-2.1-.7-3-1.4c-.9-.6-1.5-1.4-2.1-2.4-.5-1-.8-2.1-.7-3.5h5v-.1zm45.8-1.2h5.7l-2.8-8-2.9 8zm.5-13.4h4.9l8.2 21.9h-5l-1.7-4.9H114l-1.7 4.9h-9.2V15.9l-5.4 15.5H94L88.6 16l-.1 15.4H84V9.5h6.8l5.1 15 4.9-15h6.8v21.6l8.2-21.6zM132 24.1c0 .7.1 1.4.4 1.9.3.5.6.9 1 1.3.5.3 1 .5 1.6.7.6.1 1.2.2 1.8.2.4 0 .9 0 1.4-.1s.9-.2 1.4-.4c.4-.2.8-.5 1.1-.8.3-.4.4-.8.4-1.4s-.2-1.1-.6-1.4c-.4-.4-.9-.7-1.5-.9-.6-.2-1.3-.5-2.1-.6l-2.4-.6c-.8-.2-1.6-.4-2.4-.7-.8-.3-1.5-.7-2.1-1.2s-1.1-1.1-1.5-1.7c-.4-.7-.6-1.6-.6-2.6 0-1.1.2-2.1.7-2.9s1.1-1.5 1.9-2.1c.8-.6 1.7-1 2.6-1.2 1-.3 2-.4 2.9-.4 1.1 0 2.2.1 3.3.4 1.1.2 2 .7 2.8 1.2.8.6 1.5 1.3 1.9 2.2.5.9.7 2 .7 3.2H140c0-.7-.2-1.2-.4-1.6s-.5-.8-.9-1-.8-.4-1.3-.5-1-.2-1.6-.2c-.4 0-.8 0-1.2.1s-.7.2-1.1.4c-.3.2-.6.5-.8.8s-.3.7-.3 1.2c0 .4.1.8.2 1 .2.3.5.5.9.7.5.2 1.2.5 2 .7l3.3.9c.4.1 1 .2 1.7.5.7.2 1.5.5 2.2 1s1.3 1.1 1.8 1.9.8 1.8.8 3c0 1-.2 1.9-.6 2.8-.4.9-1 1.6-1.7 2.2-.8.6-1.7 1.1-2.8 1.4s-2.4.5-3.9.5c-1.2 0-2.4-.2-3.5-.5s-2.1-.7-3-1.4c-.9-.6-1.5-1.4-2.1-2.4-.5-1-.8-2.1-.7-3.5h5v-.1zm14.6-14.6h4.8v8.4h8.9V9.5h4.8v21.9h-4.8V22h-8.9v9.4h-4.8V9.5zm20.7 0h4.8v21.9h-4.8V9.5zm7 0h4.8l9.1 14.7.1-14.7h4.5v21.9H188l-9.1-14.6-.1 14.6h-4.5V9.5z" class="st0"/></g><g id="Backup_Verlauf_Smashing_3_" class="st1"><defs><path id="SVGID_3_" d="M69.5 24.1c0 .7.1 1.4.4 1.9s.6.9 1 1.3c.4.3 1 .5 1.6.7.6.1 1.2.2 1.8.2.4 0 .9 0 1.4-.1s.9-.2 1.4-.4c.4-.2.8-.5 1.1-.8.3-.4.4-.8.4-1.4s-.2-1.1-.6-1.4c-.4-.4-.9-.7-1.5-.9-.6-.2-1.3-.5-2.1-.6L72 22s-1.6-.4-2.4-.7c-.8-.3-1.5-.7-2.1-1.2S66.4 19 66 18.4c-.4-.7-.6-1.6-.6-2.6 0-1.1.2-2.1.7-2.9s1.1-1.5 1.9-2.1 1.7-1 2.6-1.2c1-.3 2-.4 2.9-.4 1.1 0 2.2.1 3.3.4 1.1.2 2 .7 2.8 1.2.8.6 1.5 1.3 1.9 2.2.5.9.7 2 .7 3.2h-4.7c0-.7-.2-1.2-.4-1.6-.2-.4-.5-.8-.9-1s-.8-.4-1.3-.5-1-.2-1.6-.2c-.4 0-.8 0-1.2.1-.4.1-.7.2-1.1.4-.3.2-.6.5-.8.8-.2.3-.3.7-.3 1.2 0 .4.1.8.2 1 .2.3.5.5.9.7.5.2 1.2.5 2 .7l3.3.9c.4.1 1 .2 1.7.5.7.2 1.5.5 2.2 1s1.3 1.1 1.8 1.9.8 1.8.8 3c0 1-.2 1.9-.6 2.8s-1 1.6-1.7 2.2c-.8.6-1.7 1.1-2.8 1.4-1.1.3-2.4.5-3.9.5-1.2 0-2.4-.2-3.5-.5s-2.1-.7-3-1.4c-.9-.6-1.5-1.4-2.1-2.4-.5-1-.8-2.1-.7-3.5h5v-.1zm45.8-1.2h5.7l-2.8-8-2.9 8zm.5-13.4h4.9l8.2 21.9h-5l-1.7-4.9H114l-1.7 4.9h-9.2V15.9l-5.4 15.5H94L88.6 16l-.1 15.4H84V9.5h6.8l5.1 15 4.9-15h6.8v21.6l8.2-21.6zM132 24.1c0 .7.1 1.4.4 1.9.3.5.6.9 1 1.3.5.3 1 .5 1.6.7.6.1 1.2.2 1.8.2.4 0 .9 0 1.4-.1s.9-.2 1.4-.4c.4-.2.8-.5 1.1-.8.3-.4.4-.8.4-1.4s-.2-1.1-.6-1.4c-.4-.4-.9-.7-1.5-.9-.6-.2-1.3-.5-2.1-.6l-2.4-.6c-.8-.2-1.6-.4-2.4-.7-.8-.3-1.5-.7-2.1-1.2s-1.1-1.1-1.5-1.7c-.4-.7-.6-1.6-.6-2.6 0-1.1.2-2.1.7-2.9s1.1-1.5 1.9-2.1c.8-.6 1.7-1 2.6-1.2 1-.3 2-.4 2.9-.4 1.1 0 2.2.1 3.3.4 1.1.2 2 .7 2.8 1.2.8.6 1.5 1.3 1.9 2.2.5.9.7 2 .7 3.2H140c0-.7-.2-1.2-.4-1.6s-.5-.8-.9-1-.8-.4-1.3-.5-1-.2-1.6-.2c-.4 0-.8 0-1.2.1s-.7.2-1.1.4c-.3.2-.6.5-.8.8s-.3.7-.3 1.2c0 .4.1.8.2 1 .2.3.5.5.9.7.5.2 1.2.5 2 .7l3.3.9c.4.1 1 .2 1.7.5.7.2 1.5.5 2.2 1s1.3 1.1 1.8 1.9.8 1.8.8 3c0 1-.2 1.9-.6 2.8-.4.9-1 1.6-1.7 2.2-.8.6-1.7 1.1-2.8 1.4s-2.4.5-3.9.5c-1.2 0-2.4-.2-3.5-.5s-2.1-.7-3-1.4c-.9-.6-1.5-1.4-2.1-2.4-.5-1-.8-2.1-.7-3.5h5v-.1zm14.6-14.6h4.8v8.4h8.9V9.5h4.8v21.9h-4.8V22h-8.9v9.4h-4.8V9.5zm20.7 0h4.8v21.9h-4.8V9.5zm7 0h4.8l9.1 14.7.1-14.7h4.5v21.9H188l-9.1-14.6-.1 14.6h-4.5V9.5z"/></defs><clipPath id="SVGID_5_" class="st2"><use xlink:href="#SVGID_3_" overflow="visible"/></clipPath><g class="st3"><g><g><linearGradient id="SVGID_6_" x1="94.112" x2="198.878" y1="919.962" y2="980.448" gradientUnits="userSpaceOnUse" gradientTransform="matrix(1 0 0 -1 0 1000)"><stop offset="0" stop-color="#E43A2C"/><stop offset=".5" stop-color="#ED8037"/><stop offset=".606" stop-color="#EC7A36"/><stop offset=".745" stop-color="#EA6A34"/><stop offset=".901" stop-color="#E74F2F"/><stop offset="1" stop-color="#E43A2C"/></linearGradient><path id="SVGID_4_" d="M196 14.6l6.5 11.8L96.9 84.9l-6.5-11.8z" class="st4"/></g><g><defs><path id="SVGID_7_" d="M196 14.6l6.5 11.8L96.9 84.9l-6.5-11.8z"/></defs><clipPath id="SVGID_8_"><use xlink:href="#SVGID_7_" overflow="visible"/></clipPath><g class="st5"><linearGradient id="SVGID_10_" x1="92.524" x2="197.135" y1="922.897" y2="983.294" gradientUnits="userSpaceOnUse" gradientTransform="matrix(1 0 0 -1 0 1000)"><stop offset="0" stop-color="#E43A2C"/><stop offset=".5" stop-color="#ED8037"/><stop offset=".606" stop-color="#EC7A36"/><stop offset=".745" stop-color="#EA6A34"/><stop offset=".901" stop-color="#E74F2F"/><stop offset="1" stop-color="#E43A2C"/></linearGradient><path d="M195.9 14.6l3.3 5.9L93.6 79l-3.2-5.8z" class="st6"/><linearGradient id="SVGID_11_" x1="95.777" x2="200.388" y1="917.078" y2="977.475" gradientUnits="userSpaceOnUse" gradientTransform="matrix(1 0 0 -1 0 1000)"><stop offset="0" stop-color="#E43A2C"/><stop offset=".5" stop-color="#ED8037"/><stop offset=".606" stop-color="#EC7A36"/><stop offset=".745" stop-color="#EA6A34"/><stop offset=".901" stop-color="#E74F2F"/><stop offset="1" stop-color="#E43A2C"/></linearGradient><path d="M199.2 20.5l3.2 5.9L96.9 84.9 93.6 79z" class="st7"/></g></g><g class="st1"><g class="st2"><linearGradient id="SVGID_12_" x1="74.654" x2="180.161" y1="954.126" y2="1015.04" gradientUnits="userSpaceOnUse" gradientTransform="matrix(1 0 0 -1 0 1000)"><stop offset="0" stop-color="#E43A2C"/><stop offset=".5" stop-color="#ED8037"/><stop offset=".606" stop-color="#EC7A36"/><stop offset=".745" stop-color="#EA6A34"/><stop offset=".901" stop-color="#E74F2F"/><stop offset="1" stop-color="#E43A2C"/></linearGradient><path id="SVGID_9_" d="M164-43l32.3 58.2L90.7 73.7 58.5 15.5z" class="st8"/></g><g class="st2"><defs><path id="SVGID_13_" d="M164-43l32.3 58.2L90.7 73.7 58.5 15.5z"/></defs><clipPath id="SVGID_14_"><use xlink:href="#SVGID_13_" overflow="visible"/></clipPath><g class="st9"><linearGradient id="SVGID_15_" x1="61.008" x2="165.625" y1="979.817" y2="1040.218" gradientUnits="userSpaceOnUse" gradientTransform="matrix(1 0 0 -1 0 1000)"><stop offset="0" stop-color="#E43A2C"/><stop offset=".5" stop-color="#ED8037"/><stop offset=".606" stop-color="#EC7A36"/><stop offset=".745" stop-color="#EA6A34"/><stop offset=".901" stop-color="#E74F2F"/><stop offset="1" stop-color="#E43A2C"/></linearGradient><path d="M164-43l4 7.3L62.5 22.8l-4-7.2z" class="st10"/><linearGradient id="SVGID_16_" x1="64.999" x2="169.616" y1="972.533" y2="1032.934" gradientUnits="userSpaceOnUse" gradientTransform="matrix(1 0 0 -1 0 1000)"><stop offset="0" stop-color="#E43A2C"/><stop offset=".5" stop-color="#ED8037"/><stop offset=".606" stop-color="#EC7A36"/><stop offset=".745" stop-color="#EA6A34"/><stop offset=".901" stop-color="#E74F2F"/><stop offset="1" stop-color="#E43A2C"/></linearGradient><path d="M168-35.7l4.1 7.3L66.5 30.1l-4-7.3z" class="st11"/><linearGradient id="SVGID_17_" x1="68.999" x2="173.691" y1="965.233" y2="1025.677" gradientUnits="userSpaceOnUse" gradientTransform="matrix(1 0 0 -1 0 1000)"><stop offset="0" stop-color="#E43A2C"/><stop offset=".5" stop-color="#ED8037"/><stop offset=".606" stop-color="#EC7A36"/><stop offset=".745" stop-color="#EA6A34"/><stop offset=".901" stop-color="#E74F2F"/><stop offset="1" stop-color="#E43A2C"/></linearGradient><path d="M172.1-28.4l4 7.3L70.5 37.4l-4-7.3z" class="st12"/><linearGradient id="SVGID_18_" x1="73.096" x2="177.67" y1="958.038" y2="1018.414" gradientUnits="userSpaceOnUse" gradientTransform="matrix(1 0 0 -1 0 1000)"><stop offset="0" stop-color="#E43A2C"/><stop offset=".5" stop-color="#ED8037"/><stop offset=".606" stop-color="#EC7A36"/><stop offset=".745" stop-color="#EA6A34"/><stop offset=".901" stop-color="#E74F2F"/><stop offset="1" stop-color="#E43A2C"/></linearGradient><path d="M176.1-21.1l4 7.2L74.6 44.6l-4.1-7.2z" class="st13"/><linearGradient id="SVGID_19_" x1="77.099" x2="181.716" y1="950.733" y2="1011.134" gradientUnits="userSpaceOnUse" gradientTransform="matrix(1 0 0 -1 0 1000)"><stop offset="0" stop-color="#E43A2C"/><stop offset=".5" stop-color="#ED8037"/><stop offset=".606" stop-color="#EC7A36"/><stop offset=".745" stop-color="#EA6A34"/><stop offset=".901" stop-color="#E74F2F"/><stop offset="1" stop-color="#E43A2C"/></linearGradient><path d="M180.1-13.9l4.1 7.3L78.6 51.9l-4-7.3z" class="st14"/><linearGradient id="SVGID_20_" x1="81.099" x2="185.791" y1="943.433" y2="1003.877" gradientUnits="userSpaceOnUse" gradientTransform="matrix(1 0 0 -1 0 1000)"><stop offset="0" stop-color="#E43A2C"/><stop offset=".5" stop-color="#ED8037"/><stop offset=".606" stop-color="#EC7A36"/><stop offset=".745" stop-color="#EA6A34"/><stop offset=".901" stop-color="#E74F2F"/><stop offset="1" stop-color="#E43A2C"/></linearGradient><path d="M184.2-6.6l4 7.3L82.6 59.2l-4-7.3z" class="st15"/><linearGradient id="SVGID_21_" x1="85.153" x2="189.77" y1="936.213" y2="996.614" gradientUnits="userSpaceOnUse" gradientTransform="matrix(1 0 0 -1 0 1000)"><stop offset="0" stop-color="#E43A2C"/><stop offset=".5" stop-color="#ED8037"/><stop offset=".606" stop-color="#EC7A36"/><stop offset=".745" stop-color="#EA6A34"/><stop offset=".901" stop-color="#E74F2F"/><stop offset="1" stop-color="#E43A2C"/></linearGradient><path d="M188.2.7l4 7.2L86.7 66.5l-4.1-7.3z" class="st16"/><linearGradient id="SVGID_22_" x1="89.221" x2="193.838" y1="928.895" y2="989.296" gradientUnits="userSpaceOnUse" gradientTransform="matrix(1 0 0 -1 0 1000)"><stop offset="0" stop-color="#E43A2C"/><stop offset=".5" stop-color="#ED8037"/><stop offset=".606" stop-color="#EC7A36"/><stop offset=".745" stop-color="#EA6A34"/><stop offset=".901" stop-color="#E74F2F"/><stop offset="1" stop-color="#E43A2C"/></linearGradient><path d="M192.2 7.9l4.1 7.3L90.7 73.7l-4-7.2z" class="st17"/></g></g></g></g><linearGradient id="SVGID_23_" x1="64.651" x2="83.23" y1="973.925" y2="984.652" gradientUnits="userSpaceOnUse" gradientTransform="matrix(1 0 0 -1 0 1000)"><stop offset="0" stop-color="#E43A2C"/><stop offset=".5" stop-color="#ED8037"/><stop offset=".606" stop-color="#EC7A36"/><stop offset=".745" stop-color="#EA6A34"/><stop offset=".901" stop-color="#E74F2F"/><stop offset="1" stop-color="#E43A2C"/></linearGradient><path d="M69.5 24.1c0 .7.1 1.4.4 1.9s.6.9 1 1.3c.4.3 1 .5 1.6.7.6.1 1.2.2 1.8.2.4 0 .9 0 1.4-.1s.9-.2 1.4-.4c.4-.2.8-.5 1.1-.8.3-.4.4-.8.4-1.4s-.2-1.1-.6-1.4c-.4-.4-.9-.7-1.5-.9-.6-.2-1.3-.5-2.1-.6L72 22s-1.6-.4-2.4-.7c-.8-.3-1.5-.7-2.1-1.2S66.4 19 66 18.4c-.4-.7-.6-1.6-.6-2.6 0-1.1.2-2.1.7-2.9s1.1-1.5 1.9-2.1 1.7-1 2.6-1.2c1-.3 2-.4 2.9-.4 1.1 0 2.2.1 3.3.4 1.1.2 2 .7 2.8 1.2.8.6 1.5 1.3 1.9 2.2.5.9.7 2 .7 3.2h-4.7c0-.7-.2-1.2-.4-1.6-.2-.4-.5-.8-.9-1s-.8-.4-1.3-.5-1-.2-1.6-.2c-.4 0-.8 0-1.2.1-.4.1-.7.2-1.1.4-.3.2-.6.5-.8.8-.2.3-.3.7-.3 1.2 0 .4.1.8.2 1 .2.3.5.5.9.7.5.2 1.2.5 2 .7l3.3.9c.4.1 1 .2 1.7.5.7.2 1.5.5 2.2 1s1.3 1.1 1.8 1.9.8 1.8.8 3c0 1-.2 1.9-.6 2.8s-1 1.6-1.7 2.2c-.8.6-1.7 1.1-2.8 1.4-1.1.3-2.4.5-3.9.5-1.2 0-2.4-.2-3.5-.5s-2.1-.7-3-1.4c-.9-.6-1.5-1.4-2.1-2.4-.5-1-.8-2.1-.7-3.5h5v-.1z" class="st18"/><linearGradient id="SVGID_24_" x1="114.679" x2="120.341" y1="978.188" y2="981.456" gradientUnits="userSpaceOnUse" gradientTransform="matrix(1 0 0 -1 0 1000)"><stop offset="0" stop-color="#E43A2C"/><stop offset=".5" stop-color="#ED8037"/><stop offset=".606" stop-color="#EC7A36"/><stop offset=".745" stop-color="#EA6A34"/><stop offset=".901" stop-color="#E74F2F"/><stop offset="1" stop-color="#E43A2C"/></linearGradient><path d="M115.3 22.9h5.7l-2.8-8z" class="st19"/><linearGradient id="SVGID_25_" x1="84.916" x2="121.924" y1="967.046" y2="988.413" gradientUnits="userSpaceOnUse" gradientTransform="matrix(1 0 0 -1 0 1000)"><stop offset="0" stop-color="#E43A2C"/><stop offset=".5" stop-color="#ED8037"/><stop offset=".606" stop-color="#EC7A36"/><stop offset=".745" stop-color="#EA6A34"/><stop offset=".901" stop-color="#E74F2F"/><stop offset="1" stop-color="#E43A2C"/></linearGradient><path d="M115.8 9.5h4.9l8.2 21.9h-5l-1.7-4.9H114l-1.7 4.9h-9.2V15.9l-5.4 15.5H94L88.6 16l-.1 15.4H84V9.5h6.8l5.1 15.1 4.9-15.1h6.8v21.6z" class="st20"/><linearGradient id="SVGID_26_" x1="127.206" x2="145.784" y1="973.956" y2="984.683" gradientUnits="userSpaceOnUse" gradientTransform="matrix(1 0 0 -1 0 1000)"><stop offset="0" stop-color="#E43A2C"/><stop offset=".5" stop-color="#ED8037"/><stop offset=".606" stop-color="#EC7A36"/><stop offset=".745" stop-color="#EA6A34"/><stop offset=".901" stop-color="#E74F2F"/><stop offset="1" stop-color="#E43A2C"/></linearGradient><path d="M132 24.1c0 .7.1 1.4.4 1.9.3.5.6.9 1 1.3.5.3 1 .5 1.6.7.6.1 1.2.2 1.8.2.4 0 .9 0 1.4-.1s.9-.2 1.4-.4c.4-.2.8-.5 1.1-.8.3-.4.4-.8.4-1.4s-.2-1.1-.6-1.4c-.4-.4-.9-.7-1.5-.9-.6-.2-1.3-.5-2.1-.6l-2.4-.6c-.8-.2-1.6-.4-2.4-.7-.8-.3-1.5-.7-2.1-1.2s-1.1-1.1-1.5-1.7c-.4-.7-.6-1.6-.6-2.6 0-1.1.2-2.1.7-2.9s1.1-1.5 1.9-2.1c.8-.6 1.7-1 2.6-1.2 1-.3 2-.4 2.9-.4 1.1 0 2.2.1 3.3.4 1.1.2 2 .7 2.8 1.2.8.6 1.5 1.3 1.9 2.2.5.9.7 2 .7 3.2H140c0-.7-.2-1.2-.4-1.6s-.5-.8-.9-1-.8-.4-1.3-.5-1-.2-1.6-.2c-.4 0-.8 0-1.2.1s-.7.2-1.1.4c-.3.2-.6.5-.8.8s-.3.7-.3 1.2c0 .4.1.8.2 1 .2.3.5.5.9.7.5.2 1.2.5 2 .7l3.3.9c.4.1 1 .2 1.7.5.7.2 1.5.5 2.2 1s1.3 1.1 1.8 1.9.8 1.8.8 3c0 1-.2 1.9-.6 2.8-.4.9-1 1.6-1.7 2.2-.8.6-1.7 1.1-2.8 1.4s-2.4.5-3.9.5c-1.2 0-2.4-.2-3.5-.5s-2.1-.7-3-1.4c-.9-.6-1.5-1.4-2.1-2.4-.5-1-.8-2.1-.7-3.5h5v-.1z" class="st21"/><linearGradient id="SVGID_29_" x1="144.216" x2="167.548" y1="972.762" y2="986.232" gradientUnits="userSpaceOnUse" gradientTransform="matrix(1 0 0 -1 0 1000)"><stop offset="0" stop-color="#E43A2C"/><stop offset=".5" stop-color="#ED8037"/><stop offset=".606" stop-color="#EC7A36"/><stop offset=".745" stop-color="#EA6A34"/><stop offset=".901" stop-color="#E74F2F"/><stop offset="1" stop-color="#E43A2C"/></linearGradient><path d="M146.6 9.5h4.8v8.4h8.9V9.5h4.8v21.9h-4.8v-9.5h-8.9v9.5h-4.8z" class="st22"/><linearGradient id="SVGID_30_" x1="163.19" x2="176.273" y1="975.72" y2="983.274" gradientUnits="userSpaceOnUse" gradientTransform="matrix(1 0 0 -1 0 1000)"><stop offset="0" stop-color="#E43A2C"/><stop offset=".5" stop-color="#ED8037"/><stop offset=".606" stop-color="#EC7A36"/><stop offset=".745" stop-color="#EA6A34"/><stop offset=".901" stop-color="#E74F2F"/><stop offset="1" stop-color="#E43A2C"/></linearGradient><path d="M167.3 9.5h4.8v21.9h-4.8z" class="st23"/><linearGradient id="SVGID_31_" x1="171.916" x2="195.249" y1="972.762" y2="986.233" gradientUnits="userSpaceOnUse" gradientTransform="matrix(1 0 0 -1 0 1000)"><stop offset="0" stop-color="#E43A2C"/><stop offset=".5" stop-color="#ED8037"/><stop offset=".606" stop-color="#EC7A36"/><stop offset=".745" stop-color="#EA6A34"/><stop offset=".901" stop-color="#E74F2F"/><stop offset="1" stop-color="#E43A2C"/></linearGradient><path d="M174.3 9.5h4.8l9.1 14.7.1-14.7h4.5v21.9h-4.9l-9.1-14.7v14.7h-4.5z" class="st24"/></g></g><g id="Backup_Verlauf_G_3_" class="st1"><g class="st2"><g><linearGradient id="SVGID_32_" x1="195.104" x2="219.744" y1="970.08" y2="984.306" gradientUnits="userSpaceOnUse" gradientTransform="matrix(1 0 0 -1 0 1000)"><stop offset="0" stop-color="#E43A2C"/><stop offset=".5" stop-color="#ED8037"/><stop offset=".606" stop-color="#EC7A36"/><stop offset=".745" stop-color="#EA6A34"/><stop offset=".901" stop-color="#E74F2F"/><stop offset="1" stop-color="#E43A2C"/></linearGradient><path id="SVGID_27_" d="M208.3 41l-19-21.1 17.2-15.4 18.9 21.1z" class="st25"/></g><g><linearGradient id="SVGID_33_" x1="197.227" x2="216.651" y1="971.326" y2="982.541" gradientUnits="userSpaceOnUse" gradientTransform="matrix(1 0 0 -1 0 1000)"><stop offset="0" stop-color="#E43A2C"/><stop offset=".5" stop-color="#ED8037"/><stop offset=".606" stop-color="#EC7A36"/><stop offset=".745" stop-color="#EA6A34"/><stop offset=".901" stop-color="#E74F2F"/><stop offset="1" stop-color="#E43A2C"/></linearGradient><path id="SVGID_28_" d="M194.4 20.8c0-6.2 5-11.2 11.2-11.2 4.3 0 8 2.4 9.9 6l-4.1 1.3c-1.3-1.9-3.4-3.1-5.8-3.1-3.9 0-7 3.1-7 7s3.1 7 7 7c2.1 0 4.1-1 5.3-2.5l-2.4.4-3-3 6.4-1 6.4-1-1 6.4-1 6.4-3-3 .3-1.8c-2 2-4.8 3.3-7.9 3.3-6.3 0-11.3-5-11.3-11.2z" class="st26"/></g><g><defs><path id="SVGID_34_" d="M208.3 41l-19-21.1 17.2-15.4 18.9 21.1z"/></defs><clipPath id="SVGID_35_"><use xlink:href="#SVGID_34_" overflow="visible"/></clipPath></g><g><defs><path id="SVGID_36_" d="M208.3 41l-19-21.1 17.2-15.4 18.9 21.1z"/></defs><defs><path id="SVGID_37_" d="M194.4 20.8c0-6.2 5-11.2 11.2-11.2 4.3 0 8 2.4 9.9 6l-4.1 1.3c-1.3-1.9-3.4-3.1-5.8-3.1-3.9 0-7 3.1-7 7s3.1 7 7 7c2.1 0 4.1-1 5.3-2.5l-2.4.4-3-3 6.4-1 6.4-1-1 6.4-1 6.4-3-3 .3-1.8c-2 2-4.8 3.3-7.9 3.3-6.3 0-11.3-5-11.3-11.2z"/></defs><clipPath id="SVGID_38_"><use xlink:href="#SVGID_36_" overflow="visible"/></clipPath><clipPath id="SVGID_39_" class="st27"><use xlink:href="#SVGID_37_" overflow="visible"/></clipPath><g class="st28"><linearGradient id="SVGID_40_" x1="205.436" x2="225.7" y1="962.318" y2="974.018" gradientUnits="userSpaceOnUse" gradientTransform="matrix(1 0 0 -1 0 1000)"><stop offset="0" stop-color="#E43A2C"/><stop offset=".5" stop-color="#ED8037"/><stop offset=".606" stop-color="#EC7A36"/><stop offset=".745" stop-color="#EA6A34"/><stop offset=".901" stop-color="#E74F2F"/><stop offset="1" stop-color="#E43A2C"/></linearGradient><path d="M208.3 41l-2.7-3 17.1-15.4 2.7 3z" class="st29"/><linearGradient id="SVGID_41_" x1="202.714" x2="222.98" y1="965.355" y2="977.056" gradientUnits="userSpaceOnUse" gradientTransform="matrix(1 0 0 -1 0 1000)"><stop offset="0" stop-color="#E43A2C"/><stop offset=".5" stop-color="#ED8037"/><stop offset=".606" stop-color="#EC7A36"/><stop offset=".745" stop-color="#EA6A34"/><stop offset=".901" stop-color="#E74F2F"/><stop offset="1" stop-color="#E43A2C"/></linearGradient><path d="M205.6 38l-2.7-3L220 19.5l2.7 3.1z" class="st30"/><linearGradient id="SVGID_42_" x1="200.014" x2="220.277" y1="968.355" y2="980.054" gradientUnits="userSpaceOnUse" gradientTransform="matrix(1 0 0 -1 0 1000)"><stop offset="0" stop-color="#E43A2C"/><stop offset=".5" stop-color="#ED8037"/><stop offset=".606" stop-color="#EC7A36"/><stop offset=".745" stop-color="#EA6A34"/><stop offset=".901" stop-color="#E74F2F"/><stop offset="1" stop-color="#E43A2C"/></linearGradient><path d="M202.9 35l-2.7-3 17.1-15.5 2.7 3z" class="st31"/><linearGradient id="SVGID_43_" x1="197.314" x2="217.577" y1="971.355" y2="983.054" gradientUnits="userSpaceOnUse" gradientTransform="matrix(1 0 0 -1 0 1000)"><stop offset="0" stop-color="#E43A2C"/><stop offset=".5" stop-color="#ED8037"/><stop offset=".606" stop-color="#EC7A36"/><stop offset=".745" stop-color="#EA6A34"/><stop offset=".901" stop-color="#E74F2F"/><stop offset="1" stop-color="#E43A2C"/></linearGradient><path d="M200.2 32l-2.7-3 17.1-15.5 2.7 3z" class="st32"/><linearGradient id="SVGID_44_" x1="194.582" x2="214.848" y1="974.337" y2="986.038" gradientUnits="userSpaceOnUse" gradientTransform="matrix(1 0 0 -1 0 1000)"><stop offset="0" stop-color="#E43A2C"/><stop offset=".5" stop-color="#ED8037"/><stop offset=".606" stop-color="#EC7A36"/><stop offset=".745" stop-color="#EA6A34"/><stop offset=".901" stop-color="#E74F2F"/><stop offset="1" stop-color="#E43A2C"/></linearGradient><path d="M197.5 29l-2.8-3.1 17.2-15.4 2.7 3z" class="st33"/><linearGradient id="SVGID_45_" x1="191.848" x2="212.114" y1="977.396" y2="989.097" gradientUnits="userSpaceOnUse" gradientTransform="matrix(1 0 0 -1 0 1000)"><stop offset="0" stop-color="#E43A2C"/><stop offset=".5" stop-color="#ED8037"/><stop offset=".606" stop-color="#EC7A36"/><stop offset=".745" stop-color="#EA6A34"/><stop offset=".901" stop-color="#E74F2F"/><stop offset="1" stop-color="#E43A2C"/></linearGradient><path d="M194.7 25.9l-2.7-3 17.2-15.4 2.7 3z" class="st34"/><linearGradient id="SVGID_46_" x1="189.148" x2="209.414" y1="980.396" y2="992.097" gradientUnits="userSpaceOnUse" gradientTransform="matrix(1 0 0 -1 0 1000)"><stop offset="0" stop-color="#E43A2C"/><stop offset=".5" stop-color="#ED8037"/><stop offset=".606" stop-color="#EC7A36"/><stop offset=".745" stop-color="#EA6A34"/><stop offset=".901" stop-color="#E74F2F"/><stop offset="1" stop-color="#E43A2C"/></linearGradient><path d="M192 22.9l-2.7-3 17.2-15.4 2.7 3z" class="st35"/></g></g></g></g><linearGradient id="SMASHING_1_" x1="82.346" x2="200.06" y1="943.231" y2="1011.193" gradientUnits="userSpaceOnUse" gradientTransform="matrix(1 0 0 -1 0 1000)"><stop offset="0" stop-color="#E43A2C"/><stop offset=".5" stop-color="#ED8037"/><stop offset=".606" stop-color="#EC7A36"/><stop offset=".745" stop-color="#EA6A34"/><stop offset=".901" stop-color="#E74F2F"/><stop offset="1" stop-color="#E43A2C"/></linearGradient><path id="SMASHING_6_" d="M194.4 20.8c0-6.2 5-11.2 11.2-11.2 4.3 0 8 2.4 9.9 6l-4.1 1.3c-1.3-1.9-3.4-3.1-5.8-3.1-3.9 0-7 3.1-7 7s3.1 7 7 7c2.1 0 4.1-1 5.3-2.5l-2.4.4-3-3 6.4-1 6.4-1-1 6.4-1 6.4-3-3 .3-1.8c-2 2-4.8 3.3-7.9 3.3-6.3 0-11.3-5-11.3-11.2zM64.8 24.1c0 1.3.2 2.5.7 3.5s1.2 1.8 2.1 2.4 1.9 1.1 3 1.4 2.3.5 3.5.5c1.5 0 2.8-.2 3.9-.5 1.1-.4 2.1-.8 2.8-1.4.8-.6 1.4-1.4 1.7-2.2.4-.9.6-1.8.6-2.8 0-1.2-.3-2.2-.8-3s-1.1-1.4-1.8-1.9-1.4-.8-2.2-1c-.7-.2-1.3-.4-1.7-.5l-3.3-.9c-.8-.2-1.5-.5-2-.7s-.8-.5-.9-.7c-.2-.3-.2-.6-.2-1 0-.5.1-.9.3-1.2.2-.3.5-.6.8-.8.3-.2.7-.3 1.1-.4s.8-.1 1.2-.1c.6 0 1.1.1 1.6.2s1 .3 1.3.5c.4.2.7.6.9 1 .2.4.4 1 .4 1.6h4.7c0-1.3-.2-2.3-.7-3.2-.5-.9-1.1-1.6-1.9-2.2s-1.8-1-2.8-1.2c-1-.3-2.1-.4-3.3-.4-1 0-2 .1-2.9.4-1 .3-1.9.7-2.6 1.2-.8.6-1.4 1.2-1.9 2.1-.5.8-.7 1.8-.7 2.9 0 1 .2 1.9.6 2.6s.9 1.3 1.5 1.7c.6.5 1.3.9 2.1 1.2.8.3 1.6.5 2.4.7l2.4.6s1.5.4 2.1.6 1.1.6 1.5.9c.4.4.6.8.6 1.4s-.1 1-.4 1.4c-.3.3-.6.6-1.1.8-.4.2-.9.3-1.4.4s-.9.1-1.4.1c-.6 0-1.2-.1-1.8-.2-.6-.2-1.1-.4-1.6-.7-.4-.3-.8-.7-1-1.3-.3-.5-.4-1.1-.4-1.9h-5v.1zm53.4-9.2l2.8 8h-5.7l2.9-8zm-10.6 16.2V9.5h-6.8l-4.9 15-5.1-15H84v21.9h4.5l.1-15.4L94 31.4h3.7l5.4-15.5v15.5h9.2l1.7-4.9h8.2l1.7 4.9h5l-8.2-21.9h-4.9l-8.2 21.6zm19.8-7c0 1.3.2 2.5.7 3.5s1.2 1.8 2.1 2.4c.9.6 1.9 1.1 3 1.4s2.3.5 3.5.5c1.5 0 2.8-.2 3.9-.5 1.1-.4 2.1-.8 2.8-1.4.8-.6 1.4-1.4 1.7-2.2.4-.9.6-1.8.6-2.8 0-1.2-.3-2.2-.8-3s-1.1-1.4-1.8-1.9-1.4-.8-2.2-1c-.7-.2-1.3-.4-1.7-.5l-3.3-.9c-.8-.2-1.5-.5-2-.7s-.8-.5-.9-.7c-.2-.3-.2-.6-.2-1 0-.5.1-.9.3-1.2.2-.3.5-.6.8-.8.3-.2.7-.3 1.1-.4.4-.1.8-.1 1.2-.1.6 0 1.1.1 1.6.2s1 .3 1.3.5c.4.2.7.6.9 1s.4 1 .4 1.6h4.7c0-1.3-.2-2.3-.7-3.2-.5-.9-1.1-1.6-1.9-2.2-.8-.6-1.8-1-2.8-1.2-1-.3-2.1-.4-3.3-.4-1 0-2 .1-2.9.4-1 .3-1.9.7-2.6 1.2-.8.6-1.4 1.2-1.9 2.1-.5.8-.7 1.8-.7 2.9 0 1 .2 1.9.6 2.6.4.7.9 1.3 1.5 1.7.6.5 1.3.9 2.1 1.2.8.3 1.6.5 2.4.7l2.4.6c.8.2 1.5.4 2.1.6s1.1.6 1.5.9c.4.4.6.8.6 1.4s-.1 1-.4 1.4c-.3.3-.6.6-1.1.8-.4.2-.9.3-1.4.4s-.9.1-1.4.1c-.6 0-1.2-.1-1.8-.2-.6-.2-1.1-.4-1.6-.7-.4-.3-.8-.7-1-1.3-.3-.5-.4-1.1-.4-1.9h-5v.1zm19.2 7.3h4.8V22h8.9v9.4h4.8V9.5h-4.8v8.4h-8.9V9.5h-4.8v21.9zm20.7 0h4.8V9.5h-4.8v21.9zm7 0h4.5l.1-14.6 9.1 14.6h4.8V9.5h-4.5l-.1 14.7-9.1-14.7h-4.8v21.9z" class="st36"/></g><g id="S_4_"><g id="Kasten_4_"><path d="M56.5 41.3l-8.6-37c-.7-3-3.7-4.9-6.7-4.2L35 1.5c.7.1 1.4.2 2.1.4l3.5-.8c3-.7 6 1.2 6.7 4.2L50.5 19c-1.3 2.6-3.8 7-7.7 9.6.9.8 1.7 1.5 2.4 2.4 2.1 2.6 3.1 5.8 3.1 9.5 0 3.6-1 6.7-3 9.2l7.1-1.6c2.9-.8 4.8-3.8 4.1-6.8zM11 51.9l4.4-9.9c3.7 2.9 7.9 4.4 12.6 4.4 4.8 0 7.3-1.7 7.3-5.2 0-2-.7-3.7-2.2-5-1.5-1.3-4.3-2.8-8.5-4.6-2.5-1-4.7-2.2-6.5-3.5-5 1.4-9.3 4.8-12.1 8.2L1.3 15.8c-.7-3 1.2-6 4.2-6.7l8.1-1.9c.3-.4.7-.8 1-1.1L4.3 8.5c-3 .7-4.9 3.7-4.2 6.7l8.6 37c.7 3 3.7 4.9 6.7 4.2l4.2-1c-.1 0-.2-.1-.3-.1-2.2-.4-4.9-1.6-8.3-3.4z" class="st37"/><path d="M10.8 15.7c0-3.3.9-6.1 2.7-8.3L5.4 9.3c-3.8.9-4.9 3.5-4.2 6.7l4.7 20.5c2.8-3.3 7.1-6.8 12.1-8.2-4.7-3.4-7.2-7.6-7.2-12.6zM41.6 14.5c-2.7-2.3-6.5-3.5-11.3-3.5-4.3 0-6.5 1.7-6.5 5.2 0 1.4.7 2.6 2.1 3.7s4.5 2.6 9.1 4.4c3.2 1.2 5.8 2.7 7.7 4.3 3.9-2.6 6.4-7 7.7-9.6L47.2 5.3c-.7-2.8-2.9-5.1-6.7-4.2l-3.5.8c2.8.6 5.5 1.6 8 2.9l-3.4 9.7z" class="st38"/></g><g id="Blendeneffekt_4_"><g><defs><path id="SVGID_47_" d="M.6 15.7c-.7-2.9 1.2-5.9 4.1-6.6L41 .7c2.9-.7 5.9 1.2 6.6 4.1L56 41.1c.7 2.9-1.2 5.9-4.1 6.6l-36.3 8.4c-2.9.7-5.9-1.2-6.6-4.1L.6 15.7z"/></defs><clipPath id="SVGID_48_"><use xlink:href="#SVGID_47_" overflow="visible"/></clipPath><radialGradient id="SVGID_49_" cx="71.737" cy="828.744" r="29.311" gradientTransform="matrix(1.1702 0 0 -1.1702 -59.002 987.34)" gradientUnits="userSpaceOnUse"><stop offset="0" stop-color="#FFF"/><stop offset=".106" stop-color="#FEFAF9" stop-opacity=".894"/><stop offset=".245" stop-color="#FDECE9" stop-opacity=".755"/><stop offset=".402" stop-color="#F9D5CE" stop-opacity=".598"/><stop offset=".572" stop-color="#F5B6A8" stop-opacity=".428"/><stop offset=".754" stop-color="#F08D77" stop-opacity=".246"/><stop offset=".941" stop-color="#E95C3D" stop-opacity=".059"/><stop offset="1" stop-color="#E74B29" stop-opacity="0"/></radialGradient><path d="M59.2 17.5c0 18.9-15.3 34.3-34.3 34.3C6 51.8-9.4 36.5-9.4 17.5c0-18.9 15.3-34.3 34.3-34.3 18.9 0 34.3 15.4 34.3 34.3z" class="st39"/></g><g><defs><path id="SVGID_50_" d="M.6 15.7c-.7-2.9 1.2-5.9 4.1-6.6L41 .7c2.9-.7 5.9 1.2 6.6 4.1L56 41.1c.7 2.9-1.2 5.9-4.1 6.6l-36.3 8.4c-2.9.7-5.9-1.2-6.6-4.1L.6 15.7z"/></defs><clipPath id="SVGID_51_"><use xlink:href="#SVGID_50_" overflow="visible"/></clipPath><radialGradient id="SVGID_52_" cx="71.737" cy="828.744" r="29.311" gradientTransform="matrix(1.1702 0 0 -1.1702 -59.002 987.34)" gradientUnits="userSpaceOnUse"><stop offset="0" stop-color="#F9BC3A"/><stop offset=".158" stop-color="#F8B639" stop-opacity=".843"/><stop offset=".364" stop-color="#F5A637" stop-opacity=".636"/><stop offset=".597" stop-color="#F18B33" stop-opacity=".403"/><stop offset=".848" stop-color="#EB652D" stop-opacity=".152"/><stop offset="1" stop-color="#E74B29" stop-opacity="0"/></radialGradient><path d="M59.2 17.5c0 18.9-15.3 34.3-34.3 34.3C6 51.8-9.4 36.5-9.4 17.5c0-18.9 15.3-34.3 34.3-34.3 18.9 0 34.3 15.4 34.3 34.3z" class="st40"/></g></g><g id="ausgespartes_S_4_"><path d="M13.5 7.4L37.1 2c-.7-.2-1.4-.3-2.1-.4L14.6 6.3c-.4.3-.7.7-1.1 1.1zM45.1 31c-.7-.8-1.5-1.6-2.4-2.4-3.3 2.3-7.6 3.2-12.8.7-4.1-2-8.2-2-11.8-1 1.8 1.3 4 2.4 6.5 3.5 4.2 1.8 7.1 3.3 8.5 4.6 1.5 1.3 2.2 2.9 2.2 5 0 3.4-2.4 5.2-7.3 5.2-4.7 0-8.9-1.5-12.6-4.4L11 52.1c3.4 1.8 6.1 3 8.2 3.5.1 0 .2.1.3.1l25.7-5.9c2-2.5 3-5.6 3-9.2 0-3.9-1-7-3.1-9.6z" class="st41"/><path d="M10.8 15.7c0 5 2.4 9.2 7.3 12.5 3.7-1 7.7-.9 11.8 1 5.2 2.5 9.5 1.5 12.8-.7-2-1.6-4.5-3-7.7-4.3-4.7-1.9-7.7-3.3-9.1-4.4s-2.1-2.3-2.1-3.7c0-3.4 2.2-5.2 6.5-5.2 4.8 0 8.6 1.2 11.3 3.5l3.6-9.7c-2.6-1.3-5.3-2.3-8-2.9L13.6 7.2c-1.9 2.5-2.8 5.2-2.8 8.5z" class="st41"/></g></g><g><path d="M76.6 39.7c-.2-.4-.5-.7-.9-1-.3-.3-.7-.5-1.1-.6s-.9-.2-1.3-.2c-.8 0-1.5.2-2.1.5s-1.1.8-1.5 1.3-.7 1.1-.8 1.8c-.2.7-.3 1.4-.3 2.1 0 .7.1 1.4.3 2.1.2.7.5 1.3.8 1.8.4.5.9 1 1.5 1.3s1.3.5 2.1.5c.6 0 1.1-.1 1.6-.3s.9-.5 1.2-.9c.3-.4.6-.8.8-1.3.2-.5.3-1 .4-1.6h1.2c-.1.8-.3 1.5-.5 2.1-.3.6-.6 1.2-1.1 1.6-.4.4-1 .8-1.6 1s-1.3.4-2 .4c-1 0-1.8-.2-2.6-.5-.7-.4-1.4-.9-1.9-1.5s-.9-1.3-1.1-2.1-.4-1.7-.4-2.5.1-1.7.4-2.5.6-1.5 1.1-2.1 1.1-1.1 1.9-1.5c.7-.4 1.6-.5 2.6-.5.6 0 1.2.1 1.7.3.6.2 1.1.4 1.5.8.5.4.8.8 1.2 1.3.3.5.5 1.1.6 1.8h-1.2c-.1-.7-.3-1.2-.5-1.6zM83.7 41c.2-.8.6-1.5 1.1-2.1s1.1-1.1 1.9-1.5c.7-.4 1.6-.5 2.6-.5s1.8.2 2.6.5c.7.4 1.4.9 1.8 1.5.5.6.9 1.3 1.1 2.1s.4 1.7.4 2.5-.1 1.7-.4 2.5c-.2.8-.6 1.5-1.1 2.1s-1.1 1.1-1.8 1.5-1.6.5-2.6.5-1.8-.2-2.6-.5c-.7-.4-1.4-.9-1.9-1.5s-.9-1.3-1.1-2.1-.4-1.7-.4-2.5.2-1.7.4-2.5zm1.1 4.6c.2.7.5 1.3.8 1.8.4.5.9 1 1.5 1.3s1.3.5 2.1.5 1.5-.2 2.1-.5 1.1-.8 1.5-1.3.7-1.1.8-1.8c.2-.7.3-1.4.3-2.1 0-.7-.1-1.4-.3-2.1s-.5-1.3-.8-1.8c-.4-.5-.9-1-1.5-1.3s-1.3-.5-2.1-.5-1.5.2-2.1.5-1.1.8-1.5 1.3-.7 1.1-.8 1.8c-.2.7-.3 1.4-.3 2.1 0 .8.1 1.5.3 2.1zM102 37.2l7.3 10.9V37.2h1.2v12.9h-1.3l-7.3-10.9v10.9h-1.2V37.2h1.3zM124.7 37.2v1h-6.8v4.6h6v1h-6v6.1h-1.2V37h8v.2zM138.6 37.2v1h-7.5v4.6h7v1h-7v5.1h7.6v1H130V37h8.6v.2zM149.8 37.2c.5 0 1 .1 1.5.2s.9.3 1.2.6.6.6.8 1 .3.9.3 1.5c0 .8-.2 1.5-.6 2.1-.4.6-1 1-1.8 1.2.4.1.7.2 1 .3.3.2.5.4.7.6s.3.5.4.9.1.7.1 1.1v.8s0 .6.1.9c0 .3.1.6.2.9.1.3.2.5.3.7h-1.3c-.1-.1-.1-.3-.2-.4 0-.2-.1-.4-.1-.5v-.5-.5c0-.5-.1-.9-.1-1.4-.1-.4-.2-.9-.3-1.2-.2-.4-.4-.6-.7-.9-.3-.2-.8-.3-1.3-.3h-4.8V50H144V37.1h5.8v.1zm-.1 6.1c.4 0 .7-.1 1-.2s.6-.3.9-.5c.2-.2.4-.5.6-.8.1-.3.2-.7.2-1.1 0-.8-.2-1.4-.7-1.9s-1.1-.7-2-.7h-4.5v5.1h4.5v.1zM168.1 37.2v1h-7.5v4.6h7v1h-7v5.1h7.6v1h-8.7V37h8.6v.2zM174.9 37.2l7.3 10.9V37.2h1.2v12.9h-1.3l-7.3-10.9v10.9h-1.2V37.2h1.3zM198.3 39.7c-.2-.4-.5-.7-.9-1-.3-.3-.7-.5-1.1-.6-.4-.1-.9-.2-1.3-.2-.8 0-1.5.2-2.1.5s-1.1.8-1.5 1.3-.7 1.1-.8 1.8c-.2.7-.3 1.4-.3 2.1 0 .7.1 1.4.3 2.1.2.7.5 1.3.8 1.8.4.5.9 1 1.5 1.3s1.3.5 2.1.5c.6 0 1.1-.1 1.6-.3s.9-.5 1.2-.9.6-.8.8-1.3.3-1 .4-1.6h1.2c-.1.8-.3 1.5-.5 2.1-.3.6-.6 1.2-1.1 1.6-.4.4-1 .8-1.6 1s-1.3.4-2 .4c-1 0-1.8-.2-2.6-.5-.7-.4-1.4-.9-1.9-1.5s-.9-1.3-1.1-2.1-.4-1.7-.4-2.5.1-1.7.4-2.5.6-1.5 1.1-2.1 1.1-1.1 1.9-1.5c.7-.4 1.6-.5 2.6-.5.6 0 1.2.1 1.7.3.6.2 1.1.4 1.5.8.5.4.8.8 1.2 1.3.3.5.5 1.1.6 1.8h-1.2c-.1-.7-.3-1.2-.5-1.6zM214.4 37.2v1h-7.5v4.6h7v1h-7v5.1h7.6v1h-8.7V37h8.6v.2z" class="st42"/></g></g></g></g></svg>