<svg xmlns="http://www.w3.org/2000/svg" xmlns:xlink="http://www.w3.org/1999/xlink" viewBox="0 0 340 200"><defs><style>.cls-1,.cls-14,.cls-18,.cls-23,.cls-24{fill:none;}.cls-2{isolation:isolate;}.cls-3{fill:#f6d7b7;}.cls-4{fill:#80c7ee;}.cls-5{fill:#55a4db;}.cls-6{fill:#1a1a1a;}.cls-7{fill:#c1282d;}.cls-8{fill:#8a5e3c;}.cls-9{fill:#1d2834;}.cls-10{fill:#676767;}.cls-11{fill:#ccc;}.cls-12{fill:#e73e32;}.cls-13{fill:#010101;}.cls-13,.cls-32{opacity:0.1;mix-blend-mode:multiply;}.cls-14{stroke:#4e4e4e;stroke-width:0.47px;}.cls-14,.cls-18,.cls-24{stroke-miterlimit:10;}.cls-15{fill:#fbb03b;}.cls-16{fill:#f15b27;}.cls-17{fill:#f79421;}.cls-18{stroke:#f15b27;stroke-width:0.45px;}.cls-19{fill:#fff;}.cls-20{opacity:0.2;mix-blend-mode:darken;}.cls-21{fill:#23201f;}.cls-22{fill:#5e5f5f;}.cls-23{stroke:#fff;stroke-linecap:round;stroke-linejoin:round;stroke-width:0.95px;}.cls-24{stroke:#1d2834;stroke-width:0.82px;}.cls-25{fill:#3b2416;}.cls-26{fill:#603a17;}.cls-27{fill:#c3996b;}.cls-28{fill:#342011;}.cls-29{fill:#d9bc7b;}.cls-30{fill:#6e9a75;}.cls-31{fill:#597b5e;}.cls-32{fill:#231f20;}.cls-33{fill:#2d2e2d;}.cls-34{fill:#454445;}.cls-35{fill:#625e5f;}.cls-36{fill:#acabab;}.cls-37{fill:#65caee;}.cls-38{clip-path:url(#clip-path);}.cls-39{fill:#fbf7e0;}.cls-40{fill:#e4f5fd;}</style><clipPath id="clip-path"><path class="cls-1" d="M118,43.54c-3.88-2.86-5.48-9.44-3.56-16.19,1.66-5.89,5.54-10.27,9.7-11.55,2.49,3.19,3.12,9.41,1.27,15.93C123.89,37.09,121.05,41.39,118,43.54Z"/></clipPath></defs><title>sf-footer</title><g class="cls-2"><g id="Layer_1" data-name="Layer 1"><path class="cls-3" d="M274.84,201.5c10.68-13.4,16.83-29.09,16.83-45.87,0-49.26-53-89.19-118.34-89.19S55,106.37,55,155.63c0,16.78,6.15,32.47,16.83,45.87Z"/><path class="cls-4" d="M304.47,201.5c-3.09-20.15-8.27-40-21.15-56.08-16.44-20.53-44.89-32-72.13-29.19-16.73,1.75-32.4,8.42-47.34,15.68-17.18,8.35-35.32,17.91-54.56,16-12.72-1.29-24.38-7.55-37.08-9-18.27-2.09-37.44,7-46.46,22a42.52,42.52,0,0,0-1.19,40.61Z"/><path class="cls-5" d="M335.23,201.5c-7.42-6.5-12.19-16-15.74-25.11-4.84-12.45-8.84-25.87-18.95-35.15a41.5,41.5,0,0,0-27.83-10.57c-28.37.1-49.17,27.58-77.32,31-18.66,2.26-36.54-6.49-54.68-11.2a130.46,130.46,0,0,0-78.46,4.3C38.17,164,17.45,180.64,4,201.5Z"/><polygon class="cls-6" points="167.32 68.85 147.94 114.74 189.13 129.82 202.5 83.01 167.32 68.85"/><path class="cls-7" d="M180.11,103.68l3.41-14.27c1.1.21,2.22.38,3.35.5L183.23,104l-.29,0,.28.06-7.52,31c-.93-.1-1.67-1.09-2.61-1.13l7-30.26Z"/><rect class="cls-8" x="172.68" y="131.59" width="4.38" height="5.63" transform="translate(5.64 275.83) rotate(-77.43)"/><polygon class="cls-8" points="176.35 135.75 167.5 171.38 166.61 171.46 173.12 135.03 176.35 135.75"/><path class="cls-7" d="M176.16,72.44c.92.62,1.84,1.21,2.77,1.77L175.39,90.5h0l-16.71,79.56-1.85-.31L172.42,90l3.39-17.79Z"/><path class="cls-9" d="M156.61,169.68a6.66,6.66,0,0,1-6.24,1.39l-.31.84s5,1.65,7.1-.55l-.55,1.94,1.74.21.29-3.68Z"/><polygon class="cls-9" points="158.62 170.08 168.74 130.5 162.95 129.3 156.1 170.1 158.62 170.08"/><ellipse class="cls-10" cx="191.34" cy="107.71" rx="1.67" ry="1.58" transform="translate(55.73 280.4) rotate(-81.23)"/><ellipse class="cls-10" cx="189.64" cy="112.73" rx="1.67" ry="1.58" transform="translate(49.32 282.97) rotate(-81.23)"/><path class="cls-10" d="M163.1,64A45.08,45.08,0,0,0,177,67.36l.32-2.45c-24.49-2-30.81-20.27-30.87-20.46l-2.29.89a30.56,30.56,0,0,0,6.62,10.25A36.39,36.39,0,0,0,163.1,64Z"/><path class="cls-11" d="M140.25,51.82h0c-.17.74-.16,1.67.48,2a1.28,1.28,0,0,0,.65.12,3.15,3.15,0,0,0,2.35-1.44,7.28,7.28,0,0,0,1-2.66,3,3,0,0,0,.41,4.15,1.58,1.58,0,0,0,1.77.18,1.87,1.87,0,0,0,.71-1.25,3.82,3.82,0,0,0-.42-2.6,2.71,2.71,0,0,0,2.11,2.84,1.94,1.94,0,0,0,1.3-.09,2,2,0,0,0,.58-2.71,2.87,2.87,0,0,0-2.78-1.43,2.35,2.35,0,0,0,1.91-.2,1.71,1.71,0,0,0,.3-2.19c-1-1.66-4.23-1.82-5.87-.82A10.2,10.2,0,0,0,140.25,51.82Z"/><path class="cls-12" d="M144.7,46.32c-1.41.45-3.87,1.2-5,0-2.24-2.28,3.19-3,4.75-3.25a37.73,37.73,0,0,1-5.92-.62,11.37,11.37,0,0,1-3-.95c-.67-.37-2.17-1.42-1.6-2.43s2.71-.67,3.58-.54a10,10,0,0,1,6.36,3.82c-1.11-1.51-2.18-3-3.16-4.66a26.66,26.66,0,0,1-1.7-3.16c-.37-.85-1-2.09-.61-3.08,1-2.8,4.39,2.34,4.92,3.15,2.07,3.15,2.85,6,3.68,9.72l.06.26c1.84-.52,7.64-2.33,8.58.15,1.13,3.27-7.48,2.51-9.06,1.22Z"/><path class="cls-10" d="M196.31,91.46a50.29,50.29,0,0,1-8.75-12l2.05-1.18c12,22.51,30.93,22,31.12,21.94l.14,2.49A30.32,30.32,0,0,1,209,100.08,39.41,39.41,0,0,1,196.31,91.46Z"/><path class="cls-11" d="M215.3,96h0c-.65-.34-1.53-.54-2,0a1.3,1.3,0,0,0-.28.62,3.22,3.22,0,0,0,.77,2.68,6.78,6.78,0,0,0,2.27,1.63,2.84,2.84,0,0,0-4-.53,1.72,1.72,0,0,0-.62,1.73,1.82,1.82,0,0,0,1,1,3.62,3.62,0,0,0,2.57.17,2.69,2.69,0,0,0-3.21,1.46,2.07,2.07,0,0,0-.25,1.31,1.9,1.9,0,0,0,2.43,1.19,3,3,0,0,0,2-2.44,2.53,2.53,0,0,0-.29,1.94,1.6,1.6,0,0,0,2,.8c1.82-.66,2.77-3.81,2.23-5.66A9.84,9.84,0,0,0,215.3,96Z"/><path class="cls-12" d="M219.79,102.55c.18,1.5.52,4.1,2.06,4.78,3,1.31,1.35-4.1,1-5.68a42.5,42.5,0,0,0,3,5.4,12.51,12.51,0,0,0,2.1,2.53c.61.5,2.18,1.55,2.84.64s-.52-2.8-1-3.59A10.8,10.8,0,0,0,223.7,102c1.82.51,3.64,1,5.49,1.33a26.46,26.46,0,0,0,3.53.47c.92,0,2.28.17,3-.53,2.09-2-3.92-3.32-4.86-3.54-3.68-.83-6.56-.54-10.24,0l-.26,0c-.29-1.93-1.07-8.09-3.68-8.1-3.39.11.84,8,2.65,9Z"/><polygon class="cls-10" points="171.78 71.57 158.97 106.14 185.34 115.27 196.96 79.67 171.78 71.57"/><polygon class="cls-13" points="181.36 74.51 171.78 71.56 159.01 105.79 166.85 108.37 181.36 74.51"/><line class="cls-14" x1="176.53" y1="94.98" x2="171.72" y2="110.02"/><path class="cls-15" d="M176.51,95.87a5.93,5.93,0,0,1-1.08-.43c-1.87-1-3.12-3-3.53-5.82A16.91,16.91,0,0,1,173.62,80c2.79-5.71,7.93-9.18,12-8.06a4.77,4.77,0,0,1,1.08.43c4,2.12,4.85,9.21,1.8,15.47C185.7,93.51,180.56,97,176.51,95.87Z"/><path class="cls-16" d="M177.1,93.64a3.21,3.21,0,0,1-.67-.26c-1.23-.65-2.08-2.12-2.38-4.15A14.47,14.47,0,0,1,175.56,81c2.28-4.68,6.43-7.69,9.45-6.86a3.21,3.21,0,0,1,.67.26c1.27.67,2.14,2.29,2.39,4.45a14.9,14.9,0,0,1-1.52,8C184.27,91.46,180.12,94.48,177.1,93.64Z"/><path class="cls-17" d="M177.68,91.42a1.3,1.3,0,0,1-.25-.1,3.34,3.34,0,0,1-1.22-2.48A11.92,11.92,0,0,1,177.5,82c1.91-3.94,5.19-6.15,6.93-5.67a1.73,1.73,0,0,1,.24.1c.46.24,1.05,1.09,1.24,2.7a12.47,12.47,0,0,1-1.3,6.62C182.69,89.69,179.42,91.9,177.68,91.42Z"/><path class="cls-18" d="M178.36,89.89a.8.8,0,0,1-.2-.07,2.68,2.68,0,0,1-1-2,9.49,9.49,0,0,1,1-5.45c1.52-3.14,4.14-4.91,5.52-4.52a.7.7,0,0,1,.2.08,2.78,2.78,0,0,1,1,2.15,9.84,9.84,0,0,1-1,5.28C182.36,88.52,179.75,90.28,178.36,89.89Z"/><path class="cls-13" d="M197,86.88S176.46,89.06,168.6,80L170,76Z"/><path class="cls-19" d="M210.79,40.23l0-.19-9.71.59-3.16-5.79A30.28,30.28,0,0,1,195,32.67l-.22-.18c-.61-.07-1.42-.07-1.64-.09a12.2,12.2,0,0,1-6.29-2.07,8.44,8.44,0,0,1-1.49-1.44c-.45,0-.91.07-1.37.09a11.17,11.17,0,0,1-1.85-.1l-.78,2.2-11.51,9.54L167,54.05l5.69,17.55,12.66,8.12L202.77,79,213.49,61l3.32-5.79L215.31,53C211,50.33,211.71,45.51,210.79,40.23Z"/><path class="cls-12" d="M218.4,71.83c1.22-5.91-2.55-13.63-2.55-13.63.55-.37,1.06-.74,1.57-1.1A183.83,183.83,0,0,0,203,44c-1.65-1.38-3.33-2.72-5.05-4,1.91,3.75.48,11-2.15,15.12-3.13,4.91-8.55,5.66-12.36,3S178.86,50.41,182,45.5c2.65-4.15,8.51-8.34,12.56-7.91a73.34,73.34,0,0,0-6.78-4c-2.45-1.27-4.93-2.55-7.42-3.81a2.09,2.09,0,0,1-.24.28,3.69,3.69,0,0,1-1.49,1.25l-.44.27a4.62,4.62,0,0,1-1.6.48l-2.14,3a13.35,13.35,0,0,0-8.1,1.08c.91-.12,3.18,1.19,3.18,1.19a15.23,15.23,0,0,0-10.87,6,3.6,3.6,0,0,1,3-.43c-7.14,5.92-3.12,11.35-3.12,11.35a12.15,12.15,0,0,1,1-2.68c-1.43,6.79,1.31,13.81,1.31,13.81A43.28,43.28,0,0,1,162,60.51c-.95,4.61,2,10,2,10-.27-.83.72-4.83.72-4.83a17.93,17.93,0,0,0,2.53,8.41,9,9,0,0,0,1.26,1.65l.55.54H169a15.83,15.83,0,0,1,2.73,2.53c-3.09-3.63-2.07-1.9.26-.6,1.7.95,2.69,1.9,4.43,2.22,3.61.65,7.15,1.42,10.72,2.29,3.9,1,6.47.87,10.25,1.13l2.23.51c1.62-.46,3.22-.85,4.89-1.15.27-.05.54-.07.81-.1a44.7,44.7,0,0,0,3.39-3.62,7.79,7.79,0,0,1-1.79,3.57,11.21,11.21,0,0,1,1.93.27l.06,0a4.91,4.91,0,0,1,.81-.43l-.26,0a25.62,25.62,0,0,0,4.31-7.43c.58,2-1.67,6.36-1.67,6.36,7-5,3.95-18.64,3.95-18.64C217.51,65.37,218.4,71.83,218.4,71.83Z"/><path class="cls-12" d="M214,75.79S209.23,87,202,89.49c0,0,3.66-3.89,4.67-6,0,0-5.91,7.83-19.15,4.5a15.55,15.55,0,0,0,7.69-2.21s-19.42,1.55-27.75-11.34l25.09,4s14.52-5.74,14.78-5.66S214,75.79,214,75.79Z"/><path class="cls-19" d="M177,51.61c2.64,3-6,1.77-6,1.77a17.74,17.74,0,0,1-.09-5.72C171.42,45.25,174.4,48.56,177,51.61Z"/><ellipse class="cls-12" cx="183.03" cy="50.17" rx="3.1" ry="1.26" transform="translate(67.69 200.88) rotate(-67.9)"/><polygon class="cls-13" points="174.47 34.84 217.88 63.59 216.09 58.73 182.49 31.16 176.66 31.42 174.47 34.84"/><ellipse class="cls-10" cx="159.4" cy="95.17" rx="1.67" ry="1.58" transform="translate(41.05 238.21) rotate(-81.23)"/><ellipse class="cls-10" cx="156.93" cy="100.94" rx="1.67" ry="1.58" transform="matrix(0.15, -0.99, 0.99, 0.15, 33.26, 240.65)"/><ellipse class="cls-10" cx="161.02" cy="90.37" rx="1.67" ry="1.58" transform="translate(47.17 235.73) rotate(-81.23)"/><ellipse class="cls-10" cx="163.2" cy="85.71" rx="1.67" ry="1.58" transform="matrix(0.15, -0.99, 0.99, 0.15, 53.62, 233.95)"/><ellipse class="cls-10" cx="194.92" cy="97.71" rx="1.67" ry="1.58" transform="translate(68.65 275.47) rotate(-81.23)"/><ellipse class="cls-10" cx="193.33" cy="102.76" rx="1.67" ry="1.58" transform="translate(62.3 278.17) rotate(-81.23)"/><path class="cls-9" d="M155.09,23.81l4.1-8,6.22-11.53,3.77,3.2s-5.84,17.9-1.39,19.18c7.34,2.12,13.58-7.68,18.35-12,7.22-6.48,17-9.12,25.48-4.06,6.36,3.81,12.85,9.56,15.15,17.15,1.87,6.23-.73,10.15-4.5,14.63-2.84,3.39-6.91,7.62-3.4,12,4.4,5.56,12.55-.15,17.69-1.5,2.44-.64,4.61,3.2,4.61,3.2L231,67.17"/><g class="cls-20"><path class="cls-21" d="M190.67,23.77a5.53,5.53,0,0,1,.24-2.35,6.36,6.36,0,0,1,1.22-2.26A5.39,5.39,0,0,1,198,17.44a13.94,13.94,0,0,1,5,2.28,7.63,7.63,0,0,1,2.83,5.6,9,9,0,0,1-.12,1.87c-.18,1-1.16,4.48-2.25,5-.79.35-2.21-.53-3-.66-1.71-.36-2.34.86-3,2.32-.43,1-1.75,3.54-3.06,2.24-1-1-.21-2.87.22-3.86.05-.14.12-.31.19-.48-.58,1.2-1.52,3.06-2.84,2.48-1.58-.7.52-3.12,1.07-4-.94,1-1.89,2.62-3.46,2.14-2.2-.66-.33-3.37.77-4.37.61-.6,1.59-1.05,1.48-2C191.71,25.19,190.86,24.6,190.67,23.77Z"/></g><path class="cls-19" d="M190.6,22a5.53,5.53,0,0,1,.24-2.35,6.49,6.49,0,0,1,1.22-2.27,5.4,5.4,0,0,1,5.84-1.71,14,14,0,0,1,5,2.28,7.63,7.63,0,0,1,2.83,5.6,9,9,0,0,1-.12,1.87c-.18,1-1.16,4.48-2.25,5-.79.35-2.21-.52-3-.66-1.71-.36-2.34.87-3,2.33-.43,1-1.75,3.54-3.06,2.24-1-1-.21-2.87.22-3.86,0-.15.12-.32.19-.49-.58,1.21-1.52,3.07-2.84,2.49-1.58-.7.52-3.12,1.07-4-.94,1-1.89,2.62-3.46,2.13-2.2-.66-.33-3.36.77-4.36.61-.61,1.59-1.05,1.48-2C191.64,23.46,190.79,22.86,190.6,22Z"/><path class="cls-22" d="M198.7,24c2.12-.24,3.68,3.47,1.08,3.87a2.18,2.18,0,0,1-2.55-2c-.1-1.5.72-1.78,1.47-1.83Z"/><path class="cls-22" d="M194.68,21.74c1.76-.2,3.06,2.89.9,3.22a1.81,1.81,0,0,1-2.13-1.7c-.08-1.24.61-1.48,1.23-1.52Z"/><g class="cls-20"><path class="cls-22" d="M202.9,18a7.63,7.63,0,0,1,2.83,5.6,9,9,0,0,1-.12,1.87c-.18,1-1.16,4.48-2.25,5-.79.35-2.21-.52-3-.66-1.41-.29-2.09.49-2.68,1.6a4,4,0,0,1,1.63-2c1-.61,1.44-.62,1.75-1.88a7.7,7.7,0,0,0-.64-5.35,5.37,5.37,0,0,1-1.06-3.62,2.67,2.67,0,0,1,1.37-1.8A10.21,10.21,0,0,1,202.9,18Z"/></g><path class="cls-22" d="M196.1,28.42s-.23-2.82-1.58-2.41l-.13,0Z"/><path class="cls-23" d="M203,60.94S190.24,82.31,172,66.44"/><path class="cls-9" d="M200.41,49.65c-.53-.46-16.31-9.9-16.31-9.9s-12.6,13.72.5,20.19S200.41,49.65,200.41,49.65Z"/><line class="cls-24" x1="182.41" y1="43.08" x2="174.17" y2="34.07"/><path class="cls-19" d="M206.05,62.74s.94-8.56-6.45-4.68C199.6,58.06,204.64,55.56,206.05,62.74Z"/><path class="cls-9" d="M131.79,66.17s-6.62-11.6-15.51-2.39S107.22,60,107.22,60s-1.55,20.58,10.84,12.42,11.85,5.87,11.85,5.87Z"/><path class="cls-25" d="M145.43,37.54c-.06.39-4.12.09-9.07-.68s-8.91-1.69-8.85-2.08,4.12-.08,9.06.68S145.49,37.16,145.43,37.54Z"/><path class="cls-26" d="M224.92,155.27l-41.43-6.39s-31,45.4-41.14-1.17l-54.77-8.45,22.87,7.22s-1.39,18.6,23.53,22.07l-.9,15.35,42.52,6.56,3.66-9.4S209.83,186.15,224.92,155.27Z"/><rect class="cls-26" x="206" y="127.87" width="2.19" height="36.04" transform="translate(31.35 328.32) rotate(-81.23)"/><rect class="cls-26" x="157.94" y="146.22" width="2.19" height="30.06" transform="translate(-24.57 293.85) rotate(-81.23)"/><rect class="cls-26" x="126.63" y="125.6" width="2.19" height="29.37" transform="translate(-30.39 245.14) rotate(-81.23)"/><rect class="cls-26" x="193.75" y="148.02" width="8.46" height="1.48" transform="translate(20.78 321.76) rotate(-81.23)"/><rect class="cls-26" x="116.15" y="142.69" width="8.46" height="1.48" transform="translate(-39.73 240.55) rotate(-81.23)"/><rect class="cls-26" x="122.85" y="143.73" width="8.46" height="1.48" transform="translate(-35.07 248.04) rotate(-81.23)"/><rect class="cls-26" x="130.45" y="144.9" width="8.46" height="1.48" transform="translate(-29.78 256.55) rotate(-81.23)"/><rect class="cls-26" x="199.98" y="148.98" width="8.46" height="1.48" transform="translate(25.12 328.73) rotate(-81.23)"/><rect class="cls-26" x="146.86" y="163.57" width="8.46" height="1.48" transform="translate(-34.33 288.59) rotate(-81.23)"/><rect class="cls-26" x="152.2" y="164.39" width="8.46" height="1.48" transform="translate(-30.61 294.58) rotate(-81.23)"/><rect class="cls-26" x="158.97" y="165.44" width="8.46" height="1.48" transform="matrix(0.15, -0.99, 0.99, 0.15, -25.9, 302.15)"/><rect class="cls-26" x="208.19" y="150.25" width="8.46" height="1.48" transform="translate(30.83 337.92) rotate(-81.23)"/><rect class="cls-26" x="215.14" y="151.32" width="8.46" height="1.48" transform="translate(35.66 345.7) rotate(-81.23)"/><rect class="cls-26" x="80.12" y="101.79" width="91.52" height="4.43" transform="translate(3.91 212.56) rotate(-81.23)"/><path class="cls-26" d="M136.55,59a3.42,3.42,0,1,0-3.9,2.85A3.42,3.42,0,0,0,136.55,59Z"/><path class="cls-27" d="M129.91,78.67c-4.94-.76-8.9-1.69-8.85-2.08h0l1.42,10.29,12,1.86L139,79.35h0C138.91,79.74,134.85,79.43,129.91,78.67Z"/><path class="cls-28" d="M148.39,176.92a2.08,2.08,0,1,0-2.37,1.74A2.08,2.08,0,0,0,148.39,176.92Z"/><path class="cls-28" d="M157.27,178.28a2.08,2.08,0,1,0-2.38,1.75A2.09,2.09,0,0,0,157.27,178.28Z"/><path class="cls-28" d="M212.1,161.86a2.08,2.08,0,1,0-2.37,1.74A2.08,2.08,0,0,0,212.1,161.86Z"/><path class="cls-28" d="M166.1,179.65a2.08,2.08,0,1,0-2.38,1.74A2.09,2.09,0,0,0,166.1,179.65Z"/><path class="cls-28" d="M123.93,152.62a2.08,2.08,0,1,0-2.38,1.75A2.09,2.09,0,0,0,123.93,152.62Z"/><path class="cls-19" d="M143.27,132.84l-39.07-6c-9.72-1.5-4.35-36.35,5.37-34.85l39.07,6C140.3,96.7,134.92,131.55,143.27,132.84Z"/><path class="cls-13" d="M192.7,77.64a1.51,1.51,0,0,1,1.36.15l.17-.1a3.39,3.39,0,0,1-.63-1.15c-.25-.83-.1-2.05,1.07-1.82a2.15,2.15,0,0,1,1.55,1.7,3.8,3.8,0,0,1,.21-2.36c.39-.79,1.46-.77,1.51.21a10.62,10.62,0,0,1-.4,2.16,4.81,4.81,0,0,0,.11,1.76,5.15,5.15,0,0,1,2.57-1.07h0l.39,0h.88a5.16,5.16,0,0,1,.79.09h.05l.39.07h0l.37.09,0,0,.31.09a7.72,7.72,0,0,1-1.41-1.2,2,2,0,0,1-.59-1.57c.14-.61.76-.32,1.09,0A5.29,5.29,0,0,1,203.61,76c.29.52.51,1.07.79,1.59a5.13,5.13,0,0,1-.45-1.85c0-.29-.08-.86.21-1,.59-.37.83,1.08.87,1.36.11.66.23,1.31.37,2a9.62,9.62,0,0,0,.26-1.09c.08-.3.1-.68.36-.89a.31.31,0,0,1,.52.12,1.49,1.49,0,0,1-.24,1.39,11.11,11.11,0,0,1-.65,1.11,2.39,2.39,0,0,1,.23.22l.05,0,.2.22,0,0,.2.25a.21.21,0,0,0,0,.06l.17.26h0c.05.09.1.18.14.27l0,.07a2.33,2.33,0,0,1,.11.28l0,0c0,.09,0,.18.07.26s0,0,0,.07a2.93,2.93,0,0,1,.05.29.15.15,0,0,0,0,.07c0,.09,0,.18,0,.27s0,0,0,0l0,.31s0,0,0,.08,0,.21-.07.32h0c0,.11-.07.22-.11.33l0,.07c0,.11-.09.22-.14.33l0,0a3.49,3.49,0,0,1-.18.31l0,.07a3.43,3.43,0,0,1-.24.33l0,.07c-.09.1-.17.21-.27.31l0,0c-.1.11-.22.23-.34.34l-.08.08-.4.35c-.19.15-.36.3-.53.45l-.12.11A4.6,4.6,0,0,0,207,85,11.72,11.72,0,0,1,209,83.93c.94-.26,1.3.75.68,1.37a3.9,3.9,0,0,1-2.33,1,2.18,2.18,0,0,1,2.26.91c.59,1-.52,1.56-1.39,1.59a4.19,4.19,0,0,1-2.12-.62c.65.43,1.41.92,1.36,1.82s-.9,1.23-1.73,1.27a2.93,2.93,0,0,1-1.37-.31,4.37,4.37,0,0,1-1.94-2c-.15-.29-.29-.58-.41-.88a7.4,7.4,0,0,0-.41.71c0,.08-.07.15-.1.22a.69.69,0,0,1,0,.1c0,.09-.07.18-.1.26v0l-.09.29s0,0,0,.08,0,.14,0,.2,0,.06,0,.09l0,.19v.08a1.94,1.94,0,0,0,0,.24h0a1.69,1.69,0,0,0,0,.23.17.17,0,0,0,0,.07c0,.05,0,.1,0,.15a.22.22,0,0,1,0,.08l0,.15a.07.07,0,0,1,0,0l.06.19v0a1.21,1.21,0,0,0,0,.14s0,0,0,.06a1.17,1.17,0,0,1,.05.11l0,.05.06.11,0,0,.08.13,0,0a.1.1,0,0,1,0,0,4.75,4.75,0,0,0,.23-.63,3.76,3.76,0,0,1,.34-.86c.13-.22.32-.47.59-.49s.26.28.18.47a2.46,2.46,0,0,1-.45.67c-.18.2-.39.38-.58.58a2.26,2.26,0,0,1,.75-.47c.12-.06.36-.17.49-.07s-.35.52-.47.58l-.8.45a4.38,4.38,0,0,0,.51,0,.77.77,0,0,1,.45,0,.15.15,0,0,1,0,.25.69.69,0,0,1-.64.1l-.13,0h0a9.72,9.72,0,0,1-2.46-.68,1.21,1.21,0,0,1,.18.28c.13.33,0,.49-.34.29a5.79,5.79,0,0,1-.71-.69,3.84,3.84,0,0,1-.59-.62,4.3,4.3,0,0,1,.39,1.67c0,.13,0,.46-.14.5s-.29-.28-.34-.4a7.21,7.21,0,0,1-.15-1.32.64.64,0,0,0-.22-.52c-.1-.09-.4-.12-.44-.27s.15-.21.29-.18a6.9,6.9,0,0,1-.72-.71.13.13,0,0,1-.18.11c-.15,0-.19-.33-.27-.44a.64.64,0,0,0-.52-.22,7.31,7.31,0,0,1-1.33-.13c-.12,0-.44-.17-.4-.34s.37-.15.5-.14a4.39,4.39,0,0,1,1.56.32l-.05-.07a5,5,0,0,1-.46-.46,5.87,5.87,0,0,1-.7-.71c-.2-.3,0-.47.29-.34l.16.09a9,9,0,0,1-.16-5.73h0a4.34,4.34,0,0,1-2.49-1.21,2.9,2.9,0,0,1-.73-1.21C191.82,78.89,191.82,78,192.7,77.64Z"/><path class="cls-29" d="M198.84,90.62c-.26-.52-.65-1.32-1.22-1.57-.33-.13-.49,0-.29.34a5.87,5.87,0,0,0,.7.71,5.05,5.05,0,0,0,.63.59,4,4,0,0,0-1.68-.38c-.13,0-.46,0-.49.14s.27.29.39.34a7.31,7.31,0,0,0,1.33.13.64.64,0,0,1,.52.22c.08.11.12.4.28.44s.19-.29.13-.41-.26-.29-.3-.48"/><path class="cls-29" d="M200.57,92.51a3.31,3.31,0,0,1,1.58,1.21c.13.33,0,.49-.34.29a5.79,5.79,0,0,1-.71-.69,4.33,4.33,0,0,1-.59-.62,4.13,4.13,0,0,1,.39,1.67c0,.13,0,.46-.14.5s-.29-.28-.34-.4a8.21,8.21,0,0,1-.15-1.32.61.61,0,0,0-.22-.52c-.1-.09-.4-.12-.44-.27s.29-.21.41-.14.29.25.48.3"/><path class="cls-30" d="M202.15,81.75c-1.84-.24-2.49-2.42-2.27-4a12.19,12.19,0,0,0,.4-2.16c-.06-1-1.13-1-1.52-.21a3.92,3.92,0,0,0-.18,2.51A2.19,2.19,0,0,0,197,76c-1.17-.23-1.32,1-1.06,1.82a4.15,4.15,0,0,0,1.25,1.82c-.61-.49-1.32-1-2.15-.72s-.89,1.25-.66,2a2.9,2.9,0,0,0,.73,1.21,4.38,4.38,0,0,0,2.49,1.21,5.8,5.8,0,0,0,2.42,0c.68-.21,1.71-.76,1.93-1.48"/><path class="cls-31" d="M204.43,94.12s-3.61-2.63,2.86-8-4-10.6-7.89-6.08S196.55,93,204.43,94.12Z"/><path class="cls-30" d="M204.08,93.77c-.73-.88-1.9-3.4,3.21-7.61s-.33-8.34-4.74-7.73a1.61,1.61,0,0,1,.29.09c.78.32.33,1-.06,1.48a1.93,1.93,0,0,1,1.14-.14,2.72,2.72,0,0,1,2,1.24,1.89,1.89,0,0,1,.14,1.45,5.62,5.62,0,0,1-1.81,2.15,22.56,22.56,0,0,0-3.08,2.78,5.56,5.56,0,0,0-1.27,2.57,2.92,2.92,0,0,0,.38,1.71,4.62,4.62,0,0,0,2.47,1.64A7.79,7.79,0,0,0,204.08,93.77Z"/><path class="cls-30" d="M203.83,93.75a2.55,2.55,0,0,0,.33-.8,3.76,3.76,0,0,1,.34-.86c.13-.22.32-.47.59-.49s.26.28.18.47a2.46,2.46,0,0,1-.45.67c-.18.2-.39.38-.57.58a2.12,2.12,0,0,1,.74-.47c.12-.06.36-.17.49-.07s-.35.52-.47.58l-.8.45a4.55,4.55,0,0,0,.52,0,.73.73,0,0,1,.44,0,.15.15,0,0,1,0,.25.69.69,0,0,1-.64.1,3.72,3.72,0,0,1-.8-.19"/><path class="cls-30" d="M207.34,80.1a5.77,5.77,0,0,0-1.41-1.24,8.35,8.35,0,0,1-1.54-1.3,1.93,1.93,0,0,1-.6-1.57c.14-.61.77-.32,1.09,0a5.08,5.08,0,0,1,1.06,1.38c.29.52.51,1.07.79,1.59a4.92,4.92,0,0,1-.44-1.85c0-.29-.09-.86.2-1,.59-.37.83,1.08.87,1.36.11.66.23,1.31.37,2a9.62,9.62,0,0,0,.26-1.09c.08-.3.11-.68.36-.89a.31.31,0,0,1,.52.12,1.49,1.49,0,0,1-.23,1.39,10.6,10.6,0,0,1-.94,1.51"/><path class="cls-32" d="M203.87,90.12s-1.31-2.11.84-4.58l-.26,3.63A4.55,4.55,0,0,0,203.87,90.12Z"/><path class="cls-30" d="M204.83,85.42c.81,1.67,3.09,1.59,4.53.88a11.72,11.72,0,0,1,1.92-1.06c.94-.26,1.3.75.68,1.37a3.9,3.9,0,0,1-2.33,1,2.18,2.18,0,0,1,2.26.91c.59,1-.52,1.56-1.39,1.59a4.24,4.24,0,0,1-2.12-.62c.65.43,1.42.92,1.37,1.82s-.91,1.23-1.74,1.27a3,3,0,0,1-1.37-.31,4.37,4.37,0,0,1-1.94-2,5.9,5.9,0,0,1-.76-2.3,3.68,3.68,0,0,1,.89-2.53"/><path class="cls-15" d="M201.36,82.32l-1.43-2.18s-2.51-3.5-4.94.55Z"/><ellipse class="cls-19" cx="202.17" cy="81.3" rx="0.69" ry="0.29" transform="translate(29.81 214.62) rotate(-59.63)"/><ellipse class="cls-19" cx="201.36" cy="80.58" rx="0.69" ry="0.29" transform="translate(-10.85 125.37) rotate(-33.73)"/><path class="cls-5" d="M184.24,182.85a3,3,0,1,1,1.87,5.72c-1.58.51-7.5-.72-7.5-.72S182.66,183.36,184.24,182.85Z"/><path class="cls-5" d="M192.58,186.71a1.92,1.92,0,0,1,1.19,3.66c-1,.33-4.79-.47-4.79-.47S191.57,187,192.58,186.71Z"/><path class="cls-5" d="M195.14,181.85a1.33,1.33,0,0,1,.82,2.53,12.21,12.21,0,0,1-3.31-.32A12.39,12.39,0,0,1,195.14,181.85Z"/><path class="cls-5" d="M206.8,177.54a5.2,5.2,0,1,1,3.22,9.89c-2.73.89-13-1.25-13-1.25S204.07,178.43,206.8,177.54Z"/><path class="cls-13" d="M174.68,47.45,157.45,49.8a7.31,7.31,0,0,1,1.75-4.3l1.86-1.45,1.72-.61,2.06.76Z"/><ellipse class="cls-13" cx="175.24" cy="43.97" rx="3.72" ry="2.61" transform="translate(89.73 203.13) rotate(-75.84)"/><ellipse class="cls-33" cx="174.23" cy="43.76" rx="3.77" ry="2.61" transform="translate(89.16 201.99) rotate(-75.84)"/><polygon class="cls-33" points="175.15 40.11 163.6 36.01 161.34 44.98 173.31 47.41 175.15 40.11"/><ellipse class="cls-34" cx="161.64" cy="40.36" rx="6.95" ry="4.81" transform="translate(82.95 187.21) rotate(-75.84)"/><polygon class="cls-34" points="163.34 33.63 142.03 26.07 137.86 42.61 159.94 47.1 163.34 33.63"/><polygon class="cls-35" points="138.99 21.03 121.23 13.75 112.42 44.86 131.82 46.35 138.99 21.03"/><ellipse class="cls-36" cx="116.83" cy="29.3" rx="16.17" ry="8.91" transform="translate(56.8 133.72) rotate(-74.19)"/><path class="cls-37" d="M118,43.54c-3.88-2.86-5.48-9.44-3.56-16.19,1.66-5.89,5.54-10.27,9.7-11.55,2.49,3.19,3.12,9.41,1.27,15.93C123.89,37.09,121.05,41.39,118,43.54Z"/><ellipse class="cls-35" cx="135.4" cy="33.69" rx="13.16" ry="7.25" transform="matrix(0.27, -0.96, 0.96, 0.27, 66.09, 154.79)"/><g class="cls-38"><path class="cls-13" d="M128.28,31.7a6.48,6.48,0,0,1-12.86-1.29c.34-3.3,3.39-4.79,6.94-4.44S128.61,28.4,128.28,31.7Z"/><path class="cls-39" d="M129.19,31a6.48,6.48,0,0,1-12.86-1.29c.33-3.31,3.39-4.79,6.94-4.44S129.52,27.66,129.19,31Z"/><path class="cls-13" d="M116.94,32.84a6.58,6.58,0,0,0,5.22,3.45,6.26,6.26,0,0,0,7-5.33,5.42,5.42,0,0,0,0-1.28C125.4,36.32,119.22,34,116.94,32.84Z"/><circle class="cls-22" cx="118.22" cy="29.93" r="1.49"/><circle class="cls-39" cx="119.36" cy="29.6" r="0.84"/></g><path class="cls-12" d="M146.68,44.94l.31-.39v.05c1.84-.52,7.64-2.33,8.58.15,1.13,3.27-7.48,2.51-9.06,1.22l-1.11.21A7.83,7.83,0,0,0,146.68,44.94Z"/><path class="cls-5" d="M115.55,181.85c1.69-.11,44.24-5.43,73.76,14.86l-72.07-15"/><path class="cls-4" d="M198.08,189.6s20.63,9.7,21.13,1.24S198.08,189.6,198.08,189.6Z"/><path class="cls-4" d="M196.7,186.53s12.21-1.39,10.05-5.41S196.7,186.53,196.7,186.53Z"/><path class="cls-4" d="M121.76,181.48s35.69-5,63.21,12.16C185,193.64,164,183.54,121.76,181.48Z"/><circle class="cls-4" cx="42.86" cy="124.37" r="5.84"/><circle class="cls-4" cx="17.78" cy="144.47" r="2.45"/><circle class="cls-4" cx="298.63" cy="124.25" r="1.79"/><circle class="cls-4" cx="321.76" cy="141" r="3.85"/><circle class="cls-4" cx="49.77" cy="181.79" r="8.96"/><circle class="cls-4" cx="268.29" cy="174.91" r="5.02"/><circle class="cls-4" cx="74.46" cy="172.33" r="2.45"/><circle class="cls-4" cx="243.62" cy="160.84" r="2.45"/><circle class="cls-4" cx="280.78" cy="147.11" r="1.22"/><circle class="cls-4" cx="298.63" cy="182.46" r="2.45"/><path class="cls-40" d="M68.23,47.77C60.44,50,57.09,46.31,53.37,39.65c1.51,10-11.09,16.35-20,11.92a8.58,8.58,0,0,1-4.54-4.89c-10.75,3.89-26.28.87-21.46-6.16,3.69-5.58,15.2-4.13,20.76-3.4-4.45-1.84-9.28-4.8-11.52-9.24-3.36-6.3-1.17-19.29,8.11-16.35C30.29,13,33.28,21.15,34.78,26c2.55-17.44,28.89-14.55,22.64,4.76,1.84-5.94,6.65-8.92,12.59-7.82C84.86,25.46,80.09,44.39,68.23,47.77Z"/><path class="cls-40" d="M303.43,101.69c3.38,1,4.84-.63,6.46-3.52-.66,4.34,4.81,7.1,8.68,5.18a3.74,3.74,0,0,0,2-2.13c4.67,1.69,11.41.38,9.32-2.67-1.61-2.43-6.6-1.8-9-1.48,1.94-.8,4-2.08,5-4,1.45-2.74.5-8.38-3.53-7.1-2.42.64-3.71,4.18-4.36,6.27-1.11-7.57-12.55-6.32-9.84,2.07a4.56,4.56,0,0,0-5.46-3.4C296.21,92,298.28,100.23,303.43,101.69Z"/><circle class="cls-5" cx="22.12" cy="118.53" r="3.26"/><path class="cls-3" d="M290.47,63a18.94,18.94,0,0,0-6.65-5.17,30.37,30.37,0,0,0-4.51-1.71c.26.28.52.55.75.83A7.48,7.48,0,0,1,281.64,62a8.24,8.24,0,0,1-1.91,4.59A9.3,9.3,0,0,1,276,69.33c.65-1.44,1.34-2.71,1.86-4a11.59,11.59,0,0,0,1-3.71,8.12,8.12,0,0,0-.63-3.67,16.65,16.65,0,0,0-1.41-2.55l-.68-.17c0,.05,0,.08,0,.12l-.2-.16c-.36-.08-.71-.15-1.08-.21a41.15,41.15,0,0,0-3.92,3.89,68.16,68.16,0,0,0-7.36,10.35,114.7,114.7,0,0,0-5.81,11.3c-1.46,3.27-3.61,9.59-5,13.72-2.86-3.07-4.3-4.6-7.19-7.64a91.5,91.5,0,0,1,5.48-10.1A111.76,111.76,0,0,1,259.35,66a69.32,69.32,0,0,1,9.74-9.1,44,44,0,0,1,4.77-3.13,12.07,12.07,0,0,0-1.51-.84,7.89,7.89,0,0,0-3.65-.76,11.76,11.76,0,0,0-3.72.88c-1.29.49-2.59,1.13-4,1.71a9.07,9.07,0,0,1,2.82-3.66,8.14,8.14,0,0,1,4.65-1.76,7.48,7.48,0,0,1,4,1,32.37,32.37,0,0,0-2.57-4.2,18.44,18.44,0,0,0-6.31-5.55A28.05,28.05,0,0,0,255.17,38c-3.08-.56-6.35-.8-9.89-1.34A20.51,20.51,0,0,1,255,33.07a19.55,19.55,0,0,1,11.17,2.09,17.57,17.57,0,0,1,8,9,16.47,16.47,0,0,1,.94,8.57,33,33,0,0,0,1.46-7.31,17.23,17.23,0,0,0-1.31-8.13,30,30,0,0,0-4.91-7.53c-2.1-2.48-4.54-4.9-7-7.71a24,24,0,0,1,10.18,4.13A21.58,21.58,0,0,1,281,35.25a16.18,16.18,0,0,1,.34,11.64,12.82,12.82,0,0,1-.77,1.58,15,15,0,0,1,14.63-1.57,21.5,21.5,0,0,1,9.22,7.4,24.31,24.31,0,0,1,4.34,10.15c-2.86-2.46-5.31-4.88-7.83-6.93a30.77,30.77,0,0,0-7.61-4.77,17.18,17.18,0,0,0-8.14-1.15,36.13,36.13,0,0,0-8.83,2.16l-.57.44s0,0,0,.07a.6.6,0,0,0,.16-.08s0-.06-.05-.09l.11,0a15.28,15.28,0,0,1,8.89-1.07,17.33,17.33,0,0,1,10.3,6.15A20.53,20.53,0,0,1,299.51,70a21.51,21.51,0,0,1-1.46,10.39c-1.24-3.44-2.17-6.65-3.33-9.61A29.8,29.8,0,0,0,290.47,63Z"/><path class="cls-3" d="M66.53,91.71a11,11,0,0,1,3.9-2.87,16.81,16.81,0,0,1,2.62-.91c-.16.16-.31.31-.44.46a4.33,4.33,0,0,0-1,2.92,4.65,4.65,0,0,0,1,2.66,5.33,5.33,0,0,0,2.11,1.62c-.35-.84-.72-1.58-1-2.31a6.74,6.74,0,0,1-.52-2.15,4.84,4.84,0,0,1,.42-2.1,9.85,9.85,0,0,1,.85-1.44l.4-.09s0,0,0,.07l.11-.09c.22,0,.41-.08.63-.1a24.85,24.85,0,0,1,2.19,2.29,39.14,39.14,0,0,1,4.07,6.06,64.26,64.26,0,0,1,3.16,6.59c.8,1.9,1.93,5.56,2.66,8,1.69-1.73,2.54-2.58,4.25-4.28a52.11,52.11,0,0,0-3-5.89A61.6,61.6,0,0,0,84.36,94a39.65,39.65,0,0,0-5.45-5.39,28.73,28.73,0,0,0-2.7-1.87,9.42,9.42,0,0,1,.89-.46,4.56,4.56,0,0,1,2.1-.38,6.9,6.9,0,0,1,2.13.57c.73.3,1.47.68,2.3,1a5.4,5.4,0,0,0-1.57-2.15,4.75,4.75,0,0,0-2.65-1.08,4.34,4.34,0,0,0-2.3.52,19,19,0,0,1,1.54-2.37,10.79,10.79,0,0,1,3.71-3.1,16.36,16.36,0,0,1,4.84-1.4c1.78-.27,3.66-.36,5.7-.62a11.77,11.77,0,0,0-5.51-2.19,11.26,11.26,0,0,0-6.45,1,10.13,10.13,0,0,0-4.72,5,9.5,9.5,0,0,0-.67,4.91,19.08,19.08,0,0,1-.73-4.22,10,10,0,0,1,.88-4.66,17.3,17.3,0,0,1,2.94-4.25c1.24-1.39,2.68-2.74,4.16-4.32a13.78,13.78,0,0,0-5.91,2.22,12.36,12.36,0,0,0-4.47,5.1A9.31,9.31,0,0,0,72,82.61a7.64,7.64,0,0,0,.42.92,9.34,9.34,0,0,0-1.71-1,9.11,9.11,0,0,0-6.67-.13,12.43,12.43,0,0,0-5.41,4.11A14,14,0,0,0,56,92.28c1.68-1.37,3.12-2.72,4.6-3.86a17.67,17.67,0,0,1,4.45-2.62,9.75,9.75,0,0,1,4.69-.54,20.18,20.18,0,0,1,5,1.38l.32.26s0,0,0,0l-.09,0a.13.13,0,0,0,0,0l-.07,0a8.78,8.78,0,0,0-5.09-.76,10,10,0,0,0-6,3.38,11.82,11.82,0,0,0-2.64,6.11,12.25,12.25,0,0,0,.68,6c.76-2,1.35-3.79,2.06-5.47A16.93,16.93,0,0,1,66.53,91.71Z"/></g></g></svg>