<svg xmlns="http://www.w3.org/2000/svg" xmlns:xlink="http://www.w3.org/1999/xlink" viewBox="0 0 340 200"><defs><style>.cls-1,.cls-10,.cls-19,.cls-20,.cls-25,.cls-29,.cls-35{fill:none;}.cls-2{isolation:isolate;}.cls-3{fill:#989889;}.cls-4,.cls-9{opacity:0.1;}.cls-4{mix-blend-mode:soft-light;}.cls-5,.cls-6{fill:#fff;}.cls-28,.cls-6{opacity:0.4;}.cls-7{fill:#7d7c71;}.cls-8,.cls-9{fill:#231f20;mix-blend-mode:multiply;}.cls-11,.cls-8{opacity:0.2;}.cls-10{stroke:#7d7c71;stroke-width:0.25px;}.cls-10,.cls-19,.cls-20,.cls-29,.cls-35{stroke-miterlimit:10;}.cls-12{fill:url(#linear-gradient);}.cls-13{fill:url(#linear-gradient-2);}.cls-14{fill:#f0eff0;}.cls-15{fill:#f26522;}.cls-16{fill:#8e391e;}.cls-17{fill:#b9bbbd;}.cls-18{clip-path:url(#clip-path);}.cls-19{stroke:#8d4a42;}.cls-19,.cls-20{stroke-width:0.44px;}.cls-20{stroke:#acadb0;}.cls-21{fill:#505551;}.cls-22{fill:#313332;}.cls-23{fill:#333;}.cls-24{fill:#1b1c1b;}.cls-25{stroke:#bebfb8;stroke-width:3.54px;}.cls-26,.cls-28,.cls-34{fill:#e0e1e0;}.cls-27{fill:#b6b7b7;}.cls-29{stroke:#b6b7b7;stroke-width:1.18px;}.cls-30{clip-path:url(#clip-path-2);}.cls-31{fill:#2ca4dd;}.cls-32{clip-path:url(#clip-path-3);}.cls-33{fill:#e7282d;}.cls-34{opacity:0.6;}.cls-35{stroke:#e0e1e0;stroke-width:1.02px;}</style><linearGradient id="linear-gradient" x1="-606.77" y1="753.94" x2="-606.77" y2="785.8" gradientTransform="translate(722.17 -753.3) rotate(-1.12)" gradientUnits="userSpaceOnUse"><stop offset="0" stop-color="#fff" stop-opacity="0"/><stop offset="1" stop-color="#fff"/></linearGradient><linearGradient id="linear-gradient-2" x1="-580.97" y1="747.63" x2="-580.97" y2="792.06" gradientTransform="matrix(0.94, -0.02, 0.02, 0.99, 677.44, -749.36)" xlink:href="#linear-gradient"/><clipPath id="clip-path"><path class="cls-1" d="M139.58,37.47c-14.32.88-27.23,27-27.23,27l6,5S141.52,51.69,139.58,37.47Z"/></clipPath><clipPath id="clip-path-2"><path class="cls-1" d="M218.89,84s17.44-68.44,66.79-43.86c48.24,24,1.58,53.7,1.58,53.7l-.15,0L276,151.65l-59-7.71,3.4-22.49,11-35.62Z"/></clipPath><clipPath id="clip-path-3"><path class="cls-1" d="M205.72,83.42c-15.78,41.66,9.5,48.23,25.75,53.72,23.67,8,33-1.25,42.16-29.46S281.07,69,256.19,60.57C231,52.05,216.22,55.71,205.72,83.42Z"/></clipPath></defs><title>to-footer</title><g class="cls-2"><g id="Layer_1" data-name="Layer 1"><circle class="cls-3" cx="81.49" cy="115.57" r="75.42"/><g class="cls-4"><path class="cls-5" d="M94.42,41.26c.21.34.43.68.66,1,3.46,5,8.82,8.52,13.56,12.18,3.78,2.92,10.24,7.14,9.67,12.7-.73,7.08-9.45,9-15,10.78C95,80.41,85,84.75,81.76,93.6c-2.62,7.2.95,13.93,5.91,19,6.57,6.7,16.3,8.77,23,15.26a21.56,21.56,0,0,1,5.88,14c.09,9.18-5.8,18.61-10.48,26.16-5.61,9.07-13.71,17.58-23.18,22.71l-.48.24a75.42,75.42,0,0,0,12-149.72Z"/></g><path class="cls-6" d="M81.49,40.16H80.42a75.41,75.41,0,0,1,0,150.81h1.07a75.42,75.42,0,0,0,0-150.83Z"/><ellipse class="cls-7" cx="32.18" cy="110.24" rx="15.59" ry="18.19"/><ellipse class="cls-6" cx="32.18" cy="110.24" rx="15.59" ry="18.19"/><path class="cls-7" d="M47.77,110.24c0-7.71-4.12-14.3-9.93-16.94a13.52,13.52,0,0,0-4-.62c-8.61,0-15.59,8.14-15.59,18.19,0,7.71,4.11,14.3,9.92,16.94a13.59,13.59,0,0,0,4,.62C40.79,128.43,47.77,120.29,47.77,110.24Z"/><path class="cls-8" d="M38.7,111.49a19.89,19.89,0,0,0,4,12.17,19.57,19.57,0,0,0,5.07-13.42,19.92,19.92,0,0,0-4-12.17A19.65,19.65,0,0,0,38.7,111.49Z"/><ellipse class="cls-7" cx="79.55" cy="124.28" rx="6.55" ry="8.88"/><path class="cls-8" d="M82.15,130.84a12.52,12.52,0,0,0,.1,1.52c2.28-1.39,3.86-4.49,3.86-8.08a12.82,12.82,0,0,0-.1-1.53C83.74,124.15,82.15,127.24,82.15,130.84Z"/><circle class="cls-7" cx="68.68" cy="156.83" r="13.31"/><path class="cls-6" d="M56.08,156.83a13.31,13.31,0,0,1,13-13.3h-.36a13.31,13.31,0,0,0,0,26.62H69A13.31,13.31,0,0,1,56.08,156.83Z"/><path class="cls-8" d="M71.38,169.87A13.3,13.3,0,0,0,82,157.11,13.31,13.31,0,0,0,71.38,169.87Z"/><ellipse class="cls-7" cx="141.48" cy="129.34" rx="4.98" ry="6.83"/><path class="cls-8" d="M140,125.73a4.32,4.32,0,0,0-3.31,1.75,9.31,9.31,0,0,0-.19,1.86c0,3.77,2.23,6.83,5,6.83a4.32,4.32,0,0,0,3.31-1.75,9.31,9.31,0,0,0,.19-1.86C145,128.79,142.75,125.73,140,125.73Z"/><ellipse class="cls-7" cx="134.93" cy="88.04" rx="4.08" ry="5.59" transform="translate(-25.52 73.46) rotate(-27.93)"/><path class="cls-8" d="M137.37,90.08a3.5,3.5,0,0,0,1.73-2.53,6.59,6.59,0,0,0-.57-1.42c-1.45-2.73-4.23-4.09-6.22-3a3.52,3.52,0,0,0-1.73,2.54,7,7,0,0,0,.57,1.42C132.6,89.78,135.38,91.13,137.37,90.08Z"/><ellipse class="cls-7" cx="95.45" cy="92.05" rx="4.08" ry="5.59" transform="translate(-32 55.43) rotate(-27.93)"/><path class="cls-8" d="M97.9,94.1a3.57,3.57,0,0,0,1.73-2.54,7.72,7.72,0,0,0-.58-1.42c-1.45-2.73-4.23-4.08-6.22-3a3.5,3.5,0,0,0-1.73,2.53,7.14,7.14,0,0,0,.57,1.42C93.12,93.79,95.91,95.15,97.9,94.1Z"/><circle class="cls-7" cx="122.09" cy="153.22" r="0.81"/><circle class="cls-7" cx="56.18" cy="100.19" r="0.81"/><circle class="cls-7" cx="36.55" cy="147.03" r="1.91"/><circle class="cls-7" cx="113.65" cy="110.87" r="1.91"/><circle class="cls-7" cx="65.2" cy="88.04" r="1.91"/><circle class="cls-9" cx="65.2" cy="88.04" r="1.91"/><circle class="cls-7" cx="48.13" cy="149.74" r="1.1"/><circle class="cls-9" cx="48.13" cy="149.74" r="1.1"/><circle class="cls-7" cx="15.49" cy="132.28" r="1.1"/><circle class="cls-9" cx="15.49" cy="132.28" r="1.1"/><circle class="cls-7" cx="144.19" cy="104.93" r="1.1"/><circle class="cls-9" cx="144.19" cy="104.93" r="1.1"/><circle class="cls-7" cx="99.9" cy="147.03" r="1.91"/><circle class="cls-9" cx="99.9" cy="147.03" r="1.91"/><circle class="cls-7" cx="101.81" cy="175.51" r="1.91"/><circle class="cls-9" cx="101.81" cy="175.51" r="1.91"/><circle class="cls-10" cx="36.36" cy="160.8" r="2.56"/><circle class="cls-10" cx="33.81" cy="80.07" r="2.56"/><circle class="cls-5" cx="31.71" cy="32.97" r="0.5"/><ellipse class="cls-9" cx="112.35" cy="71.72" rx="1.68" ry="17.2" transform="translate(-15.23 110.29) rotate(-49.37)"/><g class="cls-11"><path class="cls-12" d="M135.44,40.27c.46.11.9.23,1.34.36a13.64,13.64,0,0,1,3.09-1.76l.52-.26c1.31-2,2.06-4.2.21-6.19-1.51-1.74-3.51-3.08-3.89-5-.57-2.33,1.49-3.91,1.75-6.06.27-1.57-1.55-2.62-1.44-4.28.27-1.66,1.84-3.23,1.79-4.89-2.27.12-3.19,1.89-4.95,2.59-2.24.91-3.08.23-5.2-.23-3.76-.74-11-.26-9,2.93,2,2.9,7.9,3.32,9.14,6.33s-.94,6.25,1.43,9.15c2,2.22,5.14,3.35,5.23,6.08C135.48,39.47,135.46,39.89,135.44,40.27Z"/></g><g class="cls-11"><path class="cls-13" d="M135.47,40.28c.45.1.88.23,1.31.35a12.81,12.81,0,0,1,2.05-1.29,17.36,17.36,0,0,0,0-2.64c-.12-3.75,3.87-5.4,6.32-8.5,2.84-4.05-.27-8.29,1.08-12.59s9-4.92,11.4-9c2.41-4.44-7.17-4.86-12-3.73-2.74.7-3.77,1.65-6.79.48-2.37-.91-3.72-3.3-6.7-3.4.07,2.27,2.27,4.39,2.77,6.65.28,2.27-2,3.77-1.51,5.91.52,2.93,3.35,5,2.82,8.25-.34,2.68-2.83,4.58-4.66,7-3.27,4.05.7,8.42,3.58,12.13C135.23,40.05,135.35,40.16,135.47,40.28Z"/></g><polyline class="cls-14" points="127.49 49.26 118.03 45.63 114.44 50.01 124.26 53.2"/><polygon class="cls-14" points="103.82 62.95 102.62 61.97 119.9 42.31 120.41 42.73 103.82 62.95"/><path class="cls-14" d="M103.91,61.62a2.16,2.16,0,0,0-3,.3l3.34,2.74A2.16,2.16,0,0,0,103.91,61.62Z"/><polyline class="cls-14" points="130.38 51.63 135.78 60.2 132.19 64.58 127.15 55.57"/><polygon class="cls-14" points="121.58 77.52 122.78 78.5 138.68 57.72 138.16 57.3 121.58 77.52"/><path class="cls-14" d="M122.86,77.17a2.16,2.16,0,0,1,.3,3l-3.34-2.74A2.17,2.17,0,0,1,122.86,77.17Z"/><path class="cls-14" d="M133.2,43.55a.83.83,0,0,1-.11-.15q-.5-.36-1-.75a14.26,14.26,0,0,1-1.55-1.56c-10.32,7.38-18.23,23.41-18.23,23.41l6,5S132,59,137.48,47.68A13.09,13.09,0,0,1,133.2,43.55Z"/><path class="cls-15" d="M137.41,47.8c1.69-3.46,2.63-7,2.17-10.33-3.36.2-6.64,1.81-9.7,4.14Z"/><circle class="cls-15" cx="128.58" cy="50.87" r="3.75"/><circle class="cls-16" cx="128.58" cy="50.87" r="2.75"/><path class="cls-17" d="M116.3,57.57c-2.48,4-4,6.93-4,6.93l6,5s2.63-2,6-5.23a10.19,10.19,0,0,0-2.68-5.1C119.67,57.29,116.3,57.57,116.3,57.57Z"/><g class="cls-18"><path class="cls-19" d="M129,40.93s8.14-1.64,9.21,7.55"/><path class="cls-20" d="M125.72,45s8.14-1.64,9.22,7.55"/><path class="cls-20" d="M115.37,57.59s8.14-1.64,9.21,7.55"/><path class="cls-20" d="M110.26,64.44s8.14-1.64,9.21,7.55"/></g><path class="cls-15" d="M139.39,38.52l-.54-.55a5.38,5.38,0,0,0,1.82-3.21.38.38,0,0,1,.21-.31.4.4,0,0,1,.37,0l1.17.72-.78-1.71a.38.38,0,0,1,.08-.44.39.39,0,0,1,.44-.07l.39.19-1-1.48a.39.39,0,0,1,.05-.49.38.38,0,0,1,.49,0l2.3,1.62a2.38,2.38,0,0,1,.89-2.33l.53.56c-1,.94-.81,1.7-.14,2.7a.38.38,0,0,1-.54.53L143.36,33l.63.94a.39.39,0,0,1,0,.47.38.38,0,0,1-.46.09l-.71-.35.86,1.9a.4.4,0,0,1-.09.45.41.41,0,0,1-.46,0l-1.77-1.09A6.69,6.69,0,0,1,139.39,38.52Z"/><path class="cls-9" d="M116,67.48l2.4,2S141,52.07,139.62,37.92C137.71,42.17,129.8,58.34,116,67.48Z"/><polygon class="cls-21" points="77.49 55.18 75.58 54.52 73.9 56.08 70.56 53.54 72.08 57.44 76.5 58.14 77.49 55.18"/><polygon class="cls-9" points="79.97 59.42 63.42 60.36 66.49 58.03 70.56 57.49 79.97 59.42"/><polygon class="cls-22" points="67.84 58.59 70.56 53.54 74.24 56.83 77.49 55.18 79.97 59.42 67.84 58.59"/><path class="cls-22" d="M74.47,62.43l.73,2.08-3.87,1.8-1.63.12s-.78-1.45-.54-2.15S74.47,62.43,74.47,62.43Z"/><polygon class="cls-9" points="60.74 65.72 55.71 68.49 57.66 69.35 63 68.45 60.74 65.72"/><path class="cls-22" d="M60.8,65.43H63l.42,2.2-.42.82a7.31,7.31,0,0,1-2.2-.1C60.22,68.11,60.8,65.43,60.8,65.43Z"/><polygon class="cls-21" points="69.12 64.6 72.16 64.6 74.47 62.43 68.78 64.12 69.12 64.6"/><polyline class="cls-7" points="81.96 51.05 84.95 48.06 86.22 49.43 88.55 47.16 94.08 52.97 82.33 51.19"/><path class="cls-9" d="M82.46,53S79,54.63,79.28,54.46s7.4,2.94,7.4,2.94l2.82-.69s2.14-2.91,1.56-3.1S82.46,53,82.46,53Z"/><polygon class="cls-22" points="84.93 51.68 87.81 48.67 94.08 52.97 94.08 56.29 89.5 56.71 87.61 54.33 82.92 54.73 81.96 51.05 84.25 50.3 84.93 51.68"/><path class="cls-9" d="M24.89,65.73A75.42,75.42,0,0,0,127.2,175.56C22.16,165.79,20.44,96.23,24.89,65.73Z"/><polyline class="cls-23" points="22.1 24.34 19.63 29.26 38.08 65.77 41.77 65.2 28.18 26.99 22.1 24.34"/><path class="cls-24" d="M50.57,22.84,49.35,24s.44,4.37,0,4.37-5.54,1.28-5.54,1.28l-2-8.65L36.09,23.3,35,18.38l-12.92,6L41.77,65.2,63.4,52.76"/><path class="cls-3" d="M60,56.59l-.4-3.06c-8-.73-13.87,8.89-13.87,8.89l3.88.6,10.29-5.16C60,57.43,60,57,60,56.59Z"/><path class="cls-7" d="M61,52.35c-10.45,0-14.29,6.29-15.69,10.52l.88.2c3.59-5.88,9.7-8.34,14.4-9.36C60.71,53.25,60.85,52.8,61,52.35Z"/><path class="cls-3" d="M58.62,57.32s1.09-8.54,6.9-10.53l1.7,2.76-5.71,7Z"/><path class="cls-7" d="M59,60.71S54.17,48,70.6,44.18C70.6,44.18,58.15,49.26,59,60.71Z"/><path class="cls-3" d="M30.29,65.57S39.52,59.13,46.56,63L45.37,67.1l-11.78.59Z"/><path class="cls-7" d="M27.46,68.87S35.55,53,53.64,65.57C53.64,65.57,37.78,58,27.46,68.87Z"/><circle class="cls-15" cx="251.31" cy="105.33" r="82.7"/><circle class="cls-16" cx="251.31" cy="105.33" r="68.45"/><path class="cls-1" d="M255.23,126.67l0,0h-.08Z"/><path class="cls-25" d="M295.79,91.18c5.83,5.39,5.32,14.34,5.82,21.57"/><path class="cls-25" d="M285.92,91.39c3,6.06,5.82,16.6,4.55,25.27"/><path class="cls-25" d="M275.54,98.07c7.09,2.93,8.86,13.94,8.1,21.13"/><path class="cls-25" d="M268.2,99.6c3.79,6.33,4.3,14.8,5.31,21.8"/><path class="cls-25" d="M257.31,104c5.32,1.89,5.82,15.35,5.82,20.32"/><path class="cls-26" d="M265.34,121.57s1.11-3.62-25-3.61c-1.73,5-3.26,10.14-4.93,15.19s-2.86,9.94-4.17,14.94a114.54,114.54,0,0,0-3.49,21.53,68.35,68.35,0,0,0,23.56,4.16,69.09,69.09,0,0,0,15.26-1.7l-2.33-3.7a27.34,27.34,0,0,1-3.27-8.06c-1.68-6.78-1-14.55.13-21.26A138,138,0,0,1,265.34,121.57Z"/><path class="cls-27" d="M266.57,172.08l-2.33-3.7a24.94,24.94,0,0,1-1.26-2.31c-13.14,4.68-28.29,1.13-34.86-.87-.16,1.47-.28,2.94-.37,4.42a68.35,68.35,0,0,0,23.56,4.16A69.09,69.09,0,0,0,266.57,172.08Z"/><path class="cls-26" d="M218.89,84s17.44-68.44,66.79-43.86c48.24,24,1.58,53.7,1.58,53.7l-.15,0L276,151.65l-59-7.71,3.4-22.49,11-35.62Z"/><path class="cls-28" d="M220.35,121.45l11-35.62L218.89,84s10.45-41,38-48.13c10,4.47,20.22,17.8,22.82,53.19,3.45,47.1-15.7,57.62-29.62,59.19L217,143.94Z"/><path class="cls-27" d="M294,83.53l8.73,2.18A342.52,342.52,0,0,1,288,131.87l-8.31-3.49A332.54,332.54,0,0,0,294,83.53Z"/><path class="cls-27" d="M279.22,103.41c-2.05,6.43-5.65,21.83.51,25,6.4,3.26,14.88-14,16.58-19.28S301,84.75,294,83.53C287.19,82.35,281.27,97,279.22,103.41Z"/><path class="cls-26" d="M287.76,106.25c-1.74,5.49-6.17,23.25.28,25.62,7.09,2.59,15.29-13.66,16.81-19.93,2.16-8.87,5.27-26.6-2.13-26.23C295.85,86.05,289.51,100.77,287.76,106.25Z"/><path class="cls-29" d="M292.21,107.68c-.82,2.58-2.91,10.95.13,12.06,3.34,1.22,7-6.49,7.91-9.38s2.4-11.33-1-12.35C296.15,97.08,293,105.1,292.21,107.68Z"/><ellipse class="cls-26" cx="297.34" cy="32.35" rx="3.89" ry="4.02" transform="translate(120.62 273.66) rotate(-59.99)"/><polygon class="cls-26" points="297.23 33.34 285.31 48.16 283.44 43.05 296.26 32.85 297.23 33.34"/><g class="cls-30"><path class="cls-27" d="M221,147.87l1,0c.42-27.31,4.1-49.86,10.94-67,5.57-14,13.27-24.48,22.87-31.22,19.2-13.47,39.82-7.31,40-7.24l.27-.94c-.21-.06-21.28-6.37-40.88,7.36C245.46,55.7,237.65,66.34,232,80.49,225.12,97.77,221.41,120.43,221,147.87Z"/><path class="cls-27" d="M283.74,52.93c1,.14,2.07.28,3.15.4a162.23,162.23,0,0,0,21.4.87l-.07-1c-.4,0-40.44,1.43-48.11-11.48-2.19-3.68-1.49-8.29,2.08-13.69l-.84-.55c-3.79,5.73-4.49,10.68-2.1,14.72C262.38,47.48,270.61,51.08,283.74,52.93Z"/></g><path class="cls-31" d="M205.72,83.42c-15.78,41.66,9.5,48.23,25.75,53.72,23.67,8,33-1.25,42.16-29.46S281.07,69,256.19,60.57C231,52.05,216.22,55.71,205.72,83.42Z"/><g class="cls-32"><polygon class="cls-5" points="256.35 135.09 276.48 126.79 280.67 102.02 281.87 94.13 289.76 79.48 285.2 75.76 271.55 78.18 256.62 84.68 237.78 69.66 228.23 62.06 229.03 82.51 219.95 98.11 222.87 114.34 237.71 131.47 256.35 135.09"/><path class="cls-33" d="M211.35,104.18c-5.62,9.69,1.61,14,1.61,14a14.45,14.45,0,0,1-.08-3.42c1.48,8.19,8,14.84,8,14.84a48.82,48.82,0,0,1-.82-5.93c1,5.56,7,10.33,7,10.33-.7-.8-1.4-5.69-1.4-5.69a22.15,22.15,0,0,0,6.87,8.3,11.75,11.75,0,0,0,2.25,1.29l.89.37h0l-.05,0A21,21,0,0,1,240,140c-5.31-2.72-3.31-1.23,0-.78,2.45.33,4,1,6.23.56,4.55-.82,9.06-1.49,13.65-2,5-.62,8-1.81,12.56-3.15,1-.14,1.9-.27,2.86-.39,1.68-1.21,3.39-2.34,5.2-3.39.3-.17.6-.31.91-.46a48.59,48.59,0,0,0,2.28-5.51c.42,1.19.08,3-.43,4.76a14,14,0,0,1,2.39-.53.56.56,0,0,0,.05-.08,5.55,5.55,0,0,1,.76-.83l-.3.14a29.33,29.33,0,0,0,1.61-10.14c1.6,2,1,7.82,1,7.82,5.9-8.66-4-22.52-4-22.52,2.69,1.78,6.74,8.62,6.74,8.62-1.32-7.13-9.33-14.12-9.33-14.12,10.1-14.19,9.68-20.6,9.68-20.6-12.09-5.56-26.21,1.47-26.21,1.47a19.71,19.71,0,0,0-14.75-7,14.34,14.34,0,0,1,5.75,3.91,63.92,63.92,0,0,0-12-3.31c-.93-2.34-5-9.93-18.53-10.51,0,0-2.62,9.81-.34,15.67-4.32,1.63-4.76,3.22-4.76,3.22l4.37-.7-2.62,9.77a16.85,16.85,0,0,0-9,4.69c1-.53,4.29,0,4.29,0a18.05,18.05,0,0,0-9.94,11.42A4.6,4.6,0,0,1,211.35,104.18Zm60.39-21.73s9.2-5.1,15.3-2.21c0,0-2.76,8.36-7.44,11.58C279.6,91.82,276.28,85.94,271.74,82.45ZM236.51,98.33c1.38-6.82,8-15.62,13.71-14.3s8.34,12.26,7,19.09-7.12,11.28-12.83,10S235.13,105.15,236.51,98.33Zm-3,9c4.52,2.27-6.28,4.57-6.28,4.57a21.17,21.17,0,0,1-2.76-6.34C224,102.59,229,105,233.55,107.28Zm-4.13-41.34c7.57,1.21,11.76,7.3,10.58,7.62-2.74.75-9.94,5.43-9.94,5.43C226.88,75.1,229.42,65.94,229.42,65.94Z"/><path class="cls-33" d="M288.1,118.38s-.3,14.59-7.65,20.44c0,0,2.49-5.92,2.7-8.71,0,0-3.31,11.29-20.39,13.27a19.47,19.47,0,0,0,8-5.78s-22.08,10.09-37.85-.71l31.3-6.37s14.37-12.66,14.71-12.68S288.1,118.38,288.1,118.38Z"/></g><path class="cls-27" d="M238.13,160.2l12.63,1.06a.41.41,0,0,0,.46-.39l.57-10a.43.43,0,0,0-.4-.46l-12.64-1.06a.4.4,0,0,0-.45.38l-.58,10A.44.44,0,0,0,238.13,160.2Z"/><ellipse class="cls-26" cx="248.31" cy="155.8" rx="0.84" ry="0.87" transform="translate(-10.79 292.91) rotate(-59.99)"/><ellipse class="cls-26" cx="245" cy="155.53" rx="0.84" ry="0.87" transform="translate(-12.21 289.91) rotate(-59.99)"/><ellipse class="cls-26" cx="241.21" cy="155.17" rx="0.84" ry="0.87" transform="translate(-13.8 286.44) rotate(-59.99)"/><path class="cls-34" d="M243.85,60.75s-28-15.6-40.6,37.8C203.25,98.55,215.7,54,243.85,60.75Z"/><path class="cls-35" d="M233.19,126.25s16.44-14.18,27,3.46"/><polygon class="cls-15" points="188.59 63.61 140.93 47.55 181.67 71.25 188.59 63.61"/><ellipse class="cls-33" cx="239.72" cy="100" rx="3.79" ry="1.03" transform="translate(80.05 304.86) rotate(-74.71)"/><ellipse class="cls-5" cx="233.19" cy="98.22" rx="3.79" ry="1.03" transform="translate(76.96 297.26) rotate(-74.71)"/><path class="cls-26" d="M218.42,165.37q1.85,1,3.78,1.92c.61-7.66,9.07-18.65,12.48-22.43l-3-2.68C231.19,142.76,220.25,155,218.42,165.37Z"/><path class="cls-26" d="M260.2,147.36l-3,2.67c3.24,3.6,11,13.7,12.33,21.28,1.3-.36,2.58-.76,3.85-1.19C271.36,159.85,260.71,147.92,260.2,147.36Z"/></g></g></svg>