<svg viewBox="0 0 28.84 26.6" xmlns="http://www.w3.org/2000/svg"><g fill="#b9e1f1"><rect height="3.66" rx="1.03" width="3.06" x="8.25" y="2.31"/><rect height="3.66" rx="1.03" width="3.06" x="17.53" y="2.31"/><path d="m24.1 5.39h-2.56a2 2 0 0 1 -2 1.59h-1a2 2 0 0 1 -2-1.59h-4.28a2 2 0 0 1 -2 1.59h-1a2 2 0 0 1 -2-1.59h-2.51a2.07 2.07 0 0 0 -2.08 2.07v14.75a2.07 2.07 0 0 0 2.07 2.07h19.36a2.07 2.07 0 0 0 2.07-2.07v-14.75a2.07 2.07 0 0 0 -2.07-2.07zm-.29 16.15h-18.58v-13.09h18.58z"/><path d="m7.18 11.71h2.5v2.5h-2.5zm4.09 0h2.5v2.5h-2.5zm3.99 0h2.5v2.5h-2.5zm4.09 0h2.5v2.5h-2.5zm-12.17 4.07h2.5v2.5h-2.5zm4.09 0h2.5v2.5h-2.5zm3.99 0h2.5v2.5h-2.5zm4.09 0h2.5v2.5h-2.5z"/></g></svg>