<svg viewBox="0 0 904.41 790.68" xmlns="http://www.w3.org/2000/svg"><ellipse cx="486.85" cy="747.58" opacity=".1" rx="336.73" ry="7.83"/><path d="m355.48 598.25h205.5v14.18h-205.5z" fill="#404041" transform="matrix(.01204248 -.99992749 .99992749 .01204248 -152.62 1056.2)"/><path d="m451 725.59s-11.49 17-37.87 16.14l-.88 5.38s33.69 3.75 44.4-12.1l-1.08 12.33 11.3-.8-2.87-22.44z" fill="#e63d31"/><path d="m462.5 728.65 18.81-86.14-43.31.33 13.72 82.82z" fill="#e63d31"/><path d="m415.7 598.25h205.5v14.18h-205.5z" fill="#404041" transform="matrix(.01204248 -.99992749 .99992749 .01204248 -93.14 1116.41)"/><path d="m511.19 725.59s-11.48 17-37.87 16.14l-.88 5.38s33.7 3.75 44.41-12.1l-1.09 12.33 11.3-.8-2.8-22.44z" fill="#e63d31"/><path d="m522.71 728.65 18.81-86.14-43.3.33 13.71 82.82z" fill="#e63d31"/><path d="m632.61 267.12s82.88.8 96.27-7.66c0 0-20.64 60.21-91.11 70.09z" fill="#988786"/><path d="m383 125.75s7.2 67.46 31.82 84.68l23.76-16.73 1.8-22.16-59.03-52.54z" fill="#988786"/><path d="m412.25 398.89a213.45 213.45 0 0 0 63.33-15.41l-4.06-10c-102.89 41.67-168.12-15.52-168.77-16.1l-7.23 8c.72.65 18 16 49 26a175.56 175.56 0 0 0 67.73 7.51z" fill="#959a8f"/><path d="m299.64 368.13c-4.67 4.59-12.91 12.45-20.16 10.25-14-4.21 6.34-17.87 12-22.08-8.2 3.66-16.49 7.22-25.17 9.58-4.63 1.26-9.41 2.55-14.24 2.48-3.51-.05-11.84-1.07-11.73-6.08s9.41-8 13.22-9.3a48 48 0 0 1 33.9 1.78c-7.76-3.55-15.45-7.29-22.89-11.47a123.21 123.21 0 0 1 -13.73-8.7c-3.35-2.51-8.48-6-9.19-10.59-2-12.82 22.77.13 26.66 2.14 15.21 7.9 24.56 17.3 36 29.87l.81.89c6.26-5.72 25.63-24.38 34.84-16.79 11.64 10.26-24.63 24.77-33.77 23z" fill="#e63d31"/><path d="m600.48 426.23a213 213 0 0 1 -59.29-27.07l5.87-9.07c93.19 60.31 168 16.44 168.78 16l5.59 9.25c-.83.5-20.71 12.33-53 16.26a175.49 175.49 0 0 1 -67.95-5.37z" fill="#959a8f"/><path d="m716.87 417.24c3.72 5.39 10.33 14.66 17.86 13.86 14.53-1.49-2.85-18.74-7.64-23.93 7.37 5.13 14.84 10.19 22.93 14.14 4.31 2.11 8.75 4.28 13.51 5.12 3.46.61 11.83 1.19 12.67-3.76s-7.73-9.67-11.2-11.62a48 48 0 0 0 -33.63-4.64c8.29-2 16.54-4.25 24.64-7a122.79 122.79 0 0 0 15.13-6c3.76-1.83 9.46-4.34 11-8.67 4.37-12.22-22.39-4.17-26.58-2.92-16.43 4.89-27.39 12.36-41 22.55l-1 .72c-5.07-6.8-20.58-28.78-31.05-23.06-13.36 7.89 19.52 29 28.83 29z" fill="#e63d31"/><path d="m444.12 358.12-25.49 156.3 126.62 15.16 19.18-159.57z" fill="#404041"/><circle cx="435.85" cy="500.15" fill="#e63d31" r="3.44"/><circle cx="438.92" cy="507.58" fill="#e63d31" r="3.44"/><circle cx="431.75" cy="506.22" fill="#e63d31" r="3.44"/><path d="m439.61 502.97 8.5.52-3.8-7.62z" fill="#37b34a"/><circle cx="436.64" cy="479.01" fill="#e63d31" r="3.44"/><circle cx="443.01" cy="474.1" fill="#e63d31" r="3.44"/><circle cx="443.57" cy="481.38" fill="#e63d31" r="3.44"/><path d="m438.38 474.64-1.73-8.33-6.35 5.66z" fill="#37b34a"/><circle cx="460.08" cy="467.53" fill="#e63d31" r="3.44"/><circle cx="463.15" cy="474.96" fill="#e63d31" r="3.44"/><circle cx="455.98" cy="473.6" fill="#e63d31" r="3.44"/><path d="m463.84 470.34 8.5.53-3.8-7.62z" fill="#37b34a"/><circle cx="470.94" cy="494.63" fill="#e63d31" r="3.44"/><circle cx="468.27" cy="487.04" fill="#e63d31" r="3.44"/><circle cx="475.36" cy="488.79" fill="#e63d31" r="3.44"/><path d="m467.33 491.62-8.45-.98 3.38 7.81z" fill="#37b34a"/><path d="m470.92 447.83c5 1.39 10 2.87 15 4.19 1.87.49 3.75.92 5.61 1.39h.16c11.48 1 23.05 3.83 34.26 6.34l2.77.65c1.32-11 2.87-21.93 3.65-32.61a273.18 273.18 0 0 1 9-51.57c.73-2.71 1.45-5.52 2.3-8.27l-85.19-8.42a39.63 39.63 0 0 1 2 14.54c-1.29 23.21-1.49 46.62-5 69.65 5.28 1.28 10.52 2.72 15.44 4.11z" fill="#dce0e3"/><path d="m449.73 377.27-10.5 78.3 101.13 11.83 13.04-78.15-24.43-3.12-6.73 57.31-60.79-5.25 9.17-55.46z" fill="#472966" stroke="#d4c1de" stroke-miterlimit="10" stroke-width="1.88"/><path d="m537.33 427.19 5.87-.48-5.59 1.86 2.27 5.43-3.5-4.74-4.47 3.84 3.44-4.79-5.03-3.07 5.61 1.79 1.36-5.73z" fill="#833b8a"/><circle cx="536.44" cy="428" fill="#833b8a" r="2.32"/><path d="m535.42 441 5.9.13-5.76 1.27 1.7 5.64-2.98-5.08-4.84 3.36 3.9-4.41-4.69-3.56 5.4 2.35 1.94-5.56z" fill="#833b8a"/><circle cx="534.46" cy="441.72" fill="#833b8a" r="2.32"/><path d="m488.39 460.26-17.39-2.04 3.64-18.16 16.35 1.61z" fill="#833b8a"/><path d="m509.15 462.86-19.03-2.01 2.83-19.07 18.44 1.69z" fill="#833b8a"/><path d="m467.9 395.32 24 44.56 35.5-39.46z" fill="#8f9e9b"/><path d="m522.24 443.43 18.12 23.97" fill="#472966" stroke="#d4c1de" stroke-miterlimit="10" stroke-width="1.88"/><path d="m486.74 394.54a11.56 11.56 0 0 0 -3.64 17.21c1.7 2.21 4.77 3.81 7.27 2.57a6.78 6.78 0 0 0 2.65-2.81 18 18 0 0 0 2.25-11.28 17.77 17.77 0 0 0 1.54 11.88c1.07 2.05 2.86 4.06 5.17 4.1 2.92.05 4.91-3 5.67-5.83a20.93 20.93 0 0 0 -1.63-15" fill="#404041"/><path d="m458.65 397.35 5.87-.47-5.59 1.85 2.27 5.44-3.49-4.75-4.47 3.84 3.43-4.79-5.03-3.06 5.61 1.78 1.36-5.73z" fill="#833b8a"/><circle cx="457.76" cy="398.17" fill="#833b8a" r="2.32"/><path d="m480.71 521.85c2.36-16.21 8.88-67.76 11.41-84 3.83-24.45 8.67-49.34 14.85-73.57l-62.85-6.21-25.49 156.3" opacity=".14"/><path d="m590.26 190.39c-.12-.28-.21-.55-.32-.82l-43 11.2-19.5-21.77a146.39 146.39 0 0 1 -15.12-6.58l-1.13-.56c-2.82.24-6.45 1-7.47 1.08-10.14 1.12-20.59 1-30.1-3.17a38.35 38.35 0 0 1 -8-4.8c-2 .6-4 1.15-6.09 1.61a54 54 0 0 1 -8.37 1.26l-1.46 10-42.84 50.75-.37 59.53 41.64 69.32 64.22 23.13 77.55-18.57 31.48-86.16 9.55-27.51 6.3-8c-21.81-7.44-38-28.33-46.97-49.94z" fill="#fff"/><path d="m653.38 317.61c0-26.17-23.94-55.54-23.94-55.54 7-6.93 12.95-13.32 18.08-19.21a55 55 0 0 1 -19.06-6.32 41.14 41.14 0 0 1 -4.12 2.3s-.9-2.57-2.62-6.55c-14.06-10.08-24.77-25.82-31.46-41.9a27 27 0 0 1 -1.87-7.12c-3.4.81-5.34 1.42-5.34 1.42a75.15 75.15 0 0 0 -4.63-6.78 30.79 30.79 0 0 1 -17.58 6.69c-17.76.65-32.86-4.35-48.52-12.14l-1.13-.56c-2.82.24-6.45 1-7.47 1.08-10.14 1.12-20.59 1-30.1-3.17a38.35 38.35 0 0 1 -8-4.8c-2 .6-4 1.15-6.09 1.61-7.4 1.68-14.55 1.95-21.22-.19-.16.27-.31.54-.47.8h.42l-15.86 33.46a63.33 63.33 0 0 0 -35.33 11.82c4-1.34 15.37 2.21 15.37 2.21-32.44 9.55-43.18 35.28-43.18 35.28a17.28 17.28 0 0 1 12.82-4.45c-26.59 31.52-3.59 50.94-3.59 50.94-.65-2.2 2-12.26 2-12.26-.15 30.08 18.59 57.39 18.59 57.39-.69-3.76 1-21.65 1-21.65 0 20.42 18.3 40.77 18.3 40.77-1.95-3.26-1.2-21.11-1.2-21.11 5 17 13.14 27.58 19 33.41.41.4.8.77 1.19 1.13 49.17 47.23 134.86 23.29 134.86 23.29a73.46 73.46 0 0 1 -32.47 16.28c62.43 2.27 81.75-36.23 81.75-36.23-2.61 9.86-15.45 29.62-15.45 29.62 28-15.65 39.33-61.51 40.81-68 2.8 8.82-2.43 26.61-2.43 26.61 26.85-27.68.6-82.61.6-82.61 8.43 7.87 18.34 34.48 18.34 34.48zm-187.46-79.13c9.49-23.6 39-51.38 58.57-43.54s21.63 48.36 12.14 72-33.11 31.61-52.63 23.76-27.57-28.61-18.08-52.22zm170.62 99.77-.58-.13c.09-.53.13-.82.13-.82a9.23 9.23 0 0 1 .45.95z" fill="#e63d31"/><path d="m521.7 353.1c-25.56 5.81-54.07-1.08-84.88-20.54a1.39 1.39 0 0 1 1.48-2.35c32.91 20.79 63 27 89.51 18.32 41.21-13.42 59.55-58.64 59.73-59.09a1.39 1.39 0 0 1 2.58 1c-.19.47-19 46.88-61.45 60.71q-3.45 1.15-6.97 1.95z" fill="#fff"/><path d="m604.29 297.6s-.44-39.4-28.93-15.51c0 0 23.9-15.77 28 21.47" fill="#fff"/><path d="m449.38 268.81c14.64 10.58-25.5 12.9-25.5 12.9s-5.73-13.49-5.64-24.19 16.5.71 31.14 11.29z" fill="#fff"/><ellipse cx="504.93" cy="266.02" fill="#e63d31" rx="13.47" ry="5.73" transform="matrix(.19765734 -.98027117 .98027117 .19765734 144.39 708.43)"/><ellipse cx="448.97" cy="245.33" fill="#fff" rx="13.47" ry="5.73" transform="matrix(.19765734 -.98027117 .98027117 .19765734 119.77 636.98)"/><path d="m381.35 119s99.95 37.81 347.53 140.5c0-.04-188.41 62.88-347.53-140.5z" fill="#f0dad7"/><ellipse cx="659.7" cy="206.17" fill="#8e1920" rx="51.48" ry="59.87" transform="matrix(.22239939 -.97495565 .97495565 .22239939 312.01 803.51)"/><ellipse cx="644.5" cy="161.68" fill="#c12026" rx="46.91" ry="54.5" transform="matrix(.31763566 -.94821284 .94821284 .31763566 286.45 721.43)"/><ellipse cx="514.49" cy="82.43" fill="#d92a36" rx="45.92" ry="53.35" transform="matrix(.32 -.95 .95 .32 272.89 544.08)"/><ellipse cx="589.49" cy="107.49" fill="#8e1920" rx="62.38" ry="72.55" transform="matrix(.22239939 -.97495565 .97495565 .22239939 353.62 658.32)"/><ellipse cx="471.98" cy="128.61" fill="#a41e25" rx="45.92" ry="53.35" transform="matrix(.31763566 -.94821284 .94821284 .31763566 200.09 535.29)"/><ellipse cx="515.22" cy="141.43" fill="#c12026" rx="62.38" ry="72.55" transform="matrix(.22239939 -.97495565 .97495565 .22239939 262.77 612.31)"/><path d="m422.4 200.69s86 94.79 210.21 66.43c0 0-101.52-4.59-199.2-87.8 0 0-6.26 11.68-11.01 21.37z" opacity=".14"/><path d="m616.06 325.53c85.73 11.88 112.82-66.07 112.82-66.07-225.14 48.25-347.53-140.46-347.53-140.46s6 79.26 47.86 103" fill="none" stroke="#696469" stroke-linecap="round" stroke-linejoin="round" stroke-width="7.5"/><path d="m637.16 288.11a73 73 0 0 1 -22.44 3.17c-.24.84-.49 1.69-.79 2.53-4.08 11.27-10.09 21.8-16.51 31.89-2.28 3.59-4.44 7.22-6.6 10.87v.09c-.93 4.75-1 3.83-.73 1.16l-.21.35c-2.5 11.72-8.21 21.46-16.68 27.84a70.55 70.55 0 0 1 8.34 12.93 84 84 0 0 1 24.27-3.75 100.92 100.92 0 0 1 17.19 1.53 164.41 164.41 0 0 0 13.91-37.57c2.8 8.82-2.43 26.61-2.43 26.61 21.94-22.65 8.35-63.54 2.68-77.65zm-1.2 50c.09-.53.13-.82.13-.82a9.23 9.23 0 0 1 .45.95z" fill="#e63d31"/><path d="m644.43 285.69c-1.89.7-3.77 1.36-5.65 1.95 7.37 10.54 14.6 30 14.6 30 .01-10.9-4.12-22.31-8.95-31.95z" fill="#e63d31"/><path d="m429.8 212.38a41.3 41.3 0 0 1 -11.28-11.46 62.87 62.87 0 0 0 -31.45 11.59c4-1.34 15.37 2.21 15.37 2.21a72 72 0 0 0 -27.95 15.4c.92.58 1.82 1.18 2.7 1.79.71.58 1.41 1.19 2.11 1.78l1.45.35.85.11a128.1 128.1 0 0 0 16.23 1.46c1.85 0 3.69 0 5.54-.05l.58-.13c2.77-.61 5.6-1 8.37-1.64 1.4-.33 2.78-.71 4.15-1.13q4.39-1.36-3.24 1.24c3.55.25 10.49-4.79 13.48-6.54 1.36-.81 2.68-1.7 4-2.58.47-.37 1.1-.89 1.95-1.6a46.4 46.4 0 0 0 4-4.17 42.71 42.71 0 0 1 -6.86-6.63z" fill="#e63d31"/><ellipse cx="590.3" cy="196.48" fill="#a41e25" rx="46.91" ry="54.5" transform="matrix(.31763566 -.94821284 .94821284 .31763566 216.47 693.78)"/><path d="m439.23 455.57 22.22-17.37" fill="#472966" stroke="#d4c1de" stroke-miterlimit="10" stroke-width="1.88"/><path d="m489.21 460.41 3.01-20.04" fill="#472966" stroke="#d4c1de" stroke-miterlimit="10" stroke-width="1.88"/><path d="m510.06 463.23 2.34-21.02" fill="#472966" stroke="#d4c1de" stroke-miterlimit="10" stroke-width="1.88"/><path d="m469.85 459.03 4.17-20.55" fill="#472966" stroke="#d4c1de" stroke-miterlimit="10" stroke-width="1.88"/><path d="m464.5 413.17-18.78-3.89" fill="#472966" stroke="#d4c1de" stroke-miterlimit="10" stroke-width="1.88"/><path d="m453.78 419.68 5.87-.47-5.59 1.85 2.27 5.44-3.49-4.75-4.47 3.84 3.43-4.79-5.03-3.06 5.61 1.78 1.36-5.73z" fill="#833b8a"/><circle cx="452.89" cy="420.5" fill="#833b8a" r="2.32"/><path d="m451.88 433.5 5.89.12-5.76 1.27 1.71 5.65-2.99-5.08-4.84 3.36 3.91-4.41-4.7-3.57 5.4 2.36 1.94-5.57z" fill="#833b8a"/><circle cx="450.91" cy="434.21" fill="#833b8a" r="2.32"/><path d="m481.36 449.63 5.89.12-5.75 1.28 1.7 5.64-2.99-5.08-4.84 3.36 3.9-4.41-4.69-3.56 5.41 2.35 1.93-5.57z" fill="#472966"/><circle cx="480.39" cy="450.35" fill="#472966" r="2.32"/><path d="m501.09 451.37 5.89.13-5.75 1.27 1.7 5.64-2.99-5.08-4.84 3.37 3.91-4.41-4.69-3.57 5.4 2.35 1.94-5.56z" fill="#472966"/><circle cx="500.13" cy="452.09" fill="#472966" r="2.32"/><circle cx="461.98" cy="449.05" fill="#833b8a" r="3.63"/><circle cx="520.61" cy="456.1" fill="#833b8a" r="3.63"/><circle cx="470.81" cy="426.96" fill="#8f9e9b" r="3.04"/><circle cx="476.42" cy="431.03" fill="#8f9e9b" r="2.34"/><circle cx="477.22" cy="425.23" fill="#8f9e9b" r="2.1"/><circle cx="513.76" cy="431.31" fill="#8f9e9b" r="3.04"/><circle cx="506.94" cy="432.58" fill="#8f9e9b" r="2.34"/><circle cx="508.7" cy="426.99" fill="#8f9e9b" r="2.1"/><circle cx="527.23" cy="505.19" fill="#e63d31" r="3.44"/><circle cx="531.51" cy="512" fill="#e63d31" r="3.44"/><circle cx="524.2" cy="511.86" fill="#e63d31" r="3.44"/><path d="m531.41 507.33 8.46-.91-5.02-6.87z" fill="#37b34a"/><circle cx="499.93" cy="507.04" fill="#e63d31" r="3.44"/><circle cx="506.3" cy="502.13" fill="#e63d31" r="3.44"/><circle cx="506.86" cy="509.41" fill="#e63d31" r="3.44"/><path d="m501.67 502.67-1.72-8.34-6.36 5.66z" fill="#37b34a"/><circle cx="527.09" cy="479.15" fill="#e63d31" r="3.44"/><circle cx="530.17" cy="486.59" fill="#e63d31" r="3.44"/><circle cx="522.99" cy="485.22" fill="#e63d31" r="3.44"/><path d="m530.86 481.97 8.49.52-3.8-7.62z" fill="#37b34a"/><circle cx="501.55" cy="478.81" fill="#e63d31" r="3.44"/><circle cx="498.89" cy="471.22" fill="#e63d31" r="3.44"/><circle cx="505.98" cy="472.97" fill="#e63d31" r="3.44"/><path d="m497.95 475.8-8.46-.98 3.39 7.81z" fill="#37b34a"/><path d="m294.34 378.16c33-32.23 47.84-87.76 20.45-128.19-15-22.15-38.85-38-66.06-39.3-6.51-.31-13 1.07-19.56.41a12.73 12.73 0 0 1 -8.72-4.21c-3.33-3.74-4.72-9.34-7.33-14.45-10.91-21.42-25.51-41.69-48.32-51.42-14.71-6.29-30.77-7-46.3-3.52-75 16.72-129.68 145 9.88 240.36 50.45 34.46 117.85 47.35 165.96.32zm-137.55-77c-29 11.69-51.26 9.83-72-17.38-12.79-17.1-18.52-49.24-9.87-69.57 11.26-27.29 39.66-49.05 69.61-43 23.72 5 53.45 29.82 51.44 56l-34.87 72.6a21 21 0 0 0 -4.31 1.38zm-15.48 28.13 15.61-6.38.59 17.78c-14.79-6.33-16.2-11.37-16.2-11.37zm79.93 43.71c-33.6-6.62-45.11-25.78-47.44-56.94a20.76 20.76 0 0 0 -.68-4.42l49.71-63.37c22.6-13.37 58 2.34 73 21.39 18.67 24.19 11.7 59.28-7.8 81.44-14.44 16.79-45.8 25.9-66.79 21.9z" fill="#e18c25"/><path d="m119.26 144.21c15.53-3.47 31.59-2.77 46.29 3.52 22.82 9.75 37.42 30 48.33 51.44 2.61 5.11 4 10.71 7.33 14.45a12.73 12.73 0 0 0 8.72 4.21c6.53.66 13-.72 19.56-.41 27.21 1.26 51.05 17.15 66.06 39.3a82.5 82.5 0 0 1 13.26 34.28 83.4 83.4 0 0 0 -14-41c-15-22.15-38.85-38-66.06-39.3-6.51-.31-13 1.07-19.56.41a12.73 12.73 0 0 1 -8.72-4.21c-3.33-3.74-4.72-9.34-7.33-14.45-10.93-21.45-25.53-41.72-48.34-51.45-14.71-6.29-30.77-7-46.3-3.52-45.5 10.13-83.6 61.45-75.19 121.52-4.78-57.13 32.12-105 75.95-114.79z" fill="#cb7029"/><path d="m200.48 222.69s-73.82 21.48-41.62 89.51l36.65-58.92z" fill="#e18c25"/><path d="m230.81 241.55s13.35 75.71-61.9 76.9l36.65-58.92z" fill="#e18c25"/><path d="m176.9 294.57s-24.79 92.17 21.78 72.12c21.74-9.36-1.05-47.75-5.57-53.42l8.08-17.5" fill="#e18c25"/><path d="m163.7 315.09s-17.92 62.81 35 51.6c-.02 0-44.17 10.72-35-51.6z" fill="#c0772a"/><path d="m172.68 291.94s-71.72 63-74.32 12.34c-1.22-23.63 43.29-20.17 50.38-18.61l12.12-15" fill="#e18c25"/><path d="m160.1 312.85s-48.42 43.84-61.74-8.57c0 0 9.89 44.35 61.74 8.57z" fill="#c0772a"/><path d="m148.74 285.67s43.17 12.57 55.67-36c0 0-16.6 41.63-53.59 33.45" fill="#c0772a"/><g fill="#cb7029"><ellipse cx="120.85" cy="352.8" rx="3.11" ry="4.97" transform="matrix(.52814196 -.8491561 .8491561 .52814196 -242.55 269.07)"/><ellipse cx="54.68" cy="249.65" rx="3.11" ry="4.97" transform="matrix(.52814196 -.8491561 .8491561 .52814196 -186.18 164.21)"/><ellipse cx="172.25" cy="260.77" rx="3.11" ry="4.97" transform="matrix(.52814196 -.8491561 .8491561 .52814196 -140.15 269.29)"/><ellipse cx="289.96" cy="246.3" rx="3.11" ry="4.97" transform="matrix(.52814196 -.8491561 .8491561 .52814196 -72.34 362.41)"/><ellipse cx="159.83" cy="165.36" rx="3.11" ry="4.97" transform="matrix(.52814196 -.8491561 .8491561 .52814196 -65 213.73)"/><ellipse cx="103.62" cy="166.1" rx="3.11" ry="4.97" transform="matrix(.52814196 -.8491561 .8491561 .52814196 -92.15 166.35)"/><ellipse cx="188.16" cy="332.68" rx="3.11" ry="4.97" transform="matrix(.52814196 -.8491561 .8491561 .52814196 -193.71 316.72)"/><ellipse cx="232.2" cy="225.22" rx="3.14" ry="2.41" transform="matrix(.52814196 -.8491561 .8491561 .52814196 -81.69 303.42)"/><ellipse cx="202.75" cy="293.95" rx="3.14" ry="2.41" transform="matrix(.53 -.85 .85 .53 -153.94 310.84)"/><ellipse cx="130.89" cy="310.44" rx="3.14" ry="2.41" transform="matrix(.52814196 -.8491561 .8491561 .52814196 -201.85 257.61)"/><ellipse cx="53.2" cy="226.24" rx="3.14" ry="2.41" transform="matrix(.52814196 -.8491561 .8491561 .52814196 -167 151.91)"/><ellipse cx="90.4" cy="317.07" rx="3.14" ry="2.41" transform="matrix(.52814196 -.8491561 .8491561 .52814196 -226.57 226.35)"/><ellipse cx="65.56" cy="296.68" rx="3.14" ry="2.41" transform="matrix(.52814196 -.8491561 .8491561 .52814196 -220.98 195.64)"/><ellipse cx="205.14" cy="387.2" rx="3.14" ry="2.41" transform="matrix(.52814196 -.8491561 .8491561 .52814196 -231.99 356.87)"/><ellipse cx="174.09" cy="385.92" rx="3.14" ry="2.41" transform="matrix(.52814196 -.8491561 .8491561 .52814196 -245.56 329.9)"/><ellipse cx="310.12" cy="333.45" rx="3.14" ry="2.41" transform="matrix(.52814196 -.8491561 .8491561 .52814196 -136.83 420.65)"/><ellipse cx="258.22" cy="395.16" rx="3.14" ry="2.41" transform="matrix(.53 -.85 .85 .53 -213.71 405.69)"/></g></svg>