<svg xmlns="http://www.w3.org/2000/svg" viewBox="0 0 904.41 790.68"><defs><style>.cls-1{isolation:isolate;}.cls-2{fill:#e63d31;}.cls-3{fill:#f7931e;}.cls-4{fill:#666;}.cls-5,.cls-7{opacity:0.1;}.cls-11,.cls-5,.cls-7{mix-blend-mode:multiply;}.cls-6{fill:#2c72b8;}.cls-10,.cls-7{fill:#fff;}.cls-8{fill:#83d2f4;}.cls-9{fill:#29a9e1;}.cls-11{opacity:0.24;}.cls-12{fill:#122f49;}.cls-13{fill:#080708;}.cls-14{fill:#3a3a3a;}.cls-15{fill:#4d4d4d;}.cls-16{fill:#b3b3b3;}.cls-17{fill:#ae1f23;}.cls-18{fill:#ec2024;}.cls-19{fill:#016937;}.cls-20{fill:#8bc540;}.cls-21{fill:#999;}.cls-22{fill:#e6e6e6;}</style></defs><title>Artboard 120</title><g class="cls-1"><g id="Layer_1" data-name="Layer 1"><path class="cls-2" d="M277.33,381.14c-6.87-11-31.86,1.37-42.43,6.71-3.11,3.8-6.23,7.59-9.65,11.08l6.54-2.59C241.2,401.41,286.38,396.79,277.33,381.14Z"/><rect class="cls-3" x="333.7" y="377.18" width="238.54" height="91.11"/><path class="cls-4" d="M572.17,522.38H550.78V377.18h21.39Z"/><ellipse class="cls-5" cx="539.43" cy="738.14" rx="325.94" ry="12.19"/><path class="cls-6" d="M541.59,391.88c-23.57-3.18-49.71-10.3-77.81-23.52l5.73-12.19c125.28,58.91,210.43-7.84,211.27-8.52l8.46,10.5c-.94.75-23.53,18.71-62.75,29A219,219,0,0,1,541.59,391.88Z"/><polygon class="cls-4" points="344.94 733.6 422.19 538.26 406.67 532.13 327 733.6 344.94 733.6"/><polygon class="cls-4" points="421.13 733.6 341.45 532.13 325.94 538.26 403.19 733.6 421.13 733.6"/><polygon class="cls-4" points="475.65 733.6 552.91 538.26 537.39 532.13 457.72 733.6 475.65 733.6"/><polygon class="cls-4" points="551.85 733.6 472.17 532.13 456.66 538.26 533.91 733.6 551.85 733.6"/><rect class="cls-3" x="312.3" y="522.38" width="259.93" height="25.63"/><rect class="cls-7" x="473.7" y="522.38" width="98.54" height="25.63"/><rect class="cls-4" x="312.3" y="377.18" width="21.39" height="145.2"/><polygon class="cls-6" points="447.81 486.29 438.69 384.38 522.66 378.53 530.06 486.29 447.81 486.29"/><path class="cls-8" d="M494.87,440.32a6.1,6.1,0,1,1,6.1,6.1A6.11,6.11,0,0,1,494.87,440.32Zm2.73,0A3.37,3.37,0,1,0,501,437,3.37,3.37,0,0,0,497.6,440.32Z"/><path class="cls-8" d="M497.13,466.15a6.1,6.1,0,1,1,6.1,6.1A6.11,6.11,0,0,1,497.13,466.15Zm2.73,0a3.37,3.37,0,1,0,3.37-3.38A3.37,3.37,0,0,0,499.86,466.15Z"/><polygon class="cls-8" points="514.62 398.64 509.33 419.71 498.07 408.12 486.64 423.8 478.89 404.03 514.62 398.64"/><path class="cls-5" d="M504.64,486.29c-.12-.94-.22-1.89-.34-2.83-1.91-15.2-3.5-60.23-6.23-75.34-1.67-9.19-3.63-18.37-5.94-27.46l30.54-2.13,7.39,107.76Z"/><path class="cls-9" d="M516.73,200.1c-.29-.07-.58-.13-.88-.18,1.41-.17,3.37-.33,6.06-.42-1.44.05-2.92.43-4.37.56h-.17l.12-.19c-.25.09-.5.15-.74.22Z"/><path class="cls-6" d="M389.21,423.47c23.16-5.44,48.49-15.05,75.19-30.91L457.52,381c-119,70.7-210.2,12.45-211.11,11.86L239,404.1c1,.66,25.23,16.36,65.25,22.8A219,219,0,0,0,389.21,423.47Z"/><path class="cls-5" d="M524.2,401s-46.47,32.62-82,22.27l-3.48-12Z"/><polygon class="cls-10" points="457.63 384.65 362.78 362.32 323.9 257.16 312.09 223.59 265.44 165.1 282.26 145.75 343.92 146.92 414.54 165.02 484.35 86.53 519.72 46.84 533.25 136.57 585.84 198.4 586.58 271.15 536.01 356.08 457.63 384.65"/><path class="cls-2" d="M644.14,224.32s-13.28-31.43-52.95-42.95c0,0,13.9-4.39,18.78-2.77,0,0-17-13.59-43.25-14.28L547.17,123.5l19.65.08s-3.24-6.63-23.45-10.78c5.09-27.11-14.5-68.1-14.5-68.1-58.72,11.82-70.08,47.72-72.2,58.57-13.6,4.46-30.1,11.55-49.62,22.64,0,0,8.92-14.91,21.84-21,0,0-36.57,3.84-58.59,40.6,0,0-67.54-20.93-115.72,11.6,0,0,3.5,28.25,59.39,83.2,0,0-29.14,36-29,68,0,0,12-32.59,22.25-42.2,0,0-31.82,67.26,1.13,101,0,0-7.51-25.15-2.16-34.77,0,0,3.77,24.38,15.47,43.12l-1.42-.4a24.6,24.6,0,0,1,4,3.1c.1.11.18.21.28.31a65.2,65.2,0,0,1,10.88.64c-3.65-7.08-6.7-15-5.85-20.43a227.56,227.56,0,0,0,14.58,22.46c1.44.43,2.9.83,4.33,1.37,8.79,3.35,17.18,7.07,25.53,11.2,4.28-.1,8.56-.2,12.83-.27,21,2.73,35,5.88,57.44,5.11,20.53-.7,40.81-.87,61.33-.41,9.88.22,16.34-3.62,26.74-6.74,14.18-4.26,21.67-12.13.77,3.37a88.65,88.65,0,0,1,17.71-10.2l-.26-.1h0c1.19-.72,2.39-1.46,3.6-2.23a49.38,49.38,0,0,0,8.74-7.19c7.18-7.14,17.11-20.1,23.12-40.92,0,0,1,21.81-1.38,25.81,0,0,22.26-25,22.18-49.91,0,0,2.19,21.85,1.35,26.45,0,0,22.78-33.47,22.45-70.24,0,0,3.26,12.29,2.48,15,0,0,28-23.84-4.64-62.24A21.12,21.12,0,0,1,644.14,224.32Zm-324-12.4C297,201.1,278,166.54,278,166.54c24.25-16.79,68.68-.88,68.68-.88C329.71,184,320.1,211.92,320.1,211.92Zm171.77,62.7c-23.83,9.69-52.73,0-64.44-28.82s-9.33-78.33,14.5-88,60.08,24.13,71.79,52.94S515.7,264.94,491.87,274.62ZM525.8,122s-35.33-15.5-47.92-16.85c-5.43-.59,7.82-30.07,39.87-40.55C517.75,64.56,536.46,102.8,525.8,122Z"/><path class="cls-2" d="M305,333.6S318.5,397,355.46,417.49c0,0-15.79-24.09-19-36.13,0,0,23.8,47,100.08,43.89a89.87,89.87,0,0,1-39.76-19.75s104.85,28.85,164.72-29.1l-142-6.27s-73.29-45.34-74.78-45.2S305,333.6,305,333.6Z"/><path class="cls-10" d="M446.09,351.07c31.26,7,66.08-1.58,103.64-25.51a1.69,1.69,0,1,0-1.82-2.86c-40.13,25.56-76.91,33.24-109.32,22.82-50.42-16.22-73-71.39-73.27-71.94a1.7,1.7,0,0,0-3.15,1.26c.23.57,23.46,57.21,75.38,73.91C440.37,349.65,443.22,350.43,446.09,351.07Z"/><path class="cls-10" d="M344.89,283.63s.35-48.15,35.28-19.09c0,0-29.29-19.16-34.15,26.37"/><path class="cls-10" d="M534.08,247.72c-17.84,13,31.22,15.63,31.22,15.63s6.94-16.51,6.78-29.58S551.93,234.71,534.08,247.72Z"/><ellipse class="cls-2" cx="503.06" cy="225.49" rx="7" ry="16.46" transform="translate(-35.11 105.93) rotate(-11.62)"/><ellipse class="cls-10" cx="543.51" cy="217.18" rx="7" ry="16.46" transform="translate(-32.6 113.91) rotate(-11.62)"/><path class="cls-6" d="M433.72,94.07S388.53,65.82,359,93.78s7.19,49,7.19,49S415.85,159.43,433.72,94.07Z"/><path class="cls-11" d="M359,93.78c29.49-28,74.68.29,74.68.29a112.21,112.21,0,0,1-5,14.57C421.38,100.39,401.09,84.3,359,93.78Z"/><path class="cls-8" d="M367,162.88s83.57-15.55,91.59-72.14L434,83.13s-24.37,55.26-67.75,59.66Z"/><rect class="cls-6" x="443.32" y="83.27" width="1.57" height="22.47" transform="translate(223.03 491.09) rotate(-72.88)"/><rect class="cls-6" x="439.26" y="91.75" width="1.57" height="22.46" transform="translate(179.04 471.92) rotate(-67.89)"/><rect class="cls-6" x="433.16" y="100.2" width="1.57" height="22.47" transform="translate(118.08 429.17) rotate(-59.57)"/><rect class="cls-6" x="426.84" y="108.4" width="1.57" height="22.47" transform="translate(82 398.41) rotate(-54.52)"/><rect class="cls-6" x="417.85" y="117.88" width="1.57" height="20.15" transform="translate(54.87 371.47) rotate(-50.79)"/><rect class="cls-6" x="407.91" y="126.86" width="1.57" height="16.56" transform="translate(21.74 323.71) rotate(-44.28)"/><rect class="cls-6" x="399.59" y="134.41" width="1.57" height="14.74" transform="translate(-2.59 276) rotate(-37.92)"/><rect class="cls-6" x="387.99" y="139.55" width="1.57" height="14.74" transform="translate(-23.47 199.68) rotate(-27.99)"/><rect class="cls-6" x="374.64" y="144.34" width="1.57" height="14.74" transform="translate(-23.81 84.08) rotate(-12.39)"/><path class="cls-12" d="M447.82,486.29l.26,3.31a35.67,35.67,0,0,0,35.55,32.78h51.1l-4.67-36.09Z"/><path class="cls-12" d="M666.47,727.66l-9-.94q.46-4.31.76-8.61a303.06,303.06,0,0,0-3.59-69.66,197.07,197.07,0,0,0-18.62-58,179.5,179.5,0,0,0-72-74.28,167.24,167.24,0,0,0-49-18l1.75-8.91a176.38,176.38,0,0,1,51.67,19,188.54,188.54,0,0,1,75.68,78.07A206.24,206.24,0,0,1,663.57,647a312.16,312.16,0,0,1,3.69,71.75Q666.93,723.22,666.47,727.66Z"/><path class="cls-13" d="M667.27,725.67s8,12.68,27.27,12.68l.53,3.94s-24.71,2-32.16-9.88l.52,9-8.25-.86,2.59-16.33Z"/><rect class="cls-14" x="690.85" y="358.56" width="16.14" height="375.04"/><polygon class="cls-4" points="627.14 733.6 704.1 347.01 684.39 347.01 612.56 733.6 627.14 733.6"/><polygon class="cls-4" points="786.43 733.6 714.6 347.01 694.89 347.01 771.85 733.6 786.43 733.6"/><rect class="cls-15" x="643.24" y="328" width="101.11" height="51.7"/><path class="cls-4" d="M568.93,186.64,615,184l3.73,64.17-46.11,2.67c-11.31.66-21.32-13.17-22.35-30.89S557.61,187.3,568.93,186.64Z"/><path class="cls-11" d="M617.14,220.28l1.62,27.86-46.11,2.67c-10.4.61-19.68-11-21.92-26.67Z"/><path class="cls-16" d="M779.48,324.63l-182,10.57S573.61,274,588.14,173.54L770.1,163S777,180.76,779.48,324.63Z"/><path class="cls-11" d="M793.13,285.24c.32,11.72.6,24.54.85,38.55L597.53,335.2s-5.25-13.44-9.34-38.06Z"/><path class="cls-15" d="M721.41,165.79l-47.84,2.77c-19.18,54.36-16,109.92,9.38,161.69l47.85-2.77C705.45,275.7,702.23,220.14,721.41,165.79Z"/><rect class="cls-15" x="728.09" y="181.57" width="71.16" height="42.12" rx="6.48" ry="6.48" transform="translate(1537.8 360.65) rotate(176.68)"/><rect class="cls-15" x="583.44" y="238.76" width="85.11" height="4.36" transform="translate(-12.91 36.68) rotate(-3.32)"/><rect class="cls-15" x="585.33" y="271.35" width="85.11" height="4.36" transform="translate(-14.8 36.85) rotate(-3.32)"/><rect class="cls-16" x="736.8" y="190.14" width="8.71" height="26.14" rx="4.36" ry="4.36" transform="translate(1492.84 363.12) rotate(176.68)"/><circle class="cls-11" cx="635.5" cy="256.73" r="9.17"/><path class="cls-17" d="M629.8,257.07a9.16,9.16,0,0,1,8-9.62v0l3.94-.23,0,.63a9.16,9.16,0,0,1,1,17l0,.63-3.94.23v0A9.16,9.16,0,0,1,629.8,257.07Z"/><circle class="cls-18" cx="642.48" cy="256.33" r="9.17"/><circle class="cls-11" cx="604.52" cy="258.53" r="9.17"/><path class="cls-19" d="M598.81,258.86a9.16,9.16,0,0,1,8-9.61v0l3.94-.23,0,.63a9.16,9.16,0,0,1,1,17l0,.63-3.94.23v0A9.16,9.16,0,0,1,598.81,258.86Z"/><circle class="cls-20" cx="611.49" cy="258.13" r="9.17"/><path class="cls-15" d="M632.31,240.73l1.39-.41c-11.29-38.79,6.42-69.1,6.6-69.4l-1.24-.74C638.87,170.48,620.84,201.31,632.31,240.73Z"/><path class="cls-15" d="M614.86,241.74l1.39-.4c-11.28-38.79,6.43-69.1,6.61-69.41l-1.25-.74C621.43,171.5,603.39,202.32,614.86,241.74Z"/><ellipse class="cls-16" cx="825.03" cy="268.09" rx="43.87" ry="73.39" transform="translate(-14.15 48.27) rotate(-3.32)"/><path class="cls-15" d="M783.36,303.85c-7-8.52-11.32-20.11-12.05-32.64l1.58-.09-1.58.09c-.73-12.53,2.18-24.53,8.2-33.81s14.69-14.91,24.16-15.46,18.63,3.91,25.79,12.56,11.33,20.11,12,32.64-2.18,24.53-8.19,33.81-14.7,14.91-24.17,15.46c-.52,0-1,0-1.56,0C798.68,316.46,790.13,312,783.36,303.85Zm20.49-78.75c-8.44.49-16.14,5.47-21.69,14-5.65,8.71-8.38,20-7.69,31.9s4.71,22.8,11.33,30.8,14.73,11.91,23.17,11.42,16.14-5.47,21.69-14c5.65-8.71,8.38-20,7.69-31.9s-4.71-22.8-11.33-30.8c-6.15-7.43-13.84-11.46-21.8-11.46C804.77,225.06,804.31,225.07,803.85,225.1Z"/><path class="cls-4" d="M747.31,245.14l46.11-2.68,3.24,55.8-46.11,2.68c-11.31.65-21.21-11.3-22.11-26.71S736,245.8,747.31,245.14Z"/><path class="cls-11" d="M795.25,274l1.41,24.22-46.11,2.68c-10.4.6-19.59-9.45-21.71-23.05Z"/><ellipse class="cls-15" cx="791.61" cy="270.03" rx="20.95" ry="28.53" transform="translate(-14.32 46.33) rotate(-3.32)"/><path class="cls-4" d="M799.21,197.75v-.08L819,195c-19.43,8.14-39.82,40.39-37.77,75.65,2.14,36.93,27.21,66.86,48.75,70.68L807.52,341c-23.3-.48-43.58-30.77-45.81-69.18S776.12,200.93,799.21,197.75Z"/><path class="cls-11" d="M865.37,243c-20-3.56-51.72-2.18-84.14,27.64-2.35-40.47,15.35-74.41,39.54-75.81C840.23,193.7,858,214,865.37,243Z"/><ellipse class="cls-10" cx="808.3" cy="252.33" rx="6.09" ry="10.71" transform="translate(-13.27 47.27) rotate(-3.32)"/><path class="cls-12" d="M599.36,730.85l-9.05-.81c4.06-45.55,4.26-104.63-30.36-157.82l-2.83-2.83-.31-.55c-7.64-13.58-19-23.33-31-33.64l-.63-.55a140.08,140.08,0,0,0-30.72-19.29c-12.64-5.42-24.68-10.58-37.75-12l1-9c14.43,1.55,27.66,7.23,40.46,12.71A149.11,149.11,0,0,1,531,527.7l.71.61C544.18,539,556,549.15,564.41,563.84l2.88,3C603.7,622.49,603.55,683.72,599.36,730.85Z"/><path class="cls-13" d="M600,725.67s8,12.68,27.27,12.68l.54,3.94s-24.72,2-32.16-9.88l.51,9-8.25-.86,2.59-16.33Z"/><path class="cls-21" d="M217.71,335.49l26,8.42A23.27,23.27,0,0,1,258,375.1l-22.6,53.53h0a23.27,23.27,0,0,1-30.85,12.24l-31.06-13.74,8.12-25.07,28.1,11.15A11.13,11.13,0,0,0,224,407.36l12-27a15.66,15.66,0,0,0-9.5-21.23l-21.09-6.83Z"/><path class="cls-22" d="M253.11,283.92c-5.43-1.41-84.39,219.93-84.39,219.93l-142.6-105L219.56,259.21Z"/><rect class="cls-4" x="-0.34" y="443.22" width="198.3" height="25.92" transform="translate(-92.22 882.05) rotate(-143.62)"/><rect class="cls-4" x="207.27" y="260.05" width="59.91" height="16.48" transform="translate(269.09 624.99) rotate(-143.62)"/><path class="cls-2" d="M204,402.17a56.71,56.71,0,0,0,16.48,30.46c2.56,2.44,5.87,4.78,9.32,4.06s5.51-4.14,5.74-7.51-1.08-6.65-2.62-9.67a62.18,62.18,0,0,0-22.31-24.29,198.21,198.21,0,0,0,21.62,10.32c6.37,2.58,13.49,4.83,20,2.57,3.38-1.17,6.53-4,6.74-7.53.23-4-3.17-7.24-6.54-9.4a48.23,48.23,0,0,0-39-5.67l15.91-1.33c5.88-.49,12-1.13,17.45-3.45,7.67-3.25,14.7-12.57,5-18.38-5.73-3.41-11.26-1.9-17.12.17a83.1,83.1,0,0,0-10.23,4.39c-2.8,1.43-6.82,3-8.77,5.57h0"/><polygon class="cls-7" points="119.28 467.43 253.11 276.17 172.09 494.43 119.28 467.43"/></g></g></svg>