<svg xmlns="http://www.w3.org/2000/svg" id="Layer_1" data-name="Layer 1" viewBox="0 0 28.84 26.6">
  <defs>
    <style>
      .cls-1{fill:#e93e32}
    </style>
  </defs>
  <rect width="3.06" height="3.66" x="8.25" y="2.31" class="cls-1" rx="1.03" ry="1.03"/>
  <rect width="3.06" height="3.66" x="17.53" y="2.31" class="cls-1" rx="1.03" ry="1.03"/>
  <path d="M24.1 5.39h-2.56a2 2 0 0 1-2 1.59h-1a2 2 0 0 1-2-1.59h-4.28a2 2 0 0 1-2 1.59h-1a2 2 0 0 1-2-1.59H4.75a2.07 2.07 0 0 0-2.08 2.07v14.75a2.07 2.07 0 0 0 2.07 2.07H24.1a2.07 2.07 0 0 0 2.07-2.07V7.46a2.07 2.07 0 0 0-2.07-2.07zm-.29 16.15H5.23V8.45h18.58z" class="cls-1"/>
  <path d="M7.18 11.71h2.5v2.5h-2.5zM11.27 11.71h2.5v2.5h-2.5zM15.26 11.71h2.5v2.5h-2.5zM19.35 11.71h2.5v2.5h-2.5zM7.18 15.78h2.5v2.5h-2.5zM11.27 15.78h2.5v2.5h-2.5zM15.26 15.78h2.5v2.5h-2.5zM19.35 15.78h2.5v2.5h-2.5z" class="cls-1"/>
</svg>
