<svg xmlns="http://www.w3.org/2000/svg" width="27" height="30" viewBox="0 0 27 30">
  <path fill="#E93E32" fill-rule="nonzero" d="M6.9797 17.477c0 .4297-.3438.7857-.7796.7857a.7795.7795 0 0 1-.5525-.2271.7795.7795 0 0 1-.2272-.5525c0-.4297.3438-.7857.7797-.7857.4235 0 .7796.3499.7796.7796zm.5218 3.898c-.307.307-.3008.7981 0 1.105.307.3008.8041.3008 1.105-.006.3069-.307.3007-.8043-.0062-1.105-.3008-.3009-.798-.3009-1.0988.006zm4.9908-9.4352c.4297 0 .7858-.3499.7858-.7857a.7834.7834 0 0 0-.7858-.7858.7834.7834 0 0 0-.7857.7858c0 .2148.086.4113.2271.5525.1473.1473.3438.2332.5586.2332zm-5.0215 1.639c.307.3009.8042.3009 1.105-.006l.006-.0062.0124-.0123a.778.778 0 0 0 0-1.105c-.307-.3069-.8042-.3069-1.105 0l-.0123.0123-.0123.0123c-.3008.3008-.3008.798.0062 1.105zm5.04 9.3985c-.436 0-.7797.3499-.7797.7857 0 .2149.086.4113.2272.5525.1411.1412.3376.2272.5586.2272.4297 0 .7796-.35.7796-.7858 0-.4297-.35-.7796-.7858-.7796zm3.898-1.6268c-.307.307-.307.8042 0 1.105.307.307.8042.307 1.105 0 .3069-.307.3007-.8042 0-1.1111-.307-.3008-.8042-.3008-1.105.0061zm2.388-4.6838a.7834.7834 0 0 0-.7858.7857c0 .2149.086.4113.2272.5525.1412.1412.3376.2333.5525.2271.4358 0 .7796-.3499.7857-.7857.0062-.4297-.3438-.7796-.7796-.7796zM12.5292 30C5.623 30 0 24.377 0 17.4708 0 11.062 4.8435 5.7643 11.062 5.0338v-1.897h-.7796c-.3929 0-.706-.3191-.706-.7059V.706c0-.3928.3192-.7059.706-.7059h4.4935c.393 0 .706.3192.706.706v1.725c0 .3928-.3192.7059-.706.7059h-.7796v1.8907c2.3634.2763 4.5243 1.2155 6.2984 2.6213l1.019-1.019-.092-.0921a.7077.7077 0 0 1 0-1.0007l1.3995-1.3996a.7077.7077 0 0 1 1.0007 0l2.2651 2.2652a.7077.7077 0 0 1 0 1.0006L24.4874 8.803a.7077.7077 0 0 1-1.0006 0l-.092-.092-1.0191 1.019c1.682 2.1301 2.6826 4.8189 2.6826 7.7348C25.0583 24.3769 19.4353 30 12.5292 30zm9.6193-12.5292c0-5.3038-4.3155-9.6194-9.6194-9.6194-5.3039 0-9.6194 4.3156-9.6194 9.6194 0 5.304 4.3094 9.6194 9.6194 9.6194 5.304 0 9.6194-4.3155 9.6194-9.6194zm-4.5856-5.0828c.2885.2885.307.755.043 1.062l-3.1921 3.7385c.0798.5831-.0983 1.1909-.5464 1.639-.755.755-1.9828.755-2.744 0-.755-.755-.755-1.9828 0-2.744.4481-.4481 1.0559-.6262 1.639-.5464l3.7385-3.1921c.313-.264.7734-.2456 1.062.043zm-4.512 4.518c-.3069-.3069-.8041-.3069-1.105 0-.3069.307-.3069.8043 0 1.105.307.307.8043.307 1.105 0a.778.778 0 0 0 0-1.105z"/>
</svg>
