<svg xmlns="http://www.w3.org/2000/svg" width="26" height="22" viewBox="0 0 26 22">
  <defs>
    <style>
      .confwall-twitter{fill:#B9E1F1}
    </style>
  </defs>
  <path class="confwall-twitter" fill-rule="nonzero" d="M24.8445 2.476a9.997 9.997 0 0 1-1.7407.587A5.4275 5.4275 0 0 0 24.5364.7814c.0797-.2493-.191-.465-.4162-.3314a10.0446 10.0446 0 0 1-2.6613 1.0994.6783.6783 0 0 1-.1663.0207.7054.7054 0 0 1-.466-.178 5.4427 5.4427 0 0 0-3.6012-1.359c-.5746 0-1.1548.0895-1.7244.2661-1.7648.5474-3.1265 2.0032-3.5537 3.7993-.1603.6737-.2037 1.348-.1291 2.0041a.1949.1949 0 0 1-.049.1527.2018.2018 0 0 1-.1695.0672c-3.8632-.359-7.3468-2.22-9.8092-5.2406-.1256-.154-.3664-.1351-.4664.0365a5.4382 5.4382 0 0 0-.737 2.7363c0 1.4755.5927 2.866 1.6224 3.8798a4.8775 4.8775 0 0 1-1.2414-.4807c-.1884-.1046-.4201.0299-.4227.2453-.027 2.192 1.2564 4.1425 3.1789 5.0208a4.8735 4.8735 0 0 1-1.0332-.0861c-.2121-.0405-.3903.1607-.3245.3663.624 1.9482 2.3015 3.3843 4.3088 3.7103-1.666 1.1183-3.606 1.7083-5.6253 1.7083l-.6294-.0004a.4168.4168 0 0 0-.4075.3143c-.0487.185.041.3802.2064.4764a14.9388 14.9388 0 0 0 7.5066 2.024c2.3073 0 4.4656-.4579 6.415-1.3608 1.787-.8279 3.3662-2.0112 4.6936-3.5172 1.2366-1.4029 2.2036-3.0224 2.874-4.8135.6391-1.7072.977-3.529.977-5.2682v-.0828c-.0001-.2793.1262-.542.3465-.721a10.7579 10.7579 0 0 0 2.1642-2.3753c.1584-.2369-.0914-.5338-.352-.4182z"/>
</svg>
