<svg xmlns="http://www.w3.org/2000/svg" viewBox="0 0 904.41 985.66"><defs><style>.cls-1{isolation:isolate;}.cls-2,.cls-8{fill:#fff;}.cls-3{fill:#e63d31;}.cls-4{fill:#f7931e;}.cls-5{fill:#666;}.cls-6,.cls-8{opacity:0.1;}.cls-11,.cls-6,.cls-8{mix-blend-mode:multiply;}.cls-7{fill:#2c72b8;}.cls-9{fill:#83d2f4;}.cls-10{fill:#29a9e1;}.cls-11{opacity:0.24;}.cls-12{fill:#122f49;}.cls-13{fill:#080708;}.cls-14{fill:#3a3a3a;}.cls-15{fill:#4d4d4d;}.cls-16{fill:#b3b3b3;}.cls-17{fill:#ae1f23;}.cls-18{fill:#ec2024;}.cls-19{fill:#016937;}.cls-20{fill:#8bc540;}.cls-21{fill:#999;}.cls-22{fill:#e6e6e6;}</style></defs><title>Artboard 120</title><g class="cls-1"><g id="Layer_1" data-name="Layer 1"><path class="cls-2" d="M745.39,901.75v2.75H725.1v12.32h19v2.75h-19V933h20.51v2.77H721.85V901.75Z"/><path class="cls-2" d="M362.17,908.55a9.93,9.93,0,0,0-2.35-2.59,10.81,10.81,0,0,0-3.13-1.61,11.32,11.32,0,0,0-3.58-.53,12.24,12.24,0,0,0-5.81,1.27,11.39,11.39,0,0,0-4,3.41,15.21,15.21,0,0,0-2.31,4.79,19.88,19.88,0,0,0-.74,5.47,20.09,20.09,0,0,0,.74,5.5,15.42,15.42,0,0,0,2.31,4.81,11.55,11.55,0,0,0,4,3.43,12.74,12.74,0,0,0,5.81,1.27,10.4,10.4,0,0,0,4.31-.86,9.64,9.64,0,0,0,3.28-2.33,10.47,10.47,0,0,0,2.26-3.47,13.75,13.75,0,0,0,1.1-4.28h3.25a19.17,19.17,0,0,1-1.49,5.68,13.33,13.33,0,0,1-3,4.32,12.1,12.1,0,0,1-4.26,2.71,15,15,0,0,1-5.45,1,16,16,0,0,1-7-1.48,14.29,14.29,0,0,1-5.06-3.88,18.11,18.11,0,0,1-3.05-5.64,25.54,25.54,0,0,1,0-13.44,19.2,19.2,0,0,1,3.05-5.69,14.43,14.43,0,0,1,5.06-3.89,16,16,0,0,1,7-1.45,16.17,16.17,0,0,1,4.77.71,13.27,13.27,0,0,1,4.2,2.11,12.59,12.59,0,0,1,3.11,3.47,11.55,11.55,0,0,1,1.62,4.74h-3.2A13.07,13.07,0,0,0,362.17,908.55Z"/><path class="cls-2" d="M383.39,912.07a17.81,17.81,0,0,1,3-5.69,14.39,14.39,0,0,1,5.05-3.89,17.74,17.74,0,0,1,14.05,0,14.35,14.35,0,0,1,4.94,3.89,15.4,15.4,0,0,1,3.06,5.69,23.76,23.76,0,0,1,0,13.44,14.67,14.67,0,0,1-3.06,5.64,14.2,14.2,0,0,1-4.94,3.88,17.41,17.41,0,0,1-14.05,0,14.25,14.25,0,0,1-5.05-3.88,16.86,16.86,0,0,1-3-5.64,23.76,23.76,0,0,1,0-13.44Zm3,12.19a13.76,13.76,0,0,0,2.27,4.81,11.45,11.45,0,0,0,4,3.43,12.43,12.43,0,0,0,5.82,1.27,12,12,0,0,0,5.68-1.27,11.21,11.21,0,0,0,4-3.43,13.27,13.27,0,0,0,2.28-4.81,20.09,20.09,0,0,0,.74-5.5,19.88,19.88,0,0,0-.74-5.47,13.11,13.11,0,0,0-2.28-4.79,11.06,11.06,0,0,0-4-3.41,11.5,11.5,0,0,0-5.68-1.27,12,12,0,0,0-5.82,1.27,11.3,11.3,0,0,0-4,3.41,13.59,13.59,0,0,0-2.27,4.79,18.2,18.2,0,0,0-.79,5.47A18.39,18.39,0,0,0,386.39,924.26Z"/><path class="cls-2" d="M435,901.75l19.87,28.83H455V901.75h3.29v34.06h-3.65L434.74,907h-.09v28.81h-3.2V901.75Z"/><path class="cls-2" d="M498.61,901.75v2.75H480.22v12.32h16.36v2.75H480.22v16.24H477V901.75Z"/><path class="cls-2" d="M538,901.75v2.75H517.83v12.32h19v2.75h-19V933h20.5v2.77H514.56V901.75Z"/><path class="cls-2" d="M570.34,901.75a17,17,0,0,1,4,.51,10.4,10.4,0,0,1,3.29,1.6,8,8,0,0,1,2.26,2.78,9,9,0,0,1,.83,4,9.19,9.19,0,0,1-1.71,5.63,7.65,7.65,0,0,1-4.91,3.08v.09a7.14,7.14,0,0,1,2.73.88,5.12,5.12,0,0,1,1.8,1.64,7.09,7.09,0,0,1,1,2.33,13.41,13.41,0,0,1,.36,2.83c.05.57.1,1.27.16,2.07s.07,1.7.12,2.53a17.55,17.55,0,0,0,.51,2.4,4,4,0,0,0,.83,1.72h-3.6a3.88,3.88,0,0,1-.41-1.15,13.32,13.32,0,0,1-.34-1.45,6.89,6.89,0,0,0-.1-1.43c0-.49,0-.9-.08-1.25-.08-1.22-.14-2.43-.31-3.6a10.23,10.23,0,0,0-.85-3.21,5.75,5.75,0,0,0-2-2.25,6.31,6.31,0,0,0-3.6-.79H558v15.13h-3.23V901.75Zm-.23,16.18a8.4,8.4,0,0,0,2.83-.46,7.58,7.58,0,0,0,2.4-1.29,6.73,6.73,0,0,0,1.52-2.1,5.54,5.54,0,0,0,.65-2.78,7,7,0,0,0-1.8-5,7.79,7.79,0,0,0-5.6-1.83H558v13.43Z"/><path class="cls-2" d="M622,901.75v2.75H601.77v12.32h19v2.75h-19V933h20.52v2.77H598.53V901.75Z"/><path class="cls-2" d="M642.36,901.75l19.83,28.83h.14V901.75h3.18v34.06H661.9L642.08,907h-.14v28.81h-3.23V901.75Z"/><path class="cls-2" d="M707.79,908.55a10.59,10.59,0,0,0-2.38-2.59,10.85,10.85,0,0,0-3.16-1.61,10.67,10.67,0,0,0-3.46-.53,12.34,12.34,0,0,0-5.88,1.27,11.76,11.76,0,0,0-4,3.41,13.53,13.53,0,0,0-2.24,4.79,18.2,18.2,0,0,0-.79,5.47,18.39,18.39,0,0,0,.79,5.5,13.71,13.71,0,0,0,2.24,4.81,11.92,11.92,0,0,0,4,3.43,12.83,12.83,0,0,0,5.88,1.27,10.44,10.44,0,0,0,4.29-.86,9.84,9.84,0,0,0,3.23-2.33,10.4,10.4,0,0,0,2.23-3.47,11.7,11.7,0,0,0,1.15-4.28h3.2a16.55,16.55,0,0,1-1.49,5.68,13.36,13.36,0,0,1-2.95,4.32,12.29,12.29,0,0,1-4.26,2.71,15.1,15.1,0,0,1-5.4,1,16,16,0,0,1-7.08-1.48,14,14,0,0,1-5-3.88,16.72,16.72,0,0,1-3-5.64,23.08,23.08,0,0,1,0-13.44,17.66,17.66,0,0,1,3-5.69,14.1,14.1,0,0,1,5-3.89,16,16,0,0,1,7.08-1.45,15.78,15.78,0,0,1,4.71.71,13.5,13.5,0,0,1,4.16,2.11,11.46,11.46,0,0,1,4.76,8.21h-3.18A11.65,11.65,0,0,0,707.79,908.55Z"/><path id="SMASHING" class="cls-2" d="M689.5,850.89a31.22,31.22,0,0,1,58.84-14.56l-11.55,3.73a19.4,19.4,0,1,0-1.26,23.37l-6.84,1.12-8.24-8.27,17.85-2.94,17.76-2.91-2.91,17.82-2.87,17.84L742,877.8l.79-4.86a31.21,31.21,0,0,1-53.29-22.05Zm-360.61,9.29a19.82,19.82,0,0,0,2.1,9.76,18,18,0,0,0,5.68,6.69,23.8,23.8,0,0,0,8.35,3.82,40.37,40.37,0,0,0,20.71-.12,24,24,0,0,0,7.95-4,16.35,16.35,0,0,0,4.82-6.24,18.66,18.66,0,0,0,1.6-7.73,15,15,0,0,0-2.16-8.38,17.12,17.12,0,0,0-5.14-5.26,21.92,21.92,0,0,0-6-2.82,41.47,41.47,0,0,0-4.73-1.28l-9.28-2.39a33.33,33.33,0,0,1-5.56-1.88,6.13,6.13,0,0,1-2.67-2,6.06,6.06,0,0,1-.65-2.94,6.26,6.26,0,0,1,.79-3.23,8.75,8.75,0,0,1,2.16-2.09,8.54,8.54,0,0,1,3-1.21,16.85,16.85,0,0,1,3.28-.38,22.53,22.53,0,0,1,4.55.47,12.28,12.28,0,0,1,3.79,1.43,8.21,8.21,0,0,1,2.48,2.82,10.7,10.7,0,0,1,1.21,4.54h13a18.44,18.44,0,0,0-2.08-9,17,17,0,0,0-5.35-6.13,22,22,0,0,0-7.91-3.43,35.7,35.7,0,0,0-9.11-1.11,30.12,30.12,0,0,0-8.13,1.11,22.6,22.6,0,0,0-7.34,3.43,17.24,17.24,0,0,0-5.28,5.78,15.71,15.71,0,0,0-1.93,8.09,15.4,15.4,0,0,0,1.48,7.17,15.87,15.87,0,0,0,4.2,4.88,22.29,22.29,0,0,0,5.79,3.22,64.33,64.33,0,0,0,6.64,2c2.26.65,4.44,1.23,6.56,1.75a44.22,44.22,0,0,1,5.79,1.74,12,12,0,0,1,4.1,2.58,5.32,5.32,0,0,1,1.57,4,6.16,6.16,0,0,1-1.11,3.86,11.48,11.48,0,0,1-3,2.31,14.86,14.86,0,0,1-3.85,1.13,27.61,27.61,0,0,1-3.83.23,21.29,21.29,0,0,1-5.13-.55,14,14,0,0,1-4.35-1.94,9.91,9.91,0,0,1-2.87-3.54,10.53,10.53,0,0,1-1.14-5.18ZM477.5,834.51l7.71,22.32h-15.8ZM448,879.64V819.49H429.1l-13.54,41.87-14.33-41.87H382.42v60.92H395l.18-42.72L410,880.41h10.35l15.11-43.17v43.17h25.64l4.82-13.55h22.75l4.65,13.55h13.87l-22.78-60.92H470.74Zm55-19.46a20.27,20.27,0,0,0,2.05,9.76,19,19,0,0,0,5.73,6.69,23.69,23.69,0,0,0,8.31,3.82,40.33,40.33,0,0,0,20.7-.12,22.85,22.85,0,0,0,8-4,17,17,0,0,0,4.89-6.24,18.19,18.19,0,0,0,1.58-7.73,14.62,14.62,0,0,0-2.21-8.38,16.65,16.65,0,0,0-5.09-5.26,21.58,21.58,0,0,0-6-2.82,36.69,36.69,0,0,0-4.67-1.28l-9.34-2.39a35.28,35.28,0,0,1-5.49-1.88,6.11,6.11,0,0,1-2.68-2,6.18,6.18,0,0,1-.65-2.94,5.9,5.9,0,0,1,.83-3.23A8,8,0,0,1,521,830a8.54,8.54,0,0,1,3-1.21,15.72,15.72,0,0,1,3.2-.38,22.08,22.08,0,0,1,4.55.47,10.41,10.41,0,0,1,3.68,1.43,6.71,6.71,0,0,1,2.54,2.82,9.32,9.32,0,0,1,1.24,4.54h12.95a17.9,17.9,0,0,0-2-9,16.65,16.65,0,0,0-5.36-6.13,22.18,22.18,0,0,0-7.86-3.43,36.75,36.75,0,0,0-9.15-1.11,30.56,30.56,0,0,0-8.13,1.11,21.63,21.63,0,0,0-7.35,3.43,17.45,17.45,0,0,0-5.28,5.78,17.68,17.68,0,0,0-.46,15.26,15.54,15.54,0,0,0,4.22,4.88,24,24,0,0,0,5.78,3.22,59.3,59.3,0,0,0,6.63,2c2.18.65,4.4,1.23,6.58,1.75a47.56,47.56,0,0,1,5.78,1.74,12.57,12.57,0,0,1,4.11,2.58,5.18,5.18,0,0,1,1.62,4,5.92,5.92,0,0,1-1.21,3.86,9.8,9.8,0,0,1-2.94,2.31,15.33,15.33,0,0,1-3.9,1.13,27.22,27.22,0,0,1-3.84.23,21,21,0,0,1-5.08-.55,13.33,13.33,0,0,1-4.3-1.94,10.33,10.33,0,0,1-3-3.54,10.88,10.88,0,0,1-1.1-5.18Zm53.49,20.23h13.4v-26.3h24.67v26.3h13.36V819.49H594.56v23.34H569.89V819.49h-13.4Zm57.53,0h13.41V819.49H614Zm19.5,0h12.57l.15-40.75,25.33,40.75h13.35V819.49H672.4l-.15,40.86-25.46-40.86H633.52Z"/><path class="cls-2" d="M305.78,908,282,805a15.56,15.56,0,0,0-18.62-11.66l-17.38,4c2,.34,4,.67,5.92,1.13a94,94,0,0,1,22.35,8l-9.92,26.83c-7.54-6.43-18.09-9.66-31.58-9.66-12,0-18.12,4.78-18.12,14.41,0,3.77,2,7.17,6,10.19S233,855.49,246,860.64c8.92,3.47,16,7.47,21.49,11.94a46.25,46.25,0,0,1,6.66,6.6c5.67,7.3,8.55,16.09,8.55,26.46q0,15-8.27,25.49l19.69-4.52A15.55,15.55,0,0,0,305.78,908Z"/><path class="cls-2" d="M217,881.38a94.62,94.62,0,0,1-18-9.6c-13.5-9.46-20.3-21-20.3-34.92,0-9.21,2.55-17,7.57-23.2.94-1.08,1.85-2.17,2.92-3.18l-28.8,6.69a15.48,15.48,0,0,0-11.63,18.61L172.6,938.71a15.47,15.47,0,0,0,18.57,11.6l11.84-2.7-1-.21c-5.88-1.58-13.39-4.88-22.82-9.88L191.53,910a54.83,54.83,0,0,0,35,12.32c13.54,0,20.25-4.81,20.25-14.38a17.77,17.77,0,0,0-6-13.85C236.64,890.52,228.7,886.29,217,881.38Z"/><path class="cls-3" d="M616,381.14c6.86-11,31.86,1.37,42.43,6.71,3.1,3.8,6.22,7.59,9.65,11.08l-6.55-2.59C652.13,401.41,607,396.79,616,381.14Z"/><rect class="cls-4" x="321.1" y="377.18" width="238.54" height="91.11" transform="translate(880.74 845.46) rotate(180)"/><path class="cls-5" d="M321.16,377.18h21.4v145.2h-21.4Z"/><ellipse class="cls-6" cx="353.91" cy="738.14" rx="325.94" ry="12.19"/><path class="cls-7" d="M351.75,391.88c23.56-3.18,49.71-10.3,77.81-23.52l-5.74-12.19c-125.27,58.91-210.42-7.84-211.27-8.52l-8.45,10.5c.94.75,23.53,18.71,62.75,29A218.94,218.94,0,0,0,351.75,391.88Z"/><polygon class="cls-5" points="548.4 733.6 471.15 538.26 486.66 532.13 566.34 733.6 548.4 733.6"/><polygon class="cls-5" points="472.21 733.6 551.88 532.13 567.39 538.26 490.15 733.6 472.21 733.6"/><polygon class="cls-5" points="417.68 733.6 340.43 538.26 355.94 532.13 435.62 733.6 417.68 733.6"/><polygon class="cls-5" points="341.49 733.6 421.17 532.13 436.68 538.26 359.43 733.6 341.49 733.6"/><rect class="cls-4" x="321.1" y="522.38" width="259.93" height="25.63" transform="translate(902.13 1070.39) rotate(180)"/><rect class="cls-8" x="321.1" y="522.38" width="98.54" height="25.63" transform="translate(740.74 1070.39) rotate(180)"/><rect class="cls-5" x="559.64" y="377.18" width="21.39" height="145.2" transform="translate(1140.67 899.55) rotate(180)"/><polygon class="cls-7" points="445.52 486.29 454.64 384.38 370.67 378.53 363.28 486.29 445.52 486.29"/><path class="cls-9" d="M392.37,446.42a6.1,6.1,0,1,1,6.1-6.1A6.11,6.11,0,0,1,392.37,446.42Zm0-9.47a3.37,3.37,0,1,0,3.37,3.37A3.37,3.37,0,0,0,392.37,437Z"/><path class="cls-9" d="M390.11,472.25a6.11,6.11,0,1,1,6.1-6.1A6.11,6.11,0,0,1,390.11,472.25Zm0-9.48a3.37,3.37,0,1,0,3.37,3.38A3.38,3.38,0,0,0,390.11,462.77Z"/><polygon class="cls-9" points="378.71 398.64 384.01 419.71 395.27 408.12 406.7 423.8 414.45 404.03 378.71 398.64"/><path class="cls-6" d="M388.7,486.29c.12-.94.22-1.89.34-2.83,1.91-15.2,3.49-60.23,6.23-75.34,1.66-9.19,3.63-18.37,5.94-27.46l-30.54-2.13-7.39,107.76Z"/><path class="cls-10" d="M376.6,200.1c.3-.07.59-.13.89-.18-1.41-.17-3.37-.33-6.06-.42,1.44.05,2.92.43,4.37.56H376l-.13-.19c.26.09.5.15.74.22Z"/><path class="cls-7" d="M504.12,423.47C481,418,455.63,408.42,428.94,392.56L435.82,381c119,70.7,210.2,12.45,211.11,11.86l7.4,11.26c-1,.66-25.22,16.36-65.24,22.8A219.1,219.1,0,0,1,504.12,423.47Z"/><path class="cls-6" d="M369.13,401s46.48,32.62,82,22.27l3.47-12Z"/><polygon class="cls-2" points="435.71 384.65 530.56 362.32 569.44 257.16 581.25 223.59 627.9 165.1 611.07 145.75 549.41 146.92 478.8 165.02 408.99 86.53 373.62 46.84 360.09 136.57 307.49 198.4 306.75 271.15 357.32 356.08 435.71 384.65"/><path class="cls-3" d="M264.89,218.94c-32.64,38.4-4.63,62.24-4.63,62.24-.78-2.69,2.48-15,2.48-15-.33,36.77,22.44,70.24,22.44,70.24-.83-4.6,1.36-26.45,1.36-26.45-.08,24.95,22.18,49.91,22.18,49.91-2.38-4-1.38-25.81-1.38-25.81,6,20.82,15.94,33.78,23.12,40.92a49.38,49.38,0,0,0,8.74,7.19c1.21.77,2.41,1.51,3.6,2.23h0l-.26.1a88.65,88.65,0,0,1,17.71,10.2c-20.91-15.5-13.42-7.63.76-3.37,10.4,3.12,16.87,7,26.75,6.74,20.51-.46,40.8-.29,61.32.41,22.45.77,36.46-2.38,57.44-5.11,4.28.07,8.56.17,12.84.27,8.35-4.13,16.73-7.85,25.53-11.2,1.43-.54,2.88-.94,4.33-1.37a227.56,227.56,0,0,0,14.58-22.46c.84,5.47-2.21,13.35-5.85,20.43a65,65,0,0,1,10.87-.64c.11-.1.18-.2.29-.31a24.17,24.17,0,0,1,4-3.1l-1.42.4c11.7-18.74,15.46-43.12,15.46-43.12,5.36,9.62-2.15,34.77-2.15,34.77,32.95-33.7,1.12-101,1.12-101,10.27,9.61,22.26,42.2,22.26,42.2.15-32-29-68-29-68,55.9-55,59.4-83.2,59.4-83.2C590.58,124.6,523,145.53,523,145.53c-22-36.76-58.6-40.6-58.6-40.6,12.93,6.07,21.85,21,21.85,21-19.53-11.09-36-18.18-49.63-22.64-2.11-10.85-13.48-46.75-72.19-58.57,0,0-19.6,41-14.5,68.1-20.22,4.15-23.45,10.78-23.45,10.78l19.65-.08-19.56,40.82c-26.27.69-43.24,14.28-43.24,14.28,4.87-1.62,18.78,2.77,18.78,2.77-39.67,11.52-52.95,42.95-52.95,42.95A21.09,21.09,0,0,1,264.89,218.94Zm281.82-53.28s44.43-15.91,68.68.88c0,0-19,34.56-42.15,45.38C573.24,211.92,563.62,184,546.71,165.66ZM379.62,210.73c11.71-28.81,48-62.63,71.79-52.94s26.2,59.2,14.5,88-40.62,38.51-64.44,28.82S367.91,239.53,379.62,210.73Zm-4-146.17c32,10.48,45.29,40,39.86,40.55C402.87,106.46,367.54,122,367.54,122,356.88,102.8,375.59,64.56,375.59,64.56Z"/><path class="cls-3" d="M588.3,333.6S574.84,397,537.87,417.49c0,0,15.8-24.09,19-36.13,0,0-23.8,47-100.09,43.89a89.82,89.82,0,0,0,39.76-19.75s-104.84,28.85-164.71-29.1l142-6.27s73.29-45.34,74.78-45.2S588.3,333.6,588.3,333.6Z"/><path class="cls-2" d="M447.25,351.07c-31.27,7-66.08-1.58-103.64-25.51a1.69,1.69,0,0,1,1.82-2.86c40.13,25.56,76.91,33.24,109.31,22.82,50.43-16.22,73.06-71.39,73.28-71.94a1.7,1.7,0,0,1,3.15,1.26c-.23.57-23.47,57.21-75.39,73.91C453,349.65,450.12,350.43,447.25,351.07Z"/><path class="cls-2" d="M548.45,283.63s-.35-48.15-35.28-19.09c0,0,29.29-19.16,34.15,26.37"/><path class="cls-2" d="M359.25,247.72c17.85,13-31.21,15.63-31.21,15.63s-7-16.51-6.78-29.58S341.41,234.71,359.25,247.72Z"/><ellipse class="cls-3" cx="390.28" cy="225.49" rx="16.46" ry="7" transform="translate(90.81 562.37) rotate(-78.38)"/><ellipse class="cls-2" cx="349.83" cy="217.18" rx="16.46" ry="7" transform="translate(66.65 516.1) rotate(-78.38)"/><path class="cls-7" d="M459.62,94.07s45.19-28.25,74.68-.29-7.19,49-7.19,49S477.48,159.43,459.62,94.07Z"/><path class="cls-11" d="M534.3,93.78c-29.49-28-74.68.29-74.68.29a110.73,110.73,0,0,0,5,14.57C472,100.39,492.24,84.3,534.3,93.78Z"/><path class="cls-9" d="M526.33,162.88s-83.57-15.55-91.59-72.14l24.62-7.61s24.37,55.26,67.75,59.66Z"/><rect class="cls-7" x="438" y="93.72" width="22.47" height="1.57" transform="translate(-7.91 136.46) rotate(-17.12)"/><rect class="cls-7" x="442.06" y="102.2" width="22.46" height="1.57" transform="translate(-5.43 178.15) rotate(-22.11)"/><rect class="cls-7" x="448.16" y="110.65" width="22.47" height="1.57" transform="translate(6.84 248.01) rotate(-30.43)"/><rect class="cls-7" x="454.48" y="118.85" width="22.47" height="1.57" transform="translate(17.04 292.53) rotate(-35.48)"/><rect class="cls-7" x="464.62" y="127.17" width="20.15" height="1.57" transform="translate(25.98 328.86) rotate(-39.21)"/><rect class="cls-7" x="476.37" y="134.36" width="16.56" height="1.57" transform="translate(49.54 387.78) rotate(-45.72)"/><rect class="cls-7" x="485.59" y="140.99" width="14.74" height="1.57" transform="translate(78.15 443.51) rotate(-52.08)"/><rect class="cls-7" x="497.19" y="146.14" width="14.74" height="1.57" transform="translate(138 523.48) rotate(-62.01)"/><rect class="cls-7" x="510.55" y="150.92" width="14.74" height="1.57" transform="translate(258.62 625.01) rotate(-77.61)"/><path class="cls-12" d="M445.52,486.29l-.27,3.31a35.66,35.66,0,0,1-35.54,32.78H358.6l4.68-36.09Z"/><path class="cls-12" d="M226.86,727.66l9-.94q-.45-4.31-.75-8.61a303.59,303.59,0,0,1,3.58-69.66,197.38,197.38,0,0,1,18.63-58,179.56,179.56,0,0,1,72-74.28,167.4,167.4,0,0,1,49-18l-1.75-8.91a176.44,176.44,0,0,0-51.68,19,188.44,188.44,0,0,0-75.67,78.07A206.54,206.54,0,0,0,229.76,647a312.13,312.13,0,0,0-3.68,71.75Q226.4,723.22,226.86,727.66Z"/><path class="cls-13" d="M226.07,725.67s-8,12.68-27.27,12.68l-.54,3.94s24.72,2,32.17-9.88l-.52,9,8.25-.86-2.59-16.33Z"/><rect class="cls-14" x="186.35" y="358.56" width="16.14" height="375.04"/><polygon class="cls-5" points="266.2 733.6 189.24 347.01 208.95 347.01 280.78 733.6 266.2 733.6"/><polygon class="cls-5" points="106.91 733.6 178.74 347.01 198.45 347.01 121.49 733.6 106.91 733.6"/><rect class="cls-15" x="148.99" y="328" width="101.11" height="51.7" transform="translate(399.09 707.69) rotate(180)"/><path class="cls-5" d="M324.41,186.64,278.31,184l-3.73,64.17,46.1,2.67C332,251.47,342,237.64,343,219.92S335.73,187.3,324.41,186.64Z"/><path class="cls-11" d="M276.2,220.28l-1.62,27.86,46.1,2.67c10.4.61,19.69-11,21.93-26.67Z"/><path class="cls-16" d="M113.86,324.63l182,10.57s23.92-61.17,9.38-161.66L123.24,163S116.39,180.76,113.86,324.63Z"/><path class="cls-11" d="M100.21,285.24c-.32,11.72-.61,24.54-.85,38.55L295.81,335.2s5.25-13.44,9.33-38.06Z"/><path class="cls-15" d="M171.93,165.79l47.84,2.77c19.18,54.36,16,109.92-9.39,161.69l-47.84-2.77C187.88,275.7,191.11,220.14,171.93,165.79Z"/><rect class="cls-15" x="94.09" y="181.57" width="71.16" height="42.12" rx="6.48" ry="6.48" transform="translate(11.96 -7.17) rotate(3.32)"/><rect class="cls-15" x="265.16" y="198.38" width="4.36" height="85.11" transform="translate(11.32 493.86) rotate(-86.68)"/><rect class="cls-15" x="263.27" y="230.97" width="4.36" height="85.11" transform="translate(-23.01 522.68) rotate(-86.68)"/><rect class="cls-16" x="147.82" y="190.14" width="8.71" height="26.14" rx="4.36" ry="4.36" transform="translate(12.03 -8.48) rotate(3.32)"/><circle class="cls-11" cx="257.83" cy="256.73" r="9.17"/><path class="cls-17" d="M263.54,257.07a9.16,9.16,0,0,0-8-9.62v0l-3.94-.23,0,.63a9.16,9.16,0,0,0-1,17l0,.63,3.94.23v0A9.16,9.16,0,0,0,263.54,257.07Z"/><circle class="cls-18" cx="250.86" cy="256.33" r="9.17"/><circle class="cls-11" cx="288.82" cy="258.53" r="9.17"/><path class="cls-19" d="M294.53,258.86a9.16,9.16,0,0,0-8-9.61v0l-3.94-.23,0,.63a9.16,9.16,0,0,0-1,17l0,.63,3.94.23v0A9.16,9.16,0,0,0,294.53,258.86Z"/><circle class="cls-20" cx="281.84" cy="258.13" r="9.17"/><path class="cls-15" d="M261,240.73l-1.39-.41c11.28-38.79-6.43-69.1-6.61-69.4l1.25-.74C254.46,170.48,272.5,201.31,261,240.73Z"/><path class="cls-15" d="M278.48,241.74l-1.4-.4c11.29-38.79-6.42-69.1-6.6-69.41l1.25-.74C271.91,171.5,290,202.32,278.48,241.74Z"/><ellipse class="cls-16" cx="68.31" cy="268.09" rx="73.39" ry="43.87" transform="matrix(0.06, -1, 1, 0.06, -203.29, 320.75)"/><path class="cls-15" d="M85.75,316.46c-.52,0-1,0-1.57,0-9.47-.55-18.05-6-24.16-15.46s-8.92-21.28-8.2-33.81,5-24.12,12.06-32.64,16.32-13.11,25.79-12.56,18,6,24.16,15.46,8.93,21.28,8.2,33.81l-1.58-.09,1.58.09c-.73,12.53-5,24.12-12.06,32.64C103.21,312,94.66,316.46,85.75,316.46Zm2.37-91.4c-8,0-15.65,4-21.8,11.46-6.62,8-10.65,18.94-11.34,30.8s2.05,23.19,7.7,31.9c5.55,8.56,13.25,13.54,21.69,14s16.66-3.56,23.17-11.42,10.64-18.94,11.33-30.8-2.05-23.19-7.69-31.9c-5.55-8.56-13.26-13.54-21.7-14C89,225.07,88.57,225.06,88.12,225.06Z"/><path class="cls-5" d="M146,245.14l-46.1-2.68-3.24,55.8,46.1,2.68c11.32.65,21.22-11.3,22.11-26.71S157.34,245.8,146,245.14Z"/><path class="cls-11" d="M98.09,274l-1.41,24.22,46.1,2.68c10.4.6,19.6-9.45,21.72-23.05Z"/><ellipse class="cls-15" cx="101.72" cy="270.03" rx="28.53" ry="20.95" transform="translate(-173.75 355.94) rotate(-86.68)"/><path class="cls-5" d="M94.13,197.75v-.08L74.33,195c19.43,8.14,39.83,40.39,37.78,75.65C110,307.57,84.89,337.5,63.36,341.32L85.81,341c23.3-.48,43.59-30.77,45.82-69.18S117.22,200.93,94.13,197.75Z"/><path class="cls-11" d="M28,243c20-3.56,51.72-2.18,84.14,27.64,2.35-40.47-15.36-74.41-39.55-75.81C53.1,193.7,35.38,214,28,243Z"/><ellipse class="cls-2" cx="85.04" cy="252.33" rx="10.71" ry="6.09" transform="translate(-171.79 322.6) rotate(-86.68)"/><path class="cls-12" d="M294,730.85l9-.81c-4-45.55-4.26-104.63,30.37-157.82l2.83-2.83.31-.55c7.64-13.58,19-23.33,31-33.64l.64-.55a139.61,139.61,0,0,1,30.72-19.29c12.63-5.42,24.67-10.58,37.75-12l-1-9c-14.43,1.55-27.67,7.23-40.47,12.71a149.28,149.28,0,0,0-32.86,20.64l-.71.61c-12.51,10.72-24.33,20.84-32.74,35.53l-2.88,3C289.64,622.49,289.79,683.72,294,730.85Z"/><path class="cls-13" d="M293.34,725.67s-8,12.68-27.27,12.68l-.53,3.94s24.72,2,32.16-9.88l-.52,9,8.25-.86-2.59-16.33Z"/><path class="cls-21" d="M675.63,335.49l-26,8.42a23.27,23.27,0,0,0-14.26,31.19L658,428.63h0a23.26,23.26,0,0,0,30.84,12.24l31.07-13.74-8.12-25.07-28.11,11.15a11.12,11.12,0,0,1-14.27-5.85l-12-27a15.66,15.66,0,0,1,9.49-21.23l21.1-6.83Z"/><path class="cls-22" d="M640.23,283.92c5.43-1.41,84.39,219.93,84.39,219.93l142.59-105L673.78,259.21Z"/><rect class="cls-5" x="695.38" y="443.22" width="198.3" height="25.92" transform="translate(-115.72 560.19) rotate(-36.38)"/><rect class="cls-5" x="626.15" y="260.05" width="59.91" height="16.48" transform="translate(-31.25 441.47) rotate(-36.38)"/><path class="cls-3" d="M689.36,402.17a56.71,56.71,0,0,1-16.48,30.46c-2.56,2.44-5.87,4.78-9.33,4.06-3.31-.69-5.5-4.14-5.73-7.51s1.08-6.65,2.62-9.67a62,62,0,0,1,22.31-24.29,198.21,198.21,0,0,1-21.62,10.32c-6.37,2.58-13.5,4.83-20,2.57-3.37-1.17-6.52-4-6.73-7.53-.23-4,3.16-7.24,6.54-9.4a48.23,48.23,0,0,1,39-5.67l-15.91-1.33c-5.89-.49-12-1.13-17.45-3.45-7.67-3.25-14.7-12.57-5-18.38,5.72-3.41,11.26-1.9,17.12.17A82.31,82.31,0,0,1,669,366.91c2.81,1.43,6.83,3,8.78,5.57h0"/><polygon class="cls-8" points="774.06 467.43 640.23 276.17 721.25 494.43 774.06 467.43"/></g></g></svg>